%TF.GenerationSoftware,KiCad,Pcbnew,9.0.1*%
%TF.CreationDate,2025-06-03T10:55:25+05:30*%
%TF.ProjectId,lighting_pcb_tht,6c696768-7469-46e6-975f-7063625f7468,rev?*%
%TF.SameCoordinates,Original*%
%TF.FileFunction,Soldermask,Top*%
%TF.FilePolarity,Negative*%
%FSLAX46Y46*%
G04 Gerber Fmt 4.6, Leading zero omitted, Abs format (unit mm)*
G04 Created by KiCad (PCBNEW 9.0.1) date 2025-06-03 10:55:25*
%MOMM*%
%LPD*%
G01*
G04 APERTURE LIST*
G04 Aperture macros list*
%AMRoundRect*
0 Rectangle with rounded corners*
0 $1 Rounding radius*
0 $2 $3 $4 $5 $6 $7 $8 $9 X,Y pos of 4 corners*
0 Add a 4 corners polygon primitive as box body*
4,1,4,$2,$3,$4,$5,$6,$7,$8,$9,$2,$3,0*
0 Add four circle primitives for the rounded corners*
1,1,$1+$1,$2,$3*
1,1,$1+$1,$4,$5*
1,1,$1+$1,$6,$7*
1,1,$1+$1,$8,$9*
0 Add four rect primitives between the rounded corners*
20,1,$1+$1,$2,$3,$4,$5,0*
20,1,$1+$1,$4,$5,$6,$7,0*
20,1,$1+$1,$6,$7,$8,$9,0*
20,1,$1+$1,$8,$9,$2,$3,0*%
G04 Aperture macros list end*
%ADD10RoundRect,0.250001X-0.624999X0.462499X-0.624999X-0.462499X0.624999X-0.462499X0.624999X0.462499X0*%
%ADD11RoundRect,0.250000X-0.625000X0.400000X-0.625000X-0.400000X0.625000X-0.400000X0.625000X0.400000X0*%
%ADD12RoundRect,0.190500X-0.762000X-0.444500X0.762000X-0.444500X0.762000X0.444500X-0.762000X0.444500X0*%
%ADD13RoundRect,0.250000X-0.550000X-0.550000X0.550000X-0.550000X0.550000X0.550000X-0.550000X0.550000X0*%
%ADD14C,1.600000*%
%ADD15C,2.000000*%
%ADD16O,3.200000X1.900000*%
%ADD17R,1.600000X1.600000*%
%ADD18C,2.800000*%
%ADD19RoundRect,0.250001X-1.149999X-1.149999X1.149999X-1.149999X1.149999X1.149999X-1.149999X1.149999X0*%
%ADD20RoundRect,0.250000X0.412500X0.650000X-0.412500X0.650000X-0.412500X-0.650000X0.412500X-0.650000X0*%
%ADD21RoundRect,0.250000X-0.650000X0.412500X-0.650000X-0.412500X0.650000X-0.412500X0.650000X0.412500X0*%
%ADD22RoundRect,0.250000X0.650000X-0.412500X0.650000X0.412500X-0.650000X0.412500X-0.650000X-0.412500X0*%
%ADD23C,1.500000*%
G04 APERTURE END LIST*
D10*
%TO.C,D1*%
X21000000Y-17995000D03*
X21000000Y-15020000D03*
%TD*%
D11*
%TO.C,R1*%
X21000000Y-4537500D03*
X21000000Y-7637500D03*
%TD*%
D12*
%TO.C,U2*%
X1500000Y-2690000D03*
X1500000Y-4690000D03*
X1500000Y-6690000D03*
X1500000Y-8690000D03*
X1500000Y-10690000D03*
X1500000Y-12690000D03*
X1500000Y-14690000D03*
X1500000Y-16690000D03*
%TD*%
D13*
%TO.C,U1*%
X8890000Y-3050000D03*
D14*
X8890000Y-5590000D03*
X8890000Y-8130000D03*
X8890000Y-10670000D03*
X8890000Y-13210000D03*
X8890000Y-15750000D03*
X8890000Y-18290000D03*
X8890000Y-20830000D03*
X8890000Y-23370000D03*
X8890000Y-25910000D03*
X8890000Y-28450000D03*
X8890000Y-30990000D03*
X8890000Y-33530000D03*
X8890000Y-36070000D03*
X16510000Y-36070000D03*
X16510000Y-33530000D03*
X16510000Y-30990000D03*
X16510000Y-28450000D03*
X16510000Y-25910000D03*
X16510000Y-23370000D03*
X16510000Y-20830000D03*
X16510000Y-18290000D03*
X16510000Y-15750000D03*
X16510000Y-13210000D03*
X16510000Y-10670000D03*
X16510000Y-8130000D03*
X16510000Y-5590000D03*
X16510000Y-3050000D03*
%TD*%
D15*
%TO.C,H4*%
X21000000Y-47770000D03*
%TD*%
D16*
%TO.C,SW3*%
X38100000Y-44010000D03*
X25600000Y-44010000D03*
X38100000Y-39010000D03*
X25600000Y-39010000D03*
%TD*%
%TO.C,SW2*%
X38100000Y-27510000D03*
X25600000Y-27510000D03*
X38100000Y-22510000D03*
X25600000Y-22510000D03*
%TD*%
D14*
%TO.C,C3*%
X21000000Y-38050000D03*
D17*
X21000000Y-36050000D03*
%TD*%
D18*
%TO.C,J1*%
X14860000Y-43270000D03*
X9860000Y-43270000D03*
D19*
X4860000Y-43270000D03*
%TD*%
D15*
%TO.C,H2*%
X20980000Y-2260000D03*
%TD*%
D11*
%TO.C,R2*%
X19380000Y-44910000D03*
X19380000Y-41810000D03*
%TD*%
D20*
%TO.C,C2*%
X2157500Y-20510000D03*
X5282500Y-20510000D03*
%TD*%
D15*
%TO.C,H3*%
X21300000Y-26120000D03*
%TD*%
%TO.C,H1*%
X5370000Y-2000000D03*
%TD*%
D21*
%TO.C,C5*%
X21000000Y-32490000D03*
X21000000Y-29365000D03*
%TD*%
D22*
%TO.C,C1*%
X21000000Y-20037500D03*
X21000000Y-23162500D03*
%TD*%
D11*
%TO.C,R3*%
X21000000Y-12797500D03*
X21000000Y-9697500D03*
%TD*%
D20*
%TO.C,C4*%
X1985000Y-35400000D03*
X5110000Y-35400000D03*
%TD*%
D16*
%TO.C,SW1*%
X38100000Y-11000000D03*
X25600000Y-11000000D03*
X38100000Y-6000000D03*
X25600000Y-6000000D03*
%TD*%
D23*
%TO.C,Y1*%
X3790000Y-30420000D03*
X3790000Y-25540000D03*
%TD*%
M02*
