%TF.GenerationSoftware,KiCad,Pcbnew,9.0.1*%
%TF.CreationDate,2025-06-03T10:55:25+05:30*%
%TF.ProjectId,lighting_pcb_tht,6c696768-7469-46e6-975f-7063625f7468,rev?*%
%TF.SameCoordinates,Original*%
%TF.FileFunction,Legend,Top*%
%TF.FilePolarity,Positive*%
%FSLAX46Y46*%
G04 Gerber Fmt 4.6, Leading zero omitted, Abs format (unit mm)*
G04 Created by KiCad (PCBNEW 9.0.1) date 2025-06-03 10:55:25*
%MOMM*%
%LPD*%
G01*
G04 APERTURE LIST*
%ADD10C,0.170000*%
%ADD11C,0.120000*%
G04 APERTURE END LIST*
D10*
X7877556Y-49414302D02*
X7877556Y-48214302D01*
X7877556Y-48214302D02*
X8163270Y-48214302D01*
X8163270Y-48214302D02*
X8334699Y-48271445D01*
X8334699Y-48271445D02*
X8448984Y-48385731D01*
X8448984Y-48385731D02*
X8506127Y-48500017D01*
X8506127Y-48500017D02*
X8563270Y-48728588D01*
X8563270Y-48728588D02*
X8563270Y-48900017D01*
X8563270Y-48900017D02*
X8506127Y-49128588D01*
X8506127Y-49128588D02*
X8448984Y-49242874D01*
X8448984Y-49242874D02*
X8334699Y-49357160D01*
X8334699Y-49357160D02*
X8163270Y-49414302D01*
X8163270Y-49414302D02*
X7877556Y-49414302D01*
X9020413Y-49071445D02*
X9591842Y-49071445D01*
X8906127Y-49414302D02*
X9306127Y-48214302D01*
X9306127Y-48214302D02*
X9706127Y-49414302D01*
X9934698Y-48214302D02*
X10620413Y-48214302D01*
X10277555Y-49414302D02*
X10277555Y-48214302D01*
X10963270Y-49071445D02*
X11534699Y-49071445D01*
X10848984Y-49414302D02*
X11248984Y-48214302D01*
X11248984Y-48214302D02*
X11648984Y-49414302D01*
X14016127Y-48271445D02*
X13901842Y-48214302D01*
X13901842Y-48214302D02*
X13730413Y-48214302D01*
X13730413Y-48214302D02*
X13558984Y-48271445D01*
X13558984Y-48271445D02*
X13444699Y-48385731D01*
X13444699Y-48385731D02*
X13387556Y-48500017D01*
X13387556Y-48500017D02*
X13330413Y-48728588D01*
X13330413Y-48728588D02*
X13330413Y-48900017D01*
X13330413Y-48900017D02*
X13387556Y-49128588D01*
X13387556Y-49128588D02*
X13444699Y-49242874D01*
X13444699Y-49242874D02*
X13558984Y-49357160D01*
X13558984Y-49357160D02*
X13730413Y-49414302D01*
X13730413Y-49414302D02*
X13844699Y-49414302D01*
X13844699Y-49414302D02*
X14016127Y-49357160D01*
X14016127Y-49357160D02*
X14073270Y-49300017D01*
X14073270Y-49300017D02*
X14073270Y-48900017D01*
X14073270Y-48900017D02*
X13844699Y-48900017D01*
X14587556Y-49414302D02*
X14587556Y-48214302D01*
X14587556Y-48214302D02*
X15273270Y-49414302D01*
X15273270Y-49414302D02*
X15273270Y-48214302D01*
X15844699Y-49414302D02*
X15844699Y-48214302D01*
X15844699Y-48214302D02*
X16130413Y-48214302D01*
X16130413Y-48214302D02*
X16301842Y-48271445D01*
X16301842Y-48271445D02*
X16416127Y-48385731D01*
X16416127Y-48385731D02*
X16473270Y-48500017D01*
X16473270Y-48500017D02*
X16530413Y-48728588D01*
X16530413Y-48728588D02*
X16530413Y-48900017D01*
X16530413Y-48900017D02*
X16473270Y-49128588D01*
X16473270Y-49128588D02*
X16416127Y-49242874D01*
X16416127Y-49242874D02*
X16301842Y-49357160D01*
X16301842Y-49357160D02*
X16130413Y-49414302D01*
X16130413Y-49414302D02*
X15844699Y-49414302D01*
X2677556Y-48957160D02*
X3591842Y-48957160D01*
X3134699Y-49414302D02*
X3134699Y-48500017D01*
X4734698Y-48214302D02*
X4163270Y-48214302D01*
X4163270Y-48214302D02*
X4106127Y-48785731D01*
X4106127Y-48785731D02*
X4163270Y-48728588D01*
X4163270Y-48728588D02*
X4277556Y-48671445D01*
X4277556Y-48671445D02*
X4563270Y-48671445D01*
X4563270Y-48671445D02*
X4677556Y-48728588D01*
X4677556Y-48728588D02*
X4734698Y-48785731D01*
X4734698Y-48785731D02*
X4791841Y-48900017D01*
X4791841Y-48900017D02*
X4791841Y-49185731D01*
X4791841Y-49185731D02*
X4734698Y-49300017D01*
X4734698Y-49300017D02*
X4677556Y-49357160D01*
X4677556Y-49357160D02*
X4563270Y-49414302D01*
X4563270Y-49414302D02*
X4277556Y-49414302D01*
X4277556Y-49414302D02*
X4163270Y-49357160D01*
X4163270Y-49357160D02*
X4106127Y-49300017D01*
X5134698Y-48214302D02*
X5534698Y-49414302D01*
X5534698Y-49414302D02*
X5934698Y-48214302D01*
X37296127Y-48054302D02*
X37981842Y-48054302D01*
X37638984Y-49254302D02*
X37638984Y-48054302D01*
X38610413Y-48054302D02*
X38838985Y-48054302D01*
X38838985Y-48054302D02*
X38953270Y-48111445D01*
X38953270Y-48111445D02*
X39067556Y-48225731D01*
X39067556Y-48225731D02*
X39124699Y-48454302D01*
X39124699Y-48454302D02*
X39124699Y-48854302D01*
X39124699Y-48854302D02*
X39067556Y-49082874D01*
X39067556Y-49082874D02*
X38953270Y-49197160D01*
X38953270Y-49197160D02*
X38838985Y-49254302D01*
X38838985Y-49254302D02*
X38610413Y-49254302D01*
X38610413Y-49254302D02*
X38496128Y-49197160D01*
X38496128Y-49197160D02*
X38381842Y-49082874D01*
X38381842Y-49082874D02*
X38324699Y-48854302D01*
X38324699Y-48854302D02*
X38324699Y-48454302D01*
X38324699Y-48454302D02*
X38381842Y-48225731D01*
X38381842Y-48225731D02*
X38496128Y-48111445D01*
X38496128Y-48111445D02*
X38610413Y-48054302D01*
X39638985Y-49254302D02*
X39638985Y-48054302D01*
X39638985Y-48054302D02*
X40096128Y-48054302D01*
X40096128Y-48054302D02*
X40210413Y-48111445D01*
X40210413Y-48111445D02*
X40267556Y-48168588D01*
X40267556Y-48168588D02*
X40324699Y-48282874D01*
X40324699Y-48282874D02*
X40324699Y-48454302D01*
X40324699Y-48454302D02*
X40267556Y-48568588D01*
X40267556Y-48568588D02*
X40210413Y-48625731D01*
X40210413Y-48625731D02*
X40096128Y-48682874D01*
X40096128Y-48682874D02*
X39638985Y-48682874D01*
X22344286Y-15256302D02*
X22344286Y-14056302D01*
X22344286Y-14056302D02*
X22630000Y-14056302D01*
X22630000Y-14056302D02*
X22801429Y-14113445D01*
X22801429Y-14113445D02*
X22915714Y-14227731D01*
X22915714Y-14227731D02*
X22972857Y-14342017D01*
X22972857Y-14342017D02*
X23030000Y-14570588D01*
X23030000Y-14570588D02*
X23030000Y-14742017D01*
X23030000Y-14742017D02*
X22972857Y-14970588D01*
X22972857Y-14970588D02*
X22915714Y-15084874D01*
X22915714Y-15084874D02*
X22801429Y-15199160D01*
X22801429Y-15199160D02*
X22630000Y-15256302D01*
X22630000Y-15256302D02*
X22344286Y-15256302D01*
X24172857Y-15256302D02*
X23487143Y-15256302D01*
X23830000Y-15256302D02*
X23830000Y-14056302D01*
X23830000Y-14056302D02*
X23715714Y-14227731D01*
X23715714Y-14227731D02*
X23601429Y-14342017D01*
X23601429Y-14342017D02*
X23487143Y-14399160D01*
X23040000Y-4806302D02*
X22640000Y-4234874D01*
X22354286Y-4806302D02*
X22354286Y-3606302D01*
X22354286Y-3606302D02*
X22811429Y-3606302D01*
X22811429Y-3606302D02*
X22925714Y-3663445D01*
X22925714Y-3663445D02*
X22982857Y-3720588D01*
X22982857Y-3720588D02*
X23040000Y-3834874D01*
X23040000Y-3834874D02*
X23040000Y-4006302D01*
X23040000Y-4006302D02*
X22982857Y-4120588D01*
X22982857Y-4120588D02*
X22925714Y-4177731D01*
X22925714Y-4177731D02*
X22811429Y-4234874D01*
X22811429Y-4234874D02*
X22354286Y-4234874D01*
X24182857Y-4806302D02*
X23497143Y-4806302D01*
X23840000Y-4806302D02*
X23840000Y-3606302D01*
X23840000Y-3606302D02*
X23725714Y-3777731D01*
X23725714Y-3777731D02*
X23611429Y-3892017D01*
X23611429Y-3892017D02*
X23497143Y-3949160D01*
X3185714Y-8946302D02*
X3185714Y-9917731D01*
X3185714Y-9917731D02*
X3242857Y-10032017D01*
X3242857Y-10032017D02*
X3300000Y-10089160D01*
X3300000Y-10089160D02*
X3414285Y-10146302D01*
X3414285Y-10146302D02*
X3642857Y-10146302D01*
X3642857Y-10146302D02*
X3757142Y-10089160D01*
X3757142Y-10089160D02*
X3814285Y-10032017D01*
X3814285Y-10032017D02*
X3871428Y-9917731D01*
X3871428Y-9917731D02*
X3871428Y-8946302D01*
X4385714Y-9060588D02*
X4442857Y-9003445D01*
X4442857Y-9003445D02*
X4557143Y-8946302D01*
X4557143Y-8946302D02*
X4842857Y-8946302D01*
X4842857Y-8946302D02*
X4957143Y-9003445D01*
X4957143Y-9003445D02*
X5014285Y-9060588D01*
X5014285Y-9060588D02*
X5071428Y-9174874D01*
X5071428Y-9174874D02*
X5071428Y-9289160D01*
X5071428Y-9289160D02*
X5014285Y-9460588D01*
X5014285Y-9460588D02*
X4328571Y-10146302D01*
X4328571Y-10146302D02*
X5071428Y-10146302D01*
X11865714Y-276302D02*
X11865714Y-1247731D01*
X11865714Y-1247731D02*
X11922857Y-1362017D01*
X11922857Y-1362017D02*
X11980000Y-1419160D01*
X11980000Y-1419160D02*
X12094285Y-1476302D01*
X12094285Y-1476302D02*
X12322857Y-1476302D01*
X12322857Y-1476302D02*
X12437142Y-1419160D01*
X12437142Y-1419160D02*
X12494285Y-1362017D01*
X12494285Y-1362017D02*
X12551428Y-1247731D01*
X12551428Y-1247731D02*
X12551428Y-276302D01*
X13751428Y-1476302D02*
X13065714Y-1476302D01*
X13408571Y-1476302D02*
X13408571Y-276302D01*
X13408571Y-276302D02*
X13294285Y-447731D01*
X13294285Y-447731D02*
X13180000Y-562017D01*
X13180000Y-562017D02*
X13065714Y-619160D01*
X29830000Y-34089160D02*
X30001429Y-34146302D01*
X30001429Y-34146302D02*
X30287143Y-34146302D01*
X30287143Y-34146302D02*
X30401429Y-34089160D01*
X30401429Y-34089160D02*
X30458571Y-34032017D01*
X30458571Y-34032017D02*
X30515714Y-33917731D01*
X30515714Y-33917731D02*
X30515714Y-33803445D01*
X30515714Y-33803445D02*
X30458571Y-33689160D01*
X30458571Y-33689160D02*
X30401429Y-33632017D01*
X30401429Y-33632017D02*
X30287143Y-33574874D01*
X30287143Y-33574874D02*
X30058571Y-33517731D01*
X30058571Y-33517731D02*
X29944286Y-33460588D01*
X29944286Y-33460588D02*
X29887143Y-33403445D01*
X29887143Y-33403445D02*
X29830000Y-33289160D01*
X29830000Y-33289160D02*
X29830000Y-33174874D01*
X29830000Y-33174874D02*
X29887143Y-33060588D01*
X29887143Y-33060588D02*
X29944286Y-33003445D01*
X29944286Y-33003445D02*
X30058571Y-32946302D01*
X30058571Y-32946302D02*
X30344286Y-32946302D01*
X30344286Y-32946302D02*
X30515714Y-33003445D01*
X30915714Y-32946302D02*
X31201428Y-34146302D01*
X31201428Y-34146302D02*
X31430000Y-33289160D01*
X31430000Y-33289160D02*
X31658571Y-34146302D01*
X31658571Y-34146302D02*
X31944286Y-32946302D01*
X32287143Y-32946302D02*
X33030000Y-32946302D01*
X33030000Y-32946302D02*
X32630000Y-33403445D01*
X32630000Y-33403445D02*
X32801429Y-33403445D01*
X32801429Y-33403445D02*
X32915715Y-33460588D01*
X32915715Y-33460588D02*
X32972857Y-33517731D01*
X32972857Y-33517731D02*
X33030000Y-33632017D01*
X33030000Y-33632017D02*
X33030000Y-33917731D01*
X33030000Y-33917731D02*
X32972857Y-34032017D01*
X32972857Y-34032017D02*
X32915715Y-34089160D01*
X32915715Y-34089160D02*
X32801429Y-34146302D01*
X32801429Y-34146302D02*
X32458572Y-34146302D01*
X32458572Y-34146302D02*
X32344286Y-34089160D01*
X32344286Y-34089160D02*
X32287143Y-34032017D01*
X29830000Y-17589160D02*
X30001429Y-17646302D01*
X30001429Y-17646302D02*
X30287143Y-17646302D01*
X30287143Y-17646302D02*
X30401429Y-17589160D01*
X30401429Y-17589160D02*
X30458571Y-17532017D01*
X30458571Y-17532017D02*
X30515714Y-17417731D01*
X30515714Y-17417731D02*
X30515714Y-17303445D01*
X30515714Y-17303445D02*
X30458571Y-17189160D01*
X30458571Y-17189160D02*
X30401429Y-17132017D01*
X30401429Y-17132017D02*
X30287143Y-17074874D01*
X30287143Y-17074874D02*
X30058571Y-17017731D01*
X30058571Y-17017731D02*
X29944286Y-16960588D01*
X29944286Y-16960588D02*
X29887143Y-16903445D01*
X29887143Y-16903445D02*
X29830000Y-16789160D01*
X29830000Y-16789160D02*
X29830000Y-16674874D01*
X29830000Y-16674874D02*
X29887143Y-16560588D01*
X29887143Y-16560588D02*
X29944286Y-16503445D01*
X29944286Y-16503445D02*
X30058571Y-16446302D01*
X30058571Y-16446302D02*
X30344286Y-16446302D01*
X30344286Y-16446302D02*
X30515714Y-16503445D01*
X30915714Y-16446302D02*
X31201428Y-17646302D01*
X31201428Y-17646302D02*
X31430000Y-16789160D01*
X31430000Y-16789160D02*
X31658571Y-17646302D01*
X31658571Y-17646302D02*
X31944286Y-16446302D01*
X32344286Y-16560588D02*
X32401429Y-16503445D01*
X32401429Y-16503445D02*
X32515715Y-16446302D01*
X32515715Y-16446302D02*
X32801429Y-16446302D01*
X32801429Y-16446302D02*
X32915715Y-16503445D01*
X32915715Y-16503445D02*
X32972857Y-16560588D01*
X32972857Y-16560588D02*
X33030000Y-16674874D01*
X33030000Y-16674874D02*
X33030000Y-16789160D01*
X33030000Y-16789160D02*
X32972857Y-16960588D01*
X32972857Y-16960588D02*
X32287143Y-17646302D01*
X32287143Y-17646302D02*
X33030000Y-17646302D01*
X23460000Y-34402017D02*
X23402857Y-34459160D01*
X23402857Y-34459160D02*
X23231429Y-34516302D01*
X23231429Y-34516302D02*
X23117143Y-34516302D01*
X23117143Y-34516302D02*
X22945714Y-34459160D01*
X22945714Y-34459160D02*
X22831429Y-34344874D01*
X22831429Y-34344874D02*
X22774286Y-34230588D01*
X22774286Y-34230588D02*
X22717143Y-34002017D01*
X22717143Y-34002017D02*
X22717143Y-33830588D01*
X22717143Y-33830588D02*
X22774286Y-33602017D01*
X22774286Y-33602017D02*
X22831429Y-33487731D01*
X22831429Y-33487731D02*
X22945714Y-33373445D01*
X22945714Y-33373445D02*
X23117143Y-33316302D01*
X23117143Y-33316302D02*
X23231429Y-33316302D01*
X23231429Y-33316302D02*
X23402857Y-33373445D01*
X23402857Y-33373445D02*
X23460000Y-33430588D01*
X23860000Y-33316302D02*
X24602857Y-33316302D01*
X24602857Y-33316302D02*
X24202857Y-33773445D01*
X24202857Y-33773445D02*
X24374286Y-33773445D01*
X24374286Y-33773445D02*
X24488572Y-33830588D01*
X24488572Y-33830588D02*
X24545714Y-33887731D01*
X24545714Y-33887731D02*
X24602857Y-34002017D01*
X24602857Y-34002017D02*
X24602857Y-34287731D01*
X24602857Y-34287731D02*
X24545714Y-34402017D01*
X24545714Y-34402017D02*
X24488572Y-34459160D01*
X24488572Y-34459160D02*
X24374286Y-34516302D01*
X24374286Y-34516302D02*
X24031429Y-34516302D01*
X24031429Y-34516302D02*
X23917143Y-34459160D01*
X23917143Y-34459160D02*
X23860000Y-34402017D01*
X18140000Y-46376302D02*
X18140000Y-47233445D01*
X18140000Y-47233445D02*
X18082857Y-47404874D01*
X18082857Y-47404874D02*
X17968571Y-47519160D01*
X17968571Y-47519160D02*
X17797143Y-47576302D01*
X17797143Y-47576302D02*
X17682857Y-47576302D01*
X19340000Y-47576302D02*
X18654286Y-47576302D01*
X18997143Y-47576302D02*
X18997143Y-46376302D01*
X18997143Y-46376302D02*
X18882857Y-46547731D01*
X18882857Y-46547731D02*
X18768572Y-46662017D01*
X18768572Y-46662017D02*
X18654286Y-46719160D01*
X21330000Y-43956302D02*
X20930000Y-43384874D01*
X20644286Y-43956302D02*
X20644286Y-42756302D01*
X20644286Y-42756302D02*
X21101429Y-42756302D01*
X21101429Y-42756302D02*
X21215714Y-42813445D01*
X21215714Y-42813445D02*
X21272857Y-42870588D01*
X21272857Y-42870588D02*
X21330000Y-42984874D01*
X21330000Y-42984874D02*
X21330000Y-43156302D01*
X21330000Y-43156302D02*
X21272857Y-43270588D01*
X21272857Y-43270588D02*
X21215714Y-43327731D01*
X21215714Y-43327731D02*
X21101429Y-43384874D01*
X21101429Y-43384874D02*
X20644286Y-43384874D01*
X21787143Y-42870588D02*
X21844286Y-42813445D01*
X21844286Y-42813445D02*
X21958572Y-42756302D01*
X21958572Y-42756302D02*
X22244286Y-42756302D01*
X22244286Y-42756302D02*
X22358572Y-42813445D01*
X22358572Y-42813445D02*
X22415714Y-42870588D01*
X22415714Y-42870588D02*
X22472857Y-42984874D01*
X22472857Y-42984874D02*
X22472857Y-43099160D01*
X22472857Y-43099160D02*
X22415714Y-43270588D01*
X22415714Y-43270588D02*
X21730000Y-43956302D01*
X21730000Y-43956302D02*
X22472857Y-43956302D01*
X5020000Y-19032017D02*
X4962857Y-19089160D01*
X4962857Y-19089160D02*
X4791429Y-19146302D01*
X4791429Y-19146302D02*
X4677143Y-19146302D01*
X4677143Y-19146302D02*
X4505714Y-19089160D01*
X4505714Y-19089160D02*
X4391429Y-18974874D01*
X4391429Y-18974874D02*
X4334286Y-18860588D01*
X4334286Y-18860588D02*
X4277143Y-18632017D01*
X4277143Y-18632017D02*
X4277143Y-18460588D01*
X4277143Y-18460588D02*
X4334286Y-18232017D01*
X4334286Y-18232017D02*
X4391429Y-18117731D01*
X4391429Y-18117731D02*
X4505714Y-18003445D01*
X4505714Y-18003445D02*
X4677143Y-17946302D01*
X4677143Y-17946302D02*
X4791429Y-17946302D01*
X4791429Y-17946302D02*
X4962857Y-18003445D01*
X4962857Y-18003445D02*
X5020000Y-18060588D01*
X5477143Y-18060588D02*
X5534286Y-18003445D01*
X5534286Y-18003445D02*
X5648572Y-17946302D01*
X5648572Y-17946302D02*
X5934286Y-17946302D01*
X5934286Y-17946302D02*
X6048572Y-18003445D01*
X6048572Y-18003445D02*
X6105714Y-18060588D01*
X6105714Y-18060588D02*
X6162857Y-18174874D01*
X6162857Y-18174874D02*
X6162857Y-18289160D01*
X6162857Y-18289160D02*
X6105714Y-18460588D01*
X6105714Y-18460588D02*
X5420000Y-19146302D01*
X5420000Y-19146302D02*
X6162857Y-19146302D01*
X23120000Y-31312017D02*
X23062857Y-31369160D01*
X23062857Y-31369160D02*
X22891429Y-31426302D01*
X22891429Y-31426302D02*
X22777143Y-31426302D01*
X22777143Y-31426302D02*
X22605714Y-31369160D01*
X22605714Y-31369160D02*
X22491429Y-31254874D01*
X22491429Y-31254874D02*
X22434286Y-31140588D01*
X22434286Y-31140588D02*
X22377143Y-30912017D01*
X22377143Y-30912017D02*
X22377143Y-30740588D01*
X22377143Y-30740588D02*
X22434286Y-30512017D01*
X22434286Y-30512017D02*
X22491429Y-30397731D01*
X22491429Y-30397731D02*
X22605714Y-30283445D01*
X22605714Y-30283445D02*
X22777143Y-30226302D01*
X22777143Y-30226302D02*
X22891429Y-30226302D01*
X22891429Y-30226302D02*
X23062857Y-30283445D01*
X23062857Y-30283445D02*
X23120000Y-30340588D01*
X24205714Y-30226302D02*
X23634286Y-30226302D01*
X23634286Y-30226302D02*
X23577143Y-30797731D01*
X23577143Y-30797731D02*
X23634286Y-30740588D01*
X23634286Y-30740588D02*
X23748572Y-30683445D01*
X23748572Y-30683445D02*
X24034286Y-30683445D01*
X24034286Y-30683445D02*
X24148572Y-30740588D01*
X24148572Y-30740588D02*
X24205714Y-30797731D01*
X24205714Y-30797731D02*
X24262857Y-30912017D01*
X24262857Y-30912017D02*
X24262857Y-31197731D01*
X24262857Y-31197731D02*
X24205714Y-31312017D01*
X24205714Y-31312017D02*
X24148572Y-31369160D01*
X24148572Y-31369160D02*
X24034286Y-31426302D01*
X24034286Y-31426302D02*
X23748572Y-31426302D01*
X23748572Y-31426302D02*
X23634286Y-31369160D01*
X23634286Y-31369160D02*
X23577143Y-31312017D01*
X23060000Y-20352017D02*
X23002857Y-20409160D01*
X23002857Y-20409160D02*
X22831429Y-20466302D01*
X22831429Y-20466302D02*
X22717143Y-20466302D01*
X22717143Y-20466302D02*
X22545714Y-20409160D01*
X22545714Y-20409160D02*
X22431429Y-20294874D01*
X22431429Y-20294874D02*
X22374286Y-20180588D01*
X22374286Y-20180588D02*
X22317143Y-19952017D01*
X22317143Y-19952017D02*
X22317143Y-19780588D01*
X22317143Y-19780588D02*
X22374286Y-19552017D01*
X22374286Y-19552017D02*
X22431429Y-19437731D01*
X22431429Y-19437731D02*
X22545714Y-19323445D01*
X22545714Y-19323445D02*
X22717143Y-19266302D01*
X22717143Y-19266302D02*
X22831429Y-19266302D01*
X22831429Y-19266302D02*
X23002857Y-19323445D01*
X23002857Y-19323445D02*
X23060000Y-19380588D01*
X24202857Y-20466302D02*
X23517143Y-20466302D01*
X23860000Y-20466302D02*
X23860000Y-19266302D01*
X23860000Y-19266302D02*
X23745714Y-19437731D01*
X23745714Y-19437731D02*
X23631429Y-19552017D01*
X23631429Y-19552017D02*
X23517143Y-19609160D01*
X23000000Y-10056302D02*
X22600000Y-9484874D01*
X22314286Y-10056302D02*
X22314286Y-8856302D01*
X22314286Y-8856302D02*
X22771429Y-8856302D01*
X22771429Y-8856302D02*
X22885714Y-8913445D01*
X22885714Y-8913445D02*
X22942857Y-8970588D01*
X22942857Y-8970588D02*
X23000000Y-9084874D01*
X23000000Y-9084874D02*
X23000000Y-9256302D01*
X23000000Y-9256302D02*
X22942857Y-9370588D01*
X22942857Y-9370588D02*
X22885714Y-9427731D01*
X22885714Y-9427731D02*
X22771429Y-9484874D01*
X22771429Y-9484874D02*
X22314286Y-9484874D01*
X23400000Y-8856302D02*
X24142857Y-8856302D01*
X24142857Y-8856302D02*
X23742857Y-9313445D01*
X23742857Y-9313445D02*
X23914286Y-9313445D01*
X23914286Y-9313445D02*
X24028572Y-9370588D01*
X24028572Y-9370588D02*
X24085714Y-9427731D01*
X24085714Y-9427731D02*
X24142857Y-9542017D01*
X24142857Y-9542017D02*
X24142857Y-9827731D01*
X24142857Y-9827731D02*
X24085714Y-9942017D01*
X24085714Y-9942017D02*
X24028572Y-9999160D01*
X24028572Y-9999160D02*
X23914286Y-10056302D01*
X23914286Y-10056302D02*
X23571429Y-10056302D01*
X23571429Y-10056302D02*
X23457143Y-9999160D01*
X23457143Y-9999160D02*
X23400000Y-9942017D01*
X3347500Y-37682017D02*
X3290357Y-37739160D01*
X3290357Y-37739160D02*
X3118929Y-37796302D01*
X3118929Y-37796302D02*
X3004643Y-37796302D01*
X3004643Y-37796302D02*
X2833214Y-37739160D01*
X2833214Y-37739160D02*
X2718929Y-37624874D01*
X2718929Y-37624874D02*
X2661786Y-37510588D01*
X2661786Y-37510588D02*
X2604643Y-37282017D01*
X2604643Y-37282017D02*
X2604643Y-37110588D01*
X2604643Y-37110588D02*
X2661786Y-36882017D01*
X2661786Y-36882017D02*
X2718929Y-36767731D01*
X2718929Y-36767731D02*
X2833214Y-36653445D01*
X2833214Y-36653445D02*
X3004643Y-36596302D01*
X3004643Y-36596302D02*
X3118929Y-36596302D01*
X3118929Y-36596302D02*
X3290357Y-36653445D01*
X3290357Y-36653445D02*
X3347500Y-36710588D01*
X4376072Y-36996302D02*
X4376072Y-37796302D01*
X4090357Y-36539160D02*
X3804643Y-37396302D01*
X3804643Y-37396302D02*
X4547500Y-37396302D01*
X29830000Y-1939160D02*
X30001429Y-1996302D01*
X30001429Y-1996302D02*
X30287143Y-1996302D01*
X30287143Y-1996302D02*
X30401429Y-1939160D01*
X30401429Y-1939160D02*
X30458571Y-1882017D01*
X30458571Y-1882017D02*
X30515714Y-1767731D01*
X30515714Y-1767731D02*
X30515714Y-1653445D01*
X30515714Y-1653445D02*
X30458571Y-1539160D01*
X30458571Y-1539160D02*
X30401429Y-1482017D01*
X30401429Y-1482017D02*
X30287143Y-1424874D01*
X30287143Y-1424874D02*
X30058571Y-1367731D01*
X30058571Y-1367731D02*
X29944286Y-1310588D01*
X29944286Y-1310588D02*
X29887143Y-1253445D01*
X29887143Y-1253445D02*
X29830000Y-1139160D01*
X29830000Y-1139160D02*
X29830000Y-1024874D01*
X29830000Y-1024874D02*
X29887143Y-910588D01*
X29887143Y-910588D02*
X29944286Y-853445D01*
X29944286Y-853445D02*
X30058571Y-796302D01*
X30058571Y-796302D02*
X30344286Y-796302D01*
X30344286Y-796302D02*
X30515714Y-853445D01*
X30915714Y-796302D02*
X31201428Y-1996302D01*
X31201428Y-1996302D02*
X31430000Y-1139160D01*
X31430000Y-1139160D02*
X31658571Y-1996302D01*
X31658571Y-1996302D02*
X31944286Y-796302D01*
X33030000Y-1996302D02*
X32344286Y-1996302D01*
X32687143Y-1996302D02*
X32687143Y-796302D01*
X32687143Y-796302D02*
X32572857Y-967731D01*
X32572857Y-967731D02*
X32458572Y-1082017D01*
X32458572Y-1082017D02*
X32344286Y-1139160D01*
X3218571Y-27964874D02*
X3218571Y-28536302D01*
X2818571Y-27336302D02*
X3218571Y-27964874D01*
X3218571Y-27964874D02*
X3618571Y-27336302D01*
X4647142Y-28536302D02*
X3961428Y-28536302D01*
X4304285Y-28536302D02*
X4304285Y-27336302D01*
X4304285Y-27336302D02*
X4189999Y-27507731D01*
X4189999Y-27507731D02*
X4075714Y-27622017D01*
X4075714Y-27622017D02*
X3961428Y-27679160D01*
%TO.C,D1*%
X22135000Y-18107500D02*
X22135000Y-14047500D01*
X22135000Y-14047500D02*
X19865000Y-14047500D01*
X19865000Y-14047500D02*
X19865000Y-18107500D01*
%TO.C,R1*%
X20090000Y-5487500D02*
X20090000Y-6687500D01*
X21910000Y-5487500D02*
X21910000Y-6687500D01*
%TO.C,U1*%
X10050000Y-1720000D02*
X10050000Y-37400000D01*
X10050000Y-37400000D02*
X15350000Y-37400000D01*
X11700000Y-1720000D02*
X10050000Y-1720000D01*
D11*
X15350000Y-1720000D02*
X13700000Y-1720000D01*
D10*
X15350000Y-37400000D02*
X15350000Y-1720000D01*
X7560000Y-1660000D02*
X17840000Y-1660000D01*
X17840000Y-37460000D01*
X7560000Y-37460000D01*
X7560000Y-1660000D01*
X13700000Y-1720000D02*
G75*
G02*
X11700000Y-1720000I-1000000J0D01*
G01*
%TO.C,SW3*%
X35400000Y-41510000D02*
G75*
G02*
X28300000Y-41510000I-3550000J0D01*
G01*
X28300000Y-41510000D02*
G75*
G02*
X35400000Y-41510000I3550000J0D01*
G01*
X37960000Y-47620000D02*
X25740000Y-47620000D01*
X37960000Y-45310000D02*
X37960000Y-47620000D01*
X37960000Y-40410000D02*
X37960000Y-42610000D01*
X37960000Y-35400000D02*
X37960000Y-37710000D01*
X25740000Y-45310000D02*
X25740000Y-47620000D01*
X25740000Y-40410000D02*
X25740000Y-42610000D01*
X25740000Y-35400000D02*
X37960000Y-35400000D01*
X25740000Y-35400000D02*
X25740000Y-37710000D01*
%TO.C,SW2*%
X35400000Y-25010000D02*
G75*
G02*
X28300000Y-25010000I-3550000J0D01*
G01*
X28300000Y-25010000D02*
G75*
G02*
X35400000Y-25010000I3550000J0D01*
G01*
X37960000Y-31120000D02*
X25740000Y-31120000D01*
X37960000Y-28810000D02*
X37960000Y-31120000D01*
X37960000Y-23910000D02*
X37960000Y-26110000D01*
X37960000Y-18900000D02*
X37960000Y-21210000D01*
X25740000Y-28810000D02*
X25740000Y-31120000D01*
X25740000Y-23910000D02*
X25740000Y-26110000D01*
X25740000Y-18900000D02*
X37960000Y-18900000D01*
X25740000Y-18900000D02*
X25740000Y-21210000D01*
D11*
%TO.C,C3*%
X23620000Y-37050000D02*
G75*
G02*
X18380000Y-37050000I-2620000J0D01*
G01*
X18380000Y-37050000D02*
G75*
G02*
X23620000Y-37050000I2620000J0D01*
G01*
X23580000Y-37090000D02*
X22040000Y-37090000D01*
X23580000Y-37050000D02*
X22040000Y-37050000D01*
X23579000Y-37130000D02*
X22040000Y-37130000D01*
X23577000Y-37170000D02*
X22040000Y-37170000D01*
X23575000Y-37210000D02*
X22040000Y-37210000D01*
X23572000Y-37250000D02*
X22040000Y-37250000D01*
X23569000Y-37290000D02*
X22040000Y-37290000D01*
X23565000Y-37330000D02*
X22040000Y-37330000D01*
X23560000Y-37370000D02*
X22040000Y-37370000D01*
X23555000Y-37410000D02*
X22040000Y-37410000D01*
X23549000Y-37450000D02*
X22040000Y-37450000D01*
X23543000Y-37490000D02*
X22040000Y-37490000D01*
X23536000Y-37530000D02*
X22040000Y-37530000D01*
X23528000Y-37570000D02*
X22040000Y-37570000D01*
X23519000Y-37610000D02*
X22040000Y-37610000D01*
X23510000Y-37650000D02*
X22040000Y-37650000D01*
X23501000Y-37690000D02*
X22040000Y-37690000D01*
X23490000Y-37730000D02*
X22040000Y-37730000D01*
X23479000Y-37770000D02*
X22040000Y-37770000D01*
X23467000Y-37810000D02*
X22040000Y-37810000D01*
X23455000Y-37850000D02*
X22040000Y-37850000D01*
X23442000Y-37890000D02*
X22040000Y-37890000D01*
X23428000Y-37930000D02*
X22040000Y-37930000D01*
X23413000Y-37970000D02*
X22040000Y-37970000D01*
X23398000Y-38010000D02*
X22040000Y-38010000D01*
X23382000Y-38050000D02*
X22040000Y-38050000D01*
X23365000Y-38090000D02*
X22040000Y-38090000D01*
X23347000Y-38130000D02*
X22040000Y-38130000D01*
X23329000Y-38170000D02*
X22040000Y-38170000D01*
X23309000Y-38210000D02*
X22040000Y-38210000D01*
X23289000Y-38250000D02*
X22040000Y-38250000D01*
X23268000Y-38290000D02*
X22040000Y-38290000D01*
X23246000Y-38330000D02*
X22040000Y-38330000D01*
X23223000Y-38370000D02*
X22040000Y-38370000D01*
X23199000Y-38410000D02*
X22040000Y-38410000D01*
X23175000Y-38450000D02*
X22040000Y-38450000D01*
X23149000Y-38490000D02*
X22040000Y-38490000D01*
X23122000Y-38530000D02*
X22040000Y-38530000D01*
X23094000Y-38570000D02*
X22040000Y-38570000D01*
X23065000Y-38610000D02*
X22040000Y-38610000D01*
X23035000Y-38650000D02*
X22040000Y-38650000D01*
X23003000Y-38690000D02*
X22040000Y-38690000D01*
X22970000Y-38730000D02*
X22040000Y-38730000D01*
X22936000Y-38770000D02*
X22040000Y-38770000D01*
X22901000Y-38810000D02*
X22040000Y-38810000D01*
X22864000Y-38850000D02*
X22040000Y-38850000D01*
X22825000Y-38890000D02*
X22040000Y-38890000D01*
X22785000Y-38930000D02*
X22040000Y-38930000D01*
X22743000Y-38970000D02*
X22040000Y-38970000D01*
X22725000Y-34495225D02*
X22225000Y-34495225D01*
X22699000Y-39010000D02*
X22040000Y-39010000D01*
X22652000Y-39050000D02*
X22040000Y-39050000D01*
X22604000Y-39090000D02*
X19396000Y-39090000D01*
X22553000Y-39130000D02*
X19447000Y-39130000D01*
X22499000Y-39170000D02*
X19501000Y-39170000D01*
X22475000Y-34245225D02*
X22475000Y-34745225D01*
X22443000Y-39210000D02*
X19557000Y-39210000D01*
X22383000Y-39250000D02*
X19617000Y-39250000D01*
X22319000Y-39290000D02*
X19681000Y-39290000D01*
X22251000Y-39330000D02*
X19749000Y-39330000D01*
X22177000Y-39370000D02*
X19823000Y-39370000D01*
X22098000Y-39410000D02*
X19902000Y-39410000D01*
X22011000Y-39450000D02*
X19989000Y-39450000D01*
X21914000Y-39490000D02*
X20086000Y-39490000D01*
X21805000Y-39530000D02*
X20195000Y-39530000D01*
X21677000Y-39570000D02*
X20323000Y-39570000D01*
X21517000Y-39610000D02*
X20483000Y-39610000D01*
X21283000Y-39650000D02*
X20717000Y-39650000D01*
X19960000Y-39050000D02*
X19348000Y-39050000D01*
X19960000Y-39010000D02*
X19301000Y-39010000D01*
X19960000Y-38970000D02*
X19257000Y-38970000D01*
X19960000Y-38930000D02*
X19215000Y-38930000D01*
X19960000Y-38890000D02*
X19175000Y-38890000D01*
X19960000Y-38850000D02*
X19136000Y-38850000D01*
X19960000Y-38810000D02*
X19099000Y-38810000D01*
X19960000Y-38770000D02*
X19064000Y-38770000D01*
X19960000Y-38730000D02*
X19030000Y-38730000D01*
X19960000Y-38690000D02*
X18997000Y-38690000D01*
X19960000Y-38650000D02*
X18965000Y-38650000D01*
X19960000Y-38610000D02*
X18935000Y-38610000D01*
X19960000Y-38570000D02*
X18906000Y-38570000D01*
X19960000Y-38530000D02*
X18878000Y-38530000D01*
X19960000Y-38490000D02*
X18851000Y-38490000D01*
X19960000Y-38450000D02*
X18825000Y-38450000D01*
X19960000Y-38410000D02*
X18801000Y-38410000D01*
X19960000Y-38370000D02*
X18777000Y-38370000D01*
X19960000Y-38330000D02*
X18754000Y-38330000D01*
X19960000Y-38290000D02*
X18732000Y-38290000D01*
X19960000Y-38250000D02*
X18711000Y-38250000D01*
X19960000Y-38210000D02*
X18691000Y-38210000D01*
X19960000Y-38170000D02*
X18671000Y-38170000D01*
X19960000Y-38130000D02*
X18653000Y-38130000D01*
X19960000Y-38090000D02*
X18635000Y-38090000D01*
X19960000Y-38050000D02*
X18618000Y-38050000D01*
X19960000Y-38010000D02*
X18602000Y-38010000D01*
X19960000Y-37970000D02*
X18587000Y-37970000D01*
X19960000Y-37930000D02*
X18572000Y-37930000D01*
X19960000Y-37890000D02*
X18558000Y-37890000D01*
X19960000Y-37850000D02*
X18545000Y-37850000D01*
X19960000Y-37810000D02*
X18533000Y-37810000D01*
X19960000Y-37770000D02*
X18521000Y-37770000D01*
X19960000Y-37730000D02*
X18510000Y-37730000D01*
X19960000Y-37690000D02*
X18499000Y-37690000D01*
X19960000Y-37650000D02*
X18490000Y-37650000D01*
X19960000Y-37610000D02*
X18481000Y-37610000D01*
X19960000Y-37570000D02*
X18472000Y-37570000D01*
X19960000Y-37530000D02*
X18464000Y-37530000D01*
X19960000Y-37490000D02*
X18457000Y-37490000D01*
X19960000Y-37450000D02*
X18451000Y-37450000D01*
X19960000Y-37410000D02*
X18445000Y-37410000D01*
X19960000Y-37370000D02*
X18440000Y-37370000D01*
X19960000Y-37330000D02*
X18435000Y-37330000D01*
X19960000Y-37290000D02*
X18431000Y-37290000D01*
X19960000Y-37250000D02*
X18428000Y-37250000D01*
X19960000Y-37210000D02*
X18425000Y-37210000D01*
X19960000Y-37170000D02*
X18423000Y-37170000D01*
X19960000Y-37130000D02*
X18421000Y-37130000D01*
X19960000Y-37090000D02*
X18420000Y-37090000D01*
X19960000Y-37050000D02*
X18420000Y-37050000D01*
D10*
%TO.C,J1*%
X5300000Y-47800000D02*
X4420000Y-47800000D01*
X4860000Y-47190000D01*
X5300000Y-47800000D01*
G36*
X5300000Y-47800000D02*
G01*
X4420000Y-47800000D01*
X4860000Y-47190000D01*
X5300000Y-47800000D01*
G37*
X17480000Y-39150000D02*
X17480000Y-47190000D01*
X16672000Y-43770000D02*
X17480000Y-43770000D01*
X16672000Y-42770000D02*
X17480000Y-42770000D01*
X15403000Y-45070000D02*
X17480000Y-45070000D01*
X11672000Y-43770000D02*
X13048000Y-43770000D01*
X11672000Y-42770000D02*
X13048000Y-42770000D01*
X10403000Y-45070000D02*
X14317000Y-45070000D01*
X6740000Y-45070000D02*
X9317000Y-45070000D01*
X6740000Y-43770000D02*
X8048000Y-43770000D01*
X6740000Y-42770000D02*
X8048000Y-42770000D01*
X5160000Y-47190000D02*
X17480000Y-47190000D01*
X1740000Y-47190000D02*
X4560000Y-47190000D01*
X1740000Y-45070000D02*
X2980000Y-45070000D01*
X1740000Y-43770000D02*
X2980000Y-43770000D01*
X1740000Y-42770000D02*
X2980000Y-42770000D01*
X1740000Y-39150000D02*
X17480000Y-39150000D01*
X1740000Y-39150000D02*
X1740000Y-47190000D01*
%TO.C,R2*%
X20290000Y-42760000D02*
X20290000Y-43960000D01*
X18470000Y-42760000D02*
X18470000Y-43960000D01*
%TO.C,C2*%
X4320000Y-21410000D02*
X3120000Y-21420000D01*
X4320000Y-19600000D02*
X3120000Y-19600000D01*
%TO.C,C5*%
X21900000Y-30327500D02*
X21910000Y-31527500D01*
X20090000Y-30327500D02*
X20090000Y-31527500D01*
%TO.C,C1*%
X21910000Y-22200000D02*
X21910000Y-21000000D01*
X20100000Y-22200000D02*
X20090000Y-21000000D01*
%TO.C,R3*%
X21910000Y-10647500D02*
X21910000Y-11847500D01*
X20090000Y-10647500D02*
X20090000Y-11847500D01*
%TO.C,C4*%
X4147500Y-36300000D02*
X2947500Y-36310000D01*
X4147500Y-34490000D02*
X2947500Y-34490000D01*
%TO.C,SW1*%
X35400000Y-8500000D02*
G75*
G02*
X28300000Y-8500000I-3550000J0D01*
G01*
X28300000Y-8500000D02*
G75*
G02*
X35400000Y-8500000I3550000J0D01*
G01*
X37960000Y-14610000D02*
X25740000Y-14610000D01*
X37960000Y-12300000D02*
X37960000Y-14610000D01*
X37960000Y-7400000D02*
X37960000Y-9600000D01*
X37960000Y-2390000D02*
X37960000Y-4700000D01*
X25740000Y-12300000D02*
X25740000Y-14610000D01*
X25740000Y-7400000D02*
X25740000Y-9600000D01*
X25740000Y-2390000D02*
X37960000Y-2390000D01*
X25740000Y-2390000D02*
X25740000Y-4700000D01*
%TO.C,Y1*%
X6315000Y-31105000D02*
G75*
G02*
X1265000Y-31105000I-2525000J0D01*
G01*
X1265000Y-24855000D02*
G75*
G02*
X6315000Y-24855000I2525000J0D01*
G01*
X6315000Y-24855000D02*
X6315000Y-31105000D01*
X1265000Y-24855000D02*
X1265000Y-31105000D01*
%TD*%
M02*
