%TF.GenerationSoftware,KiCad,Pcbnew,9.0.1*%
%TF.CreationDate,2025-06-03T10:55:25+05:30*%
%TF.ProjectId,lighting_pcb_tht,6c696768-7469-46e6-975f-7063625f7468,rev?*%
%TF.SameCoordinates,Original*%
%TF.FileFunction,Copper,L1,Top*%
%TF.FilePolarity,Positive*%
%FSLAX46Y46*%
G04 Gerber Fmt 4.6, Leading zero omitted, Abs format (unit mm)*
G04 Created by KiCad (PCBNEW 9.0.1) date 2025-06-03 10:55:25*
%MOMM*%
%LPD*%
G01*
G04 APERTURE LIST*
G04 Aperture macros list*
%AMRoundRect*
0 Rectangle with rounded corners*
0 $1 Rounding radius*
0 $2 $3 $4 $5 $6 $7 $8 $9 X,Y pos of 4 corners*
0 Add a 4 corners polygon primitive as box body*
4,1,4,$2,$3,$4,$5,$6,$7,$8,$9,$2,$3,0*
0 Add four circle primitives for the rounded corners*
1,1,$1+$1,$2,$3*
1,1,$1+$1,$4,$5*
1,1,$1+$1,$6,$7*
1,1,$1+$1,$8,$9*
0 Add four rect primitives between the rounded corners*
20,1,$1+$1,$2,$3,$4,$5,0*
20,1,$1+$1,$4,$5,$6,$7,0*
20,1,$1+$1,$6,$7,$8,$9,0*
20,1,$1+$1,$8,$9,$2,$3,0*%
G04 Aperture macros list end*
%TA.AperFunction,SMDPad,CuDef*%
%ADD10RoundRect,0.250001X-0.624999X0.462499X-0.624999X-0.462499X0.624999X-0.462499X0.624999X0.462499X0*%
%TD*%
%TA.AperFunction,SMDPad,CuDef*%
%ADD11RoundRect,0.250000X-0.625000X0.400000X-0.625000X-0.400000X0.625000X-0.400000X0.625000X0.400000X0*%
%TD*%
%TA.AperFunction,SMDPad,CuDef*%
%ADD12RoundRect,0.190500X-0.762000X-0.444500X0.762000X-0.444500X0.762000X0.444500X-0.762000X0.444500X0*%
%TD*%
%TA.AperFunction,ComponentPad*%
%ADD13RoundRect,0.250000X-0.550000X-0.550000X0.550000X-0.550000X0.550000X0.550000X-0.550000X0.550000X0*%
%TD*%
%TA.AperFunction,ComponentPad*%
%ADD14C,1.600000*%
%TD*%
%TA.AperFunction,ComponentPad*%
%ADD15O,3.200000X1.900000*%
%TD*%
%TA.AperFunction,ComponentPad*%
%ADD16R,1.600000X1.600000*%
%TD*%
%TA.AperFunction,ComponentPad*%
%ADD17C,2.800000*%
%TD*%
%TA.AperFunction,ComponentPad*%
%ADD18RoundRect,0.250001X-1.149999X-1.149999X1.149999X-1.149999X1.149999X1.149999X-1.149999X1.149999X0*%
%TD*%
%TA.AperFunction,SMDPad,CuDef*%
%ADD19RoundRect,0.250000X0.412500X0.650000X-0.412500X0.650000X-0.412500X-0.650000X0.412500X-0.650000X0*%
%TD*%
%TA.AperFunction,SMDPad,CuDef*%
%ADD20RoundRect,0.250000X-0.650000X0.412500X-0.650000X-0.412500X0.650000X-0.412500X0.650000X0.412500X0*%
%TD*%
%TA.AperFunction,SMDPad,CuDef*%
%ADD21RoundRect,0.250000X0.650000X-0.412500X0.650000X0.412500X-0.650000X0.412500X-0.650000X-0.412500X0*%
%TD*%
%TA.AperFunction,ComponentPad*%
%ADD22C,1.500000*%
%TD*%
%TA.AperFunction,ViaPad*%
%ADD23C,1.000000*%
%TD*%
%TA.AperFunction,Conductor*%
%ADD24C,0.500000*%
%TD*%
%TA.AperFunction,Conductor*%
%ADD25C,0.200000*%
%TD*%
G04 APERTURE END LIST*
D10*
%TO.P,D1,2,A*%
%TO.N,GND*%
X21000000Y-17995000D03*
%TO.P,D1,1,K*%
%TO.N,Net-(D1-K)*%
X21000000Y-15020000D03*
%TD*%
D11*
%TO.P,R1,1*%
%TO.N,Net-(U1-~{RESET}{slash}PC6)*%
X21000000Y-4537500D03*
%TO.P,R1,2*%
%TO.N,+5V*%
X21000000Y-7637500D03*
%TD*%
D12*
%TO.P,U2,8,RX*%
%TO.N,Net-(U1-PD0)*%
X1500000Y-2690000D03*
%TO.P,U2,7,TX*%
%TO.N,Net-(U1-PD1)*%
X1500000Y-4690000D03*
%TO.P,U2,6,SCK*%
%TO.N,Net-(U1-PC5)*%
X1500000Y-6690000D03*
%TO.P,U2,5,RST*%
%TO.N,Net-(U1-~{RESET}{slash}PC6)*%
X1500000Y-8690000D03*
%TO.P,U2,4,MISO*%
%TO.N,Net-(U1-PB4)*%
X1500000Y-10690000D03*
%TO.P,U2,3,MOSI*%
%TO.N,Net-(U1-PB3)*%
X1500000Y-12690000D03*
%TO.P,U2,2,GND*%
%TO.N,GND*%
X1500000Y-14690000D03*
%TO.P,U2,1,Vcc*%
%TO.N,+5V*%
X1500000Y-16690000D03*
%TD*%
D13*
%TO.P,U1,1,~{RESET}/PC6*%
%TO.N,Net-(U1-~{RESET}{slash}PC6)*%
X8890000Y-3050000D03*
D14*
%TO.P,U1,2,PD0*%
%TO.N,Net-(U1-PD0)*%
X8890000Y-5590000D03*
%TO.P,U1,3,PD1*%
%TO.N,Net-(U1-PD1)*%
X8890000Y-8130000D03*
%TO.P,U1,4,PD2*%
%TO.N,unconnected-(U1-PD2-Pad4)*%
X8890000Y-10670000D03*
%TO.P,U1,5,PD3*%
%TO.N,Net-(U1-PD3)*%
X8890000Y-13210000D03*
%TO.P,U1,6,PD4*%
%TO.N,unconnected-(U1-PD4-Pad6)*%
X8890000Y-15750000D03*
%TO.P,U1,7,VCC*%
%TO.N,+5V*%
X8890000Y-18290000D03*
%TO.P,U1,8,GND*%
%TO.N,GND*%
X8890000Y-20830000D03*
%TO.P,U1,9,XTAL1/PB6*%
%TO.N,Net-(U1-XTAL1{slash}PB6)*%
X8890000Y-23370000D03*
%TO.P,U1,10,XTAL2/PB7*%
%TO.N,Net-(U1-XTAL2{slash}PB7)*%
X8890000Y-25910000D03*
%TO.P,U1,11,PD5*%
%TO.N,Net-(U1-PD5)*%
X8890000Y-28450000D03*
%TO.P,U1,12,PD6*%
%TO.N,Net-(U1-PD6)*%
X8890000Y-30990000D03*
%TO.P,U1,13,PD7*%
%TO.N,Net-(U1-PD7)*%
X8890000Y-33530000D03*
%TO.P,U1,14,PB0*%
%TO.N,unconnected-(U1-PB0-Pad14)*%
X8890000Y-36070000D03*
%TO.P,U1,15,PB1*%
%TO.N,Net-(U1-PB1)*%
X16510000Y-36070000D03*
%TO.P,U1,16,PB2*%
%TO.N,unconnected-(U1-PB2-Pad16)*%
X16510000Y-33530000D03*
%TO.P,U1,17,PB3*%
%TO.N,Net-(U1-PB3)*%
X16510000Y-30990000D03*
%TO.P,U1,18,PB4*%
%TO.N,Net-(U1-PB4)*%
X16510000Y-28450000D03*
%TO.P,U1,19,PB5*%
%TO.N,unconnected-(U1-PB5-Pad19)*%
X16510000Y-25910000D03*
%TO.P,U1,20,AVCC*%
%TO.N,+5V*%
X16510000Y-23370000D03*
%TO.P,U1,21,AREF*%
%TO.N,Net-(U1-AREF)*%
X16510000Y-20830000D03*
%TO.P,U1,22,GND*%
%TO.N,GND*%
X16510000Y-18290000D03*
%TO.P,U1,23,PC0*%
%TO.N,unconnected-(U1-PC0-Pad23)*%
X16510000Y-15750000D03*
%TO.P,U1,24,PC1*%
%TO.N,unconnected-(U1-PC1-Pad24)*%
X16510000Y-13210000D03*
%TO.P,U1,25,PC2*%
%TO.N,unconnected-(U1-PC2-Pad25)*%
X16510000Y-10670000D03*
%TO.P,U1,26,PC3*%
%TO.N,unconnected-(U1-PC3-Pad26)*%
X16510000Y-8130000D03*
%TO.P,U1,27,PC4*%
%TO.N,unconnected-(U1-PC4-Pad27)*%
X16510000Y-5590000D03*
%TO.P,U1,28,PC5*%
%TO.N,Net-(U1-PC5)*%
X16510000Y-3050000D03*
%TD*%
D15*
%TO.P,SW3,2,2*%
%TO.N,Net-(U1-PD7)*%
X38100000Y-44010000D03*
X25600000Y-44010000D03*
%TO.P,SW3,1,1*%
%TO.N,GND*%
X38100000Y-39010000D03*
X25600000Y-39010000D03*
%TD*%
%TO.P,SW2,2,2*%
%TO.N,Net-(U1-PD6)*%
X38100000Y-27510000D03*
X25600000Y-27510000D03*
%TO.P,SW2,1,1*%
%TO.N,GND*%
X38100000Y-22510000D03*
X25600000Y-22510000D03*
%TD*%
D14*
%TO.P,C3,2*%
%TO.N,GND*%
X21000000Y-38050000D03*
D16*
%TO.P,C3,1*%
%TO.N,+5V*%
X21000000Y-36050000D03*
%TD*%
D17*
%TO.P,J1,3,Pin_3*%
%TO.N,GND*%
X14860000Y-43270000D03*
%TO.P,J1,2,Pin_2*%
%TO.N,Net-(J1-Pin_2)*%
X9860000Y-43270000D03*
D18*
%TO.P,J1,1,Pin_1*%
%TO.N,+5V*%
X4860000Y-43270000D03*
%TD*%
D11*
%TO.P,R2,2*%
%TO.N,Net-(J1-Pin_2)*%
X19380000Y-44910000D03*
%TO.P,R2,1*%
%TO.N,Net-(U1-PB1)*%
X19380000Y-41810000D03*
%TD*%
D19*
%TO.P,C2,2*%
%TO.N,GND*%
X2157500Y-20510000D03*
%TO.P,C2,1*%
%TO.N,Net-(U1-XTAL1{slash}PB6)*%
X5282500Y-20510000D03*
%TD*%
D20*
%TO.P,C5,2*%
%TO.N,GND*%
X21000000Y-32490000D03*
%TO.P,C5,1*%
%TO.N,Net-(U1-AREF)*%
X21000000Y-29365000D03*
%TD*%
D21*
%TO.P,C1,2*%
%TO.N,GND*%
X21000000Y-20037500D03*
%TO.P,C1,1*%
%TO.N,+5V*%
X21000000Y-23162500D03*
%TD*%
D11*
%TO.P,R3,2*%
%TO.N,Net-(D1-K)*%
X21000000Y-12797500D03*
%TO.P,R3,1*%
%TO.N,Net-(U1-PD3)*%
X21000000Y-9697500D03*
%TD*%
D19*
%TO.P,C4,2*%
%TO.N,GND*%
X1985000Y-35400000D03*
%TO.P,C4,1*%
%TO.N,Net-(U1-XTAL2{slash}PB7)*%
X5110000Y-35400000D03*
%TD*%
D15*
%TO.P,SW1,2,2*%
%TO.N,Net-(U1-PD5)*%
X38100000Y-11000000D03*
X25600000Y-11000000D03*
%TO.P,SW1,1,1*%
%TO.N,GND*%
X38100000Y-6000000D03*
X25600000Y-6000000D03*
%TD*%
D22*
%TO.P,Y1,2,2*%
%TO.N,Net-(U1-XTAL2{slash}PB7)*%
X3790000Y-30420000D03*
%TO.P,Y1,1,1*%
%TO.N,Net-(U1-XTAL1{slash}PB6)*%
X3790000Y-25540000D03*
%TD*%
D23*
%TO.N,Net-(U1-PC5)*%
X11776752Y-4593248D03*
X6598248Y-7181752D03*
%TO.N,+5V*%
X21040000Y-6060000D03*
X3730000Y-16690000D03*
%TO.N,Net-(U1-~{RESET}{slash}PC6)*%
X4060000Y-8120000D03*
%TD*%
D24*
%TO.N,Net-(U1-PB1)*%
X16510000Y-38940000D02*
X19380000Y-41810000D01*
X16510000Y-36070000D02*
X16510000Y-38940000D01*
%TO.N,Net-(J1-Pin_2)*%
X19160000Y-45130000D02*
X19380000Y-44910000D01*
X11910000Y-45130000D02*
X19160000Y-45130000D01*
X9840000Y-43060000D02*
X11910000Y-45130000D01*
%TO.N,Net-(U1-AREF)*%
X15810000Y-27180000D02*
X18815000Y-27180000D01*
X15030000Y-26400000D02*
X15810000Y-27180000D01*
X15030000Y-22310000D02*
X15030000Y-26400000D01*
X16510000Y-20830000D02*
X15030000Y-22310000D01*
X18815000Y-27180000D02*
X21000000Y-29365000D01*
%TO.N,+5V*%
X17547500Y-23162500D02*
X21000000Y-23162500D01*
%TO.N,GND*%
X19577500Y-20037500D02*
X21000000Y-20037500D01*
X17830000Y-18290000D02*
X19577500Y-20037500D01*
X16510000Y-18290000D02*
X17830000Y-18290000D01*
%TO.N,Net-(U1-~{RESET}{slash}PC6)*%
X19622500Y-4537500D02*
X21000000Y-4537500D01*
%TO.N,Net-(U1-PD3)*%
X19807500Y-9697500D02*
X21000000Y-9697500D01*
%TO.N,Net-(D1-K)*%
X21000000Y-12797500D02*
X21000000Y-15020000D01*
%TO.N,+5V*%
X3730000Y-16690000D02*
X1500000Y-16690000D01*
%TO.N,Net-(U1-PB3)*%
X3910000Y-12690000D02*
X1500000Y-12690000D01*
X8240000Y-17020000D02*
X3910000Y-12690000D01*
X11000000Y-18290000D02*
X9730000Y-17020000D01*
X11000000Y-25480000D02*
X11000000Y-18290000D01*
X9730000Y-17020000D02*
X8240000Y-17020000D01*
X16510000Y-30990000D02*
X11000000Y-25480000D01*
%TO.N,Net-(U1-PB4)*%
X4090000Y-10690000D02*
X1500000Y-10690000D01*
X9810000Y-14480000D02*
X7880000Y-14480000D01*
X14150000Y-27200000D02*
X14150000Y-18820000D01*
X14150000Y-18820000D02*
X9810000Y-14480000D01*
X7880000Y-14480000D02*
X4090000Y-10690000D01*
X15400000Y-28450000D02*
X14150000Y-27200000D01*
X16510000Y-28450000D02*
X15400000Y-28450000D01*
%TO.N,Net-(U1-~{RESET}{slash}PC6)*%
X3481386Y-8690000D02*
X1500000Y-8690000D01*
X3625693Y-8545693D02*
X3481386Y-8690000D01*
%TO.N,Net-(U1-PC5)*%
X3800000Y-6690000D02*
X1500000Y-6690000D01*
X4290000Y-7180000D02*
X3800000Y-6690000D01*
X6596496Y-7180000D02*
X4290000Y-7180000D01*
X6598248Y-7181752D02*
X6596496Y-7180000D01*
%TO.N,Net-(U1-PD1)*%
X8890000Y-8130000D02*
X5450000Y-4690000D01*
X5450000Y-4690000D02*
X1500000Y-4690000D01*
%TO.N,Net-(U1-PD0)*%
X3110000Y-3780000D02*
X7080000Y-3780000D01*
X2020000Y-2690000D02*
X3110000Y-3780000D01*
X7080000Y-3780000D02*
X8890000Y-5590000D01*
X1500000Y-2690000D02*
X2020000Y-2690000D01*
%TO.N,Net-(U1-PC5)*%
X11776752Y-4593248D02*
X13320000Y-3050000D01*
X13320000Y-3050000D02*
X16510000Y-3050000D01*
%TO.N,+5V*%
X17340000Y-23370000D02*
X17547500Y-23162500D01*
X21040000Y-7637500D02*
X21040000Y-6060000D01*
X16510000Y-23370000D02*
X17340000Y-23370000D01*
D25*
%TO.N,Net-(D1-K)*%
X21080000Y-15000000D02*
X21100000Y-15020000D01*
D24*
%TO.N,Net-(U1-PD3)*%
X19807500Y-9697500D02*
X17565000Y-11940000D01*
X15540000Y-11940000D02*
X14270000Y-13210000D01*
X14270000Y-13210000D02*
X8890000Y-13210000D01*
X17565000Y-11940000D02*
X15540000Y-11940000D01*
%TO.N,Net-(U1-AREF)*%
X16510000Y-20830000D02*
X16950000Y-21270000D01*
%TO.N,Net-(U1-XTAL2{slash}PB7)*%
X6160000Y-28050000D02*
X6750000Y-28050000D01*
X5110000Y-33330000D02*
X5110000Y-35400000D01*
X6750000Y-28050000D02*
X8890000Y-25910000D01*
X3790000Y-30420000D02*
X3790000Y-32010000D01*
X3790000Y-32010000D02*
X5110000Y-33330000D01*
X3790000Y-30420000D02*
X6160000Y-28050000D01*
%TO.N,Net-(U1-PB1)*%
X19380000Y-41800000D02*
X19380000Y-41810000D01*
%TO.N,Net-(U1-~{RESET}{slash}PC6)*%
X17300000Y-6860000D02*
X19622500Y-4537500D01*
X8890000Y-3050000D02*
X8890000Y-3051414D01*
X4060000Y-8120000D02*
X4051387Y-8120000D01*
X4051387Y-8120000D02*
X3625693Y-8545693D01*
X8890000Y-3051414D02*
X12698586Y-6860000D01*
X12698586Y-6860000D02*
X17300000Y-6860000D01*
%TO.N,Net-(U1-XTAL1{slash}PB6)*%
X7390000Y-23370000D02*
X8890000Y-23370000D01*
X7390000Y-23370000D02*
X7360000Y-23370000D01*
X7360000Y-23370000D02*
X5282500Y-21292500D01*
X5220000Y-25540000D02*
X7390000Y-23370000D01*
X3790000Y-25540000D02*
X5220000Y-25540000D01*
X5282500Y-21292500D02*
X5282500Y-20510000D01*
%TD*%
%TA.AperFunction,Conductor*%
%TO.N,GND*%
G36*
X40442539Y-520185D02*
G01*
X40488294Y-572989D01*
X40499500Y-624500D01*
X40499500Y-49375500D01*
X40479815Y-49442539D01*
X40427011Y-49488294D01*
X40375500Y-49499500D01*
X624500Y-49499500D01*
X557461Y-49479815D01*
X511706Y-49427011D01*
X500500Y-49375500D01*
X500500Y-47671577D01*
X19749500Y-47671577D01*
X19749500Y-47868422D01*
X19780290Y-48062826D01*
X19841117Y-48250029D01*
X19930476Y-48425405D01*
X20046172Y-48584646D01*
X20185354Y-48723828D01*
X20344595Y-48839524D01*
X20427455Y-48881743D01*
X20519970Y-48928882D01*
X20519972Y-48928882D01*
X20519975Y-48928884D01*
X20620317Y-48961487D01*
X20707173Y-48989709D01*
X20901578Y-49020500D01*
X20901583Y-49020500D01*
X21098422Y-49020500D01*
X21292826Y-48989709D01*
X21480025Y-48928884D01*
X21655405Y-48839524D01*
X21814646Y-48723828D01*
X21953828Y-48584646D01*
X22069524Y-48425405D01*
X22158884Y-48250025D01*
X22219709Y-48062826D01*
X22250500Y-47868422D01*
X22250500Y-47671577D01*
X22219709Y-47477173D01*
X22158882Y-47289970D01*
X22069523Y-47114594D01*
X21953828Y-46955354D01*
X21814646Y-46816172D01*
X21655405Y-46700476D01*
X21480029Y-46611117D01*
X21292826Y-46550290D01*
X21098422Y-46519500D01*
X21098417Y-46519500D01*
X20901583Y-46519500D01*
X20901578Y-46519500D01*
X20707173Y-46550290D01*
X20519970Y-46611117D01*
X20344594Y-46700476D01*
X20253741Y-46766485D01*
X20185354Y-46816172D01*
X20185352Y-46816174D01*
X20185351Y-46816174D01*
X20046174Y-46955351D01*
X20046174Y-46955352D01*
X20046172Y-46955354D01*
X19996485Y-47023741D01*
X19930476Y-47114594D01*
X19841117Y-47289970D01*
X19780290Y-47477173D01*
X19749500Y-47671577D01*
X500500Y-47671577D01*
X500500Y-42072136D01*
X3209500Y-42072136D01*
X3209500Y-44467863D01*
X3209501Y-44467882D01*
X3215908Y-44527481D01*
X3266202Y-44662327D01*
X3266203Y-44662328D01*
X3266204Y-44662330D01*
X3352454Y-44777546D01*
X3467670Y-44863796D01*
X3467671Y-44863796D01*
X3467672Y-44863797D01*
X3602518Y-44914091D01*
X3602517Y-44914091D01*
X3609445Y-44914835D01*
X3662128Y-44920500D01*
X3662137Y-44920500D01*
X6057863Y-44920500D01*
X6057872Y-44920500D01*
X6117482Y-44914091D01*
X6252330Y-44863796D01*
X6367546Y-44777546D01*
X6453796Y-44662330D01*
X6504091Y-44527482D01*
X6510500Y-44467872D01*
X6510500Y-43140097D01*
X8209500Y-43140097D01*
X8209500Y-43399902D01*
X8250140Y-43656493D01*
X8330422Y-43903576D01*
X8387659Y-44015908D01*
X8436696Y-44112148D01*
X8448368Y-44135054D01*
X8461010Y-44152454D01*
X8601069Y-44345229D01*
X8784771Y-44528931D01*
X8994949Y-44681634D01*
X9100916Y-44735627D01*
X9226423Y-44799577D01*
X9226425Y-44799577D01*
X9226428Y-44799579D01*
X9473507Y-44879860D01*
X9605706Y-44900797D01*
X9730098Y-44920500D01*
X9730103Y-44920500D01*
X9989902Y-44920500D01*
X10103298Y-44902539D01*
X10246493Y-44879860D01*
X10493572Y-44799579D01*
X10663838Y-44712823D01*
X10732505Y-44699927D01*
X10797246Y-44726203D01*
X10807813Y-44735627D01*
X11602686Y-45530500D01*
X11716814Y-45596392D01*
X11844107Y-45630500D01*
X11844108Y-45630500D01*
X18309045Y-45630500D01*
X18376084Y-45650185D01*
X18396720Y-45666812D01*
X18397455Y-45667547D01*
X18512664Y-45753793D01*
X18512671Y-45753797D01*
X18647517Y-45804091D01*
X18647516Y-45804091D01*
X18654444Y-45804835D01*
X18707127Y-45810500D01*
X20052872Y-45810499D01*
X20112483Y-45804091D01*
X20247331Y-45753796D01*
X20362546Y-45667546D01*
X20448796Y-45552331D01*
X20499091Y-45417483D01*
X20505500Y-45357873D01*
X20505499Y-44462128D01*
X20499091Y-44402517D01*
X20477722Y-44345225D01*
X20448797Y-44267671D01*
X20448793Y-44267664D01*
X20362547Y-44152455D01*
X20362544Y-44152452D01*
X20247335Y-44066206D01*
X20247328Y-44066202D01*
X20141762Y-44026829D01*
X20112482Y-44015908D01*
X20112483Y-44015908D01*
X20052883Y-44009501D01*
X20052881Y-44009500D01*
X20052873Y-44009500D01*
X20052864Y-44009500D01*
X18707129Y-44009500D01*
X18707123Y-44009501D01*
X18647516Y-44015908D01*
X18512671Y-44066202D01*
X18512664Y-44066206D01*
X18397455Y-44152452D01*
X18397452Y-44152455D01*
X18311206Y-44267664D01*
X18311202Y-44267671D01*
X18260908Y-44402517D01*
X18254501Y-44462116D01*
X18254501Y-44462123D01*
X18254500Y-44462135D01*
X18254500Y-44505500D01*
X18234815Y-44572539D01*
X18182011Y-44618294D01*
X18130500Y-44629500D01*
X16463164Y-44629500D01*
X16396125Y-44609815D01*
X16350370Y-44557011D01*
X16340426Y-44487853D01*
X16364788Y-44430013D01*
X16443180Y-44327849D01*
X16443186Y-44327841D01*
X16567711Y-44112159D01*
X16567716Y-44112148D01*
X16649165Y-43915513D01*
X23749500Y-43915513D01*
X23749500Y-44104486D01*
X23779059Y-44291118D01*
X23837454Y-44470836D01*
X23908268Y-44609815D01*
X23923240Y-44639199D01*
X24034310Y-44792073D01*
X24167927Y-44925690D01*
X24320801Y-45036760D01*
X24400347Y-45077290D01*
X24489163Y-45122545D01*
X24489165Y-45122545D01*
X24489168Y-45122547D01*
X24585497Y-45153846D01*
X24668881Y-45180940D01*
X24855514Y-45210500D01*
X24855519Y-45210500D01*
X26344486Y-45210500D01*
X26531118Y-45180940D01*
X26710832Y-45122547D01*
X26879199Y-45036760D01*
X27032073Y-44925690D01*
X27165690Y-44792073D01*
X27276760Y-44639199D01*
X27362547Y-44470832D01*
X27420940Y-44291118D01*
X27442902Y-44152455D01*
X27450500Y-44104486D01*
X27450500Y-43915513D01*
X36249500Y-43915513D01*
X36249500Y-44104486D01*
X36279059Y-44291118D01*
X36337454Y-44470836D01*
X36408268Y-44609815D01*
X36423240Y-44639199D01*
X36534310Y-44792073D01*
X36667927Y-44925690D01*
X36820801Y-45036760D01*
X36900347Y-45077290D01*
X36989163Y-45122545D01*
X36989165Y-45122545D01*
X36989168Y-45122547D01*
X37085497Y-45153846D01*
X37168881Y-45180940D01*
X37355514Y-45210500D01*
X37355519Y-45210500D01*
X38844486Y-45210500D01*
X39031118Y-45180940D01*
X39210832Y-45122547D01*
X39379199Y-45036760D01*
X39532073Y-44925690D01*
X39665690Y-44792073D01*
X39776760Y-44639199D01*
X39862547Y-44470832D01*
X39920940Y-44291118D01*
X39942902Y-44152455D01*
X39950500Y-44104486D01*
X39950500Y-43915513D01*
X39920940Y-43728881D01*
X39862545Y-43549163D01*
X39786492Y-43399902D01*
X39776760Y-43380801D01*
X39665690Y-43227927D01*
X39532073Y-43094310D01*
X39379199Y-42983240D01*
X39337729Y-42962110D01*
X39210836Y-42897454D01*
X39031118Y-42839059D01*
X38844486Y-42809500D01*
X38844481Y-42809500D01*
X37355519Y-42809500D01*
X37355514Y-42809500D01*
X37168881Y-42839059D01*
X36989163Y-42897454D01*
X36820800Y-42983240D01*
X36733579Y-43046610D01*
X36667927Y-43094310D01*
X36667925Y-43094312D01*
X36667924Y-43094312D01*
X36534312Y-43227924D01*
X36534312Y-43227925D01*
X36534310Y-43227927D01*
X36503742Y-43270000D01*
X36423240Y-43380800D01*
X36337454Y-43549163D01*
X36279059Y-43728881D01*
X36249500Y-43915513D01*
X27450500Y-43915513D01*
X27420940Y-43728881D01*
X27362545Y-43549163D01*
X27286492Y-43399902D01*
X27276760Y-43380801D01*
X27165690Y-43227927D01*
X27032073Y-43094310D01*
X26879199Y-42983240D01*
X26837729Y-42962110D01*
X26710836Y-42897454D01*
X26531118Y-42839059D01*
X26344486Y-42809500D01*
X26344481Y-42809500D01*
X24855519Y-42809500D01*
X24855514Y-42809500D01*
X24668881Y-42839059D01*
X24489163Y-42897454D01*
X24320800Y-42983240D01*
X24233579Y-43046610D01*
X24167927Y-43094310D01*
X24167925Y-43094312D01*
X24167924Y-43094312D01*
X24034312Y-43227924D01*
X24034312Y-43227925D01*
X24034310Y-43227927D01*
X24003742Y-43270000D01*
X23923240Y-43380800D01*
X23837454Y-43549163D01*
X23779059Y-43728881D01*
X23749500Y-43915513D01*
X16649165Y-43915513D01*
X16663026Y-43882049D01*
X16727491Y-43641463D01*
X16760000Y-43394533D01*
X16760000Y-43145466D01*
X16727491Y-42898536D01*
X16663026Y-42657950D01*
X16567716Y-42427851D01*
X16567711Y-42427840D01*
X16443182Y-42212151D01*
X16430001Y-42194973D01*
X16430000Y-42194973D01*
X15494901Y-43130072D01*
X15485021Y-43080402D01*
X15436022Y-42962110D01*
X15364888Y-42855649D01*
X15274351Y-42765112D01*
X15167890Y-42693978D01*
X15049598Y-42644979D01*
X14999926Y-42635098D01*
X15935026Y-41699998D01*
X15935025Y-41699997D01*
X15917854Y-41686822D01*
X15917841Y-41686812D01*
X15702159Y-41562288D01*
X15702148Y-41562283D01*
X15472049Y-41466973D01*
X15231463Y-41402508D01*
X14984534Y-41370000D01*
X14735466Y-41370000D01*
X14488536Y-41402508D01*
X14247950Y-41466973D01*
X14017851Y-41562283D01*
X14017840Y-41562288D01*
X13802150Y-41686818D01*
X13802145Y-41686821D01*
X13784973Y-41699997D01*
X13784973Y-41699998D01*
X14720073Y-42635098D01*
X14670402Y-42644979D01*
X14552110Y-42693978D01*
X14445649Y-42765112D01*
X14355112Y-42855649D01*
X14283978Y-42962110D01*
X14234979Y-43080402D01*
X14225098Y-43130073D01*
X13289998Y-42194973D01*
X13289997Y-42194973D01*
X13276821Y-42212145D01*
X13276818Y-42212150D01*
X13152288Y-42427840D01*
X13152283Y-42427851D01*
X13056973Y-42657950D01*
X12992508Y-42898536D01*
X12960000Y-43145466D01*
X12960000Y-43394533D01*
X12992508Y-43641463D01*
X13056973Y-43882049D01*
X13152283Y-44112148D01*
X13152288Y-44112159D01*
X13276813Y-44327841D01*
X13276819Y-44327849D01*
X13355212Y-44430013D01*
X13380406Y-44495183D01*
X13366368Y-44563627D01*
X13317554Y-44613617D01*
X13256836Y-44629500D01*
X12168676Y-44629500D01*
X12101637Y-44609815D01*
X12080995Y-44593181D01*
X11443753Y-43955939D01*
X11410268Y-43894616D01*
X11413502Y-43829941D01*
X11469860Y-43656493D01*
X11510500Y-43399902D01*
X11510500Y-43140097D01*
X11472240Y-42898536D01*
X11469860Y-42883507D01*
X11389579Y-42636428D01*
X11389577Y-42636425D01*
X11389577Y-42636423D01*
X11295776Y-42452331D01*
X11271634Y-42404949D01*
X11118931Y-42194771D01*
X10935229Y-42011069D01*
X10935225Y-42011066D01*
X10725055Y-41858368D01*
X10493576Y-41740422D01*
X10246493Y-41660140D01*
X9989902Y-41619500D01*
X9989897Y-41619500D01*
X9730103Y-41619500D01*
X9730098Y-41619500D01*
X9473506Y-41660140D01*
X9226423Y-41740422D01*
X8994945Y-41858368D01*
X8784774Y-42011066D01*
X8784768Y-42011071D01*
X8601071Y-42194768D01*
X8601066Y-42194774D01*
X8448368Y-42404945D01*
X8330422Y-42636423D01*
X8250140Y-42883506D01*
X8209500Y-43140097D01*
X6510500Y-43140097D01*
X6510500Y-42072128D01*
X6504091Y-42012518D01*
X6453796Y-41877670D01*
X6367546Y-41762454D01*
X6252330Y-41676204D01*
X6252328Y-41676203D01*
X6252327Y-41676202D01*
X6117481Y-41625908D01*
X6117482Y-41625908D01*
X6057882Y-41619501D01*
X6057880Y-41619500D01*
X6057872Y-41619500D01*
X3662128Y-41619500D01*
X3662120Y-41619500D01*
X3662117Y-41619501D01*
X3602518Y-41625908D01*
X3467672Y-41676202D01*
X3467670Y-41676204D01*
X3352454Y-41762454D01*
X3266204Y-41877670D01*
X3266202Y-41877672D01*
X3215908Y-42012518D01*
X3209501Y-42072117D01*
X3209500Y-42072136D01*
X500500Y-42072136D01*
X500500Y-36099986D01*
X822501Y-36099986D01*
X832994Y-36202697D01*
X888141Y-36369119D01*
X888143Y-36369124D01*
X980184Y-36518345D01*
X1104154Y-36642315D01*
X1253375Y-36734356D01*
X1253380Y-36734358D01*
X1419802Y-36789505D01*
X1419809Y-36789506D01*
X1522519Y-36799999D01*
X1634999Y-36799999D01*
X2335000Y-36799999D01*
X2447472Y-36799999D01*
X2447486Y-36799998D01*
X2550197Y-36789505D01*
X2716619Y-36734358D01*
X2716624Y-36734356D01*
X2865845Y-36642315D01*
X2989815Y-36518345D01*
X3081856Y-36369124D01*
X3081858Y-36369119D01*
X3137005Y-36202697D01*
X3137006Y-36202690D01*
X3147499Y-36099986D01*
X3147500Y-36099973D01*
X3147500Y-35750000D01*
X2335000Y-35750000D01*
X2335000Y-36799999D01*
X1634999Y-36799999D01*
X1635000Y-36799998D01*
X1635000Y-35750000D01*
X822501Y-35750000D01*
X822501Y-36099986D01*
X500500Y-36099986D01*
X500500Y-34700013D01*
X822500Y-34700013D01*
X822500Y-35050000D01*
X1635000Y-35050000D01*
X2335000Y-35050000D01*
X3147499Y-35050000D01*
X3147499Y-34700028D01*
X3147498Y-34700013D01*
X3137005Y-34597302D01*
X3081858Y-34430880D01*
X3081856Y-34430875D01*
X2989815Y-34281654D01*
X2865845Y-34157684D01*
X2716624Y-34065643D01*
X2716619Y-34065641D01*
X2550197Y-34010494D01*
X2550190Y-34010493D01*
X2447486Y-34000000D01*
X2335000Y-34000000D01*
X2335000Y-35050000D01*
X1635000Y-35050000D01*
X1635000Y-34000000D01*
X1522527Y-34000000D01*
X1522512Y-34000001D01*
X1419802Y-34010494D01*
X1253380Y-34065641D01*
X1253375Y-34065643D01*
X1104154Y-34157684D01*
X980184Y-34281654D01*
X888143Y-34430875D01*
X888141Y-34430880D01*
X832994Y-34597302D01*
X832993Y-34597309D01*
X822500Y-34700013D01*
X500500Y-34700013D01*
X500500Y-30518543D01*
X2789499Y-30518543D01*
X2827947Y-30711829D01*
X2827950Y-30711839D01*
X2903364Y-30893907D01*
X2903371Y-30893920D01*
X3012860Y-31057781D01*
X3012863Y-31057785D01*
X3152213Y-31197135D01*
X3152216Y-31197137D01*
X3152218Y-31197139D01*
X3234391Y-31252045D01*
X3279195Y-31305655D01*
X3289500Y-31355146D01*
X3289500Y-32075891D01*
X3323608Y-32203187D01*
X3356554Y-32260250D01*
X3389500Y-32317314D01*
X3389502Y-32317316D01*
X4573181Y-33500995D01*
X4606666Y-33562318D01*
X4609500Y-33588676D01*
X4609500Y-34162547D01*
X4589815Y-34229586D01*
X4537011Y-34275341D01*
X4528833Y-34278729D01*
X4455171Y-34306202D01*
X4455164Y-34306206D01*
X4339955Y-34392452D01*
X4339952Y-34392455D01*
X4253706Y-34507664D01*
X4253702Y-34507671D01*
X4203408Y-34642517D01*
X4197001Y-34702116D01*
X4197001Y-34702123D01*
X4197000Y-34702135D01*
X4197000Y-36097870D01*
X4197001Y-36097876D01*
X4203408Y-36157483D01*
X4253702Y-36292328D01*
X4253706Y-36292335D01*
X4339952Y-36407544D01*
X4339955Y-36407547D01*
X4455164Y-36493793D01*
X4455171Y-36493797D01*
X4590017Y-36544091D01*
X4590016Y-36544091D01*
X4596944Y-36544835D01*
X4649627Y-36550500D01*
X5570372Y-36550499D01*
X5629983Y-36544091D01*
X5764831Y-36493796D01*
X5880046Y-36407546D01*
X5966296Y-36292331D01*
X6016591Y-36157483D01*
X6023000Y-36097873D01*
X6023000Y-35966530D01*
X7839500Y-35966530D01*
X7839500Y-36173469D01*
X7879868Y-36376412D01*
X7879870Y-36376420D01*
X7959058Y-36567596D01*
X8074024Y-36739657D01*
X8220342Y-36885975D01*
X8220345Y-36885977D01*
X8392402Y-37000941D01*
X8583580Y-37080130D01*
X8784951Y-37120185D01*
X8786530Y-37120499D01*
X8786534Y-37120500D01*
X8786535Y-37120500D01*
X8993466Y-37120500D01*
X8993467Y-37120499D01*
X9196420Y-37080130D01*
X9387598Y-37000941D01*
X9559655Y-36885977D01*
X9705977Y-36739655D01*
X9820941Y-36567598D01*
X9900130Y-36376420D01*
X9940500Y-36173465D01*
X9940500Y-35966535D01*
X9940499Y-35966530D01*
X15459500Y-35966530D01*
X15459500Y-36173469D01*
X15499868Y-36376412D01*
X15499870Y-36376420D01*
X15579058Y-36567596D01*
X15694024Y-36739657D01*
X15840340Y-36885973D01*
X15840343Y-36885975D01*
X15840345Y-36885977D01*
X15954390Y-36962178D01*
X15999196Y-37015791D01*
X16009500Y-37065281D01*
X16009500Y-39005891D01*
X16043608Y-39133187D01*
X16072725Y-39183618D01*
X16109500Y-39247314D01*
X16109502Y-39247316D01*
X18218181Y-41355995D01*
X18251666Y-41417318D01*
X18254500Y-41443676D01*
X18254500Y-42257870D01*
X18254501Y-42257876D01*
X18260908Y-42317483D01*
X18311202Y-42452328D01*
X18311206Y-42452335D01*
X18397452Y-42567544D01*
X18397455Y-42567547D01*
X18512664Y-42653793D01*
X18512671Y-42653797D01*
X18647517Y-42704091D01*
X18647516Y-42704091D01*
X18654444Y-42704835D01*
X18707127Y-42710500D01*
X20052872Y-42710499D01*
X20112483Y-42704091D01*
X20247331Y-42653796D01*
X20362546Y-42567546D01*
X20448796Y-42452331D01*
X20499091Y-42317483D01*
X20505500Y-42257873D01*
X20505499Y-41362128D01*
X20499091Y-41302517D01*
X20448796Y-41167669D01*
X20448795Y-41167668D01*
X20448793Y-41167664D01*
X20362547Y-41052455D01*
X20362544Y-41052452D01*
X20247335Y-40966206D01*
X20247328Y-40966202D01*
X20112482Y-40915908D01*
X20112483Y-40915908D01*
X20052883Y-40909501D01*
X20052881Y-40909500D01*
X20052873Y-40909500D01*
X20052865Y-40909500D01*
X19238676Y-40909500D01*
X19171637Y-40889815D01*
X19150995Y-40873181D01*
X17461433Y-39183619D01*
X20361354Y-39183619D01*
X20500965Y-39254753D01*
X20500972Y-39254756D01*
X20695582Y-39317990D01*
X20897683Y-39350000D01*
X21102317Y-39350000D01*
X21304417Y-39317990D01*
X21499031Y-39254755D01*
X21552043Y-39227744D01*
X21638643Y-39183618D01*
X21000001Y-38544974D01*
X21000000Y-38544974D01*
X20361354Y-39183619D01*
X17461433Y-39183619D01*
X17046819Y-38769005D01*
X17013334Y-38707682D01*
X17010500Y-38681324D01*
X17010500Y-37947682D01*
X19700000Y-37947682D01*
X19700000Y-38152317D01*
X19732010Y-38354418D01*
X19732010Y-38354421D01*
X19795241Y-38549023D01*
X19795241Y-38549024D01*
X19866379Y-38688644D01*
X19866380Y-38688644D01*
X20505025Y-38050000D01*
X20452364Y-37997339D01*
X20600000Y-37997339D01*
X20600000Y-38102661D01*
X20627259Y-38204394D01*
X20679920Y-38295606D01*
X20754394Y-38370080D01*
X20845606Y-38422741D01*
X20947339Y-38450000D01*
X21052661Y-38450000D01*
X21154394Y-38422741D01*
X21245606Y-38370080D01*
X21320080Y-38295606D01*
X21372741Y-38204394D01*
X21400000Y-38102661D01*
X21400000Y-38050000D01*
X21494974Y-38050000D01*
X22133618Y-38688643D01*
X22148213Y-38659999D01*
X23539102Y-38659999D01*
X23539102Y-38660000D01*
X25052115Y-38660000D01*
X25023978Y-38702110D01*
X24974979Y-38820402D01*
X24950000Y-38945981D01*
X24950000Y-39074019D01*
X24974979Y-39199598D01*
X25023978Y-39317890D01*
X25052115Y-39360000D01*
X23539102Y-39360000D01*
X23606230Y-39566604D01*
X23606231Y-39566607D01*
X23709849Y-39769966D01*
X23844004Y-39954614D01*
X24005385Y-40115995D01*
X24190033Y-40250150D01*
X24393395Y-40353769D01*
X24610455Y-40424295D01*
X24835884Y-40460000D01*
X25250000Y-40460000D01*
X25250000Y-39557885D01*
X25292110Y-39586022D01*
X25410402Y-39635021D01*
X25535981Y-39660000D01*
X25664019Y-39660000D01*
X25789598Y-39635021D01*
X25907890Y-39586022D01*
X25950000Y-39557885D01*
X25950000Y-40460000D01*
X26364116Y-40460000D01*
X26589544Y-40424295D01*
X26806604Y-40353769D01*
X27009966Y-40250150D01*
X27194614Y-40115995D01*
X27355995Y-39954614D01*
X27490150Y-39769966D01*
X27593768Y-39566607D01*
X27593769Y-39566604D01*
X27660898Y-39360000D01*
X26147885Y-39360000D01*
X26176022Y-39317890D01*
X26225021Y-39199598D01*
X26250000Y-39074019D01*
X26250000Y-38945981D01*
X26225021Y-38820402D01*
X26176022Y-38702110D01*
X26147885Y-38660000D01*
X27660898Y-38660000D01*
X27660897Y-38659999D01*
X36039102Y-38659999D01*
X36039102Y-38660000D01*
X37552115Y-38660000D01*
X37523978Y-38702110D01*
X37474979Y-38820402D01*
X37450000Y-38945981D01*
X37450000Y-39074019D01*
X37474979Y-39199598D01*
X37523978Y-39317890D01*
X37552115Y-39360000D01*
X36039102Y-39360000D01*
X36106230Y-39566604D01*
X36106231Y-39566607D01*
X36209849Y-39769966D01*
X36344004Y-39954614D01*
X36505385Y-40115995D01*
X36690033Y-40250150D01*
X36893395Y-40353769D01*
X37110455Y-40424295D01*
X37335884Y-40460000D01*
X37750000Y-40460000D01*
X37750000Y-39557885D01*
X37792110Y-39586022D01*
X37910402Y-39635021D01*
X38035981Y-39660000D01*
X38164019Y-39660000D01*
X38289598Y-39635021D01*
X38407890Y-39586022D01*
X38450000Y-39557885D01*
X38450000Y-40460000D01*
X38864116Y-40460000D01*
X39089544Y-40424295D01*
X39306604Y-40353769D01*
X39509966Y-40250150D01*
X39694614Y-40115995D01*
X39855995Y-39954614D01*
X39990150Y-39769966D01*
X40093768Y-39566607D01*
X40093769Y-39566604D01*
X40160898Y-39360000D01*
X38647885Y-39360000D01*
X38676022Y-39317890D01*
X38725021Y-39199598D01*
X38750000Y-39074019D01*
X38750000Y-38945981D01*
X38725021Y-38820402D01*
X38676022Y-38702110D01*
X38647885Y-38660000D01*
X40160898Y-38660000D01*
X40160897Y-38659999D01*
X40093769Y-38453395D01*
X40093768Y-38453392D01*
X39990150Y-38250033D01*
X39855995Y-38065385D01*
X39694614Y-37904004D01*
X39509966Y-37769849D01*
X39306604Y-37666230D01*
X39089544Y-37595704D01*
X38864116Y-37560000D01*
X38450000Y-37560000D01*
X38450000Y-38462114D01*
X38407890Y-38433978D01*
X38289598Y-38384979D01*
X38164019Y-38360000D01*
X38035981Y-38360000D01*
X37910402Y-38384979D01*
X37792110Y-38433978D01*
X37750000Y-38462114D01*
X37750000Y-37560000D01*
X37335884Y-37560000D01*
X37110455Y-37595704D01*
X36893395Y-37666230D01*
X36690033Y-37769849D01*
X36505385Y-37904004D01*
X36344004Y-38065385D01*
X36209849Y-38250033D01*
X36106231Y-38453392D01*
X36106230Y-38453395D01*
X36039102Y-38659999D01*
X27660897Y-38659999D01*
X27593769Y-38453395D01*
X27593768Y-38453392D01*
X27490150Y-38250033D01*
X27355995Y-38065385D01*
X27194614Y-37904004D01*
X27009966Y-37769849D01*
X26806604Y-37666230D01*
X26589544Y-37595704D01*
X26364116Y-37560000D01*
X25950000Y-37560000D01*
X25950000Y-38462114D01*
X25907890Y-38433978D01*
X25789598Y-38384979D01*
X25664019Y-38360000D01*
X25535981Y-38360000D01*
X25410402Y-38384979D01*
X25292110Y-38433978D01*
X25250000Y-38462114D01*
X25250000Y-37560000D01*
X24835884Y-37560000D01*
X24610455Y-37595704D01*
X24393395Y-37666230D01*
X24190033Y-37769849D01*
X24005385Y-37904004D01*
X23844004Y-38065385D01*
X23709849Y-38250033D01*
X23606231Y-38453392D01*
X23606230Y-38453395D01*
X23539102Y-38659999D01*
X22148213Y-38659999D01*
X22165804Y-38625477D01*
X22165804Y-38625476D01*
X22204755Y-38549031D01*
X22267990Y-38354417D01*
X22300000Y-38152317D01*
X22300000Y-37947682D01*
X22267990Y-37745582D01*
X22204756Y-37550972D01*
X22204753Y-37550965D01*
X22133619Y-37411354D01*
X21494974Y-38050000D01*
X21400000Y-38050000D01*
X21400000Y-37997339D01*
X21372741Y-37895606D01*
X21320080Y-37804394D01*
X21245606Y-37729920D01*
X21154394Y-37677259D01*
X21052661Y-37650000D01*
X20947339Y-37650000D01*
X20845606Y-37677259D01*
X20754394Y-37729920D01*
X20679920Y-37804394D01*
X20627259Y-37895606D01*
X20600000Y-37997339D01*
X20452364Y-37997339D01*
X19866379Y-37411354D01*
X19795242Y-37550973D01*
X19795242Y-37550974D01*
X19732010Y-37745578D01*
X19732010Y-37745581D01*
X19700000Y-37947682D01*
X17010500Y-37947682D01*
X17010500Y-37065281D01*
X17030185Y-36998242D01*
X17065610Y-36962178D01*
X17179655Y-36885977D01*
X17325977Y-36739655D01*
X17440941Y-36567598D01*
X17520130Y-36376420D01*
X17560500Y-36173465D01*
X17560500Y-35966535D01*
X17520130Y-35763580D01*
X17440941Y-35572402D01*
X17325977Y-35400345D01*
X17325975Y-35400342D01*
X17179657Y-35254024D01*
X17136699Y-35225321D01*
X19949500Y-35225321D01*
X19949500Y-36874678D01*
X19964032Y-36947735D01*
X19964033Y-36947739D01*
X19964034Y-36947740D01*
X20019399Y-37030601D01*
X20093524Y-37080129D01*
X20102260Y-37085966D01*
X20102264Y-37085967D01*
X20175321Y-37100499D01*
X20175324Y-37100500D01*
X20494113Y-37100500D01*
X20561152Y-37120185D01*
X20581794Y-37136819D01*
X21000000Y-37555025D01*
X21418206Y-37136819D01*
X21479529Y-37103334D01*
X21505887Y-37100500D01*
X21824676Y-37100500D01*
X21824677Y-37100499D01*
X21897740Y-37085966D01*
X21980601Y-37030601D01*
X22035966Y-36947740D01*
X22050500Y-36874674D01*
X22050500Y-35225326D01*
X22050500Y-35225323D01*
X22050499Y-35225321D01*
X22035967Y-35152264D01*
X22035966Y-35152260D01*
X21980601Y-35069399D01*
X21897740Y-35014034D01*
X21897739Y-35014033D01*
X21897735Y-35014032D01*
X21824677Y-34999500D01*
X21824674Y-34999500D01*
X20175326Y-34999500D01*
X20175323Y-34999500D01*
X20102264Y-35014032D01*
X20102260Y-35014033D01*
X20019399Y-35069399D01*
X19964033Y-35152260D01*
X19964032Y-35152264D01*
X19949500Y-35225321D01*
X17136699Y-35225321D01*
X17093626Y-35196541D01*
X17007598Y-35139059D01*
X16816420Y-35059870D01*
X16816412Y-35059868D01*
X16613469Y-35019500D01*
X16613465Y-35019500D01*
X16406535Y-35019500D01*
X16406530Y-35019500D01*
X16203587Y-35059868D01*
X16203579Y-35059870D01*
X16012403Y-35139058D01*
X15840342Y-35254024D01*
X15694024Y-35400342D01*
X15579058Y-35572403D01*
X15499870Y-35763579D01*
X15499868Y-35763587D01*
X15459500Y-35966530D01*
X9940499Y-35966530D01*
X9900130Y-35763580D01*
X9820941Y-35572402D01*
X9705977Y-35400345D01*
X9705975Y-35400342D01*
X9559657Y-35254024D01*
X9473626Y-35196541D01*
X9387598Y-35139059D01*
X9196420Y-35059870D01*
X9196412Y-35059868D01*
X8993469Y-35019500D01*
X8993465Y-35019500D01*
X8786535Y-35019500D01*
X8786530Y-35019500D01*
X8583587Y-35059868D01*
X8583579Y-35059870D01*
X8392403Y-35139058D01*
X8220342Y-35254024D01*
X8074024Y-35400342D01*
X7959058Y-35572403D01*
X7879870Y-35763579D01*
X7879868Y-35763587D01*
X7839500Y-35966530D01*
X6023000Y-35966530D01*
X6022999Y-34702128D01*
X6016591Y-34642517D01*
X5966296Y-34507669D01*
X5966295Y-34507668D01*
X5966293Y-34507664D01*
X5880047Y-34392455D01*
X5880044Y-34392452D01*
X5764835Y-34306206D01*
X5764828Y-34306202D01*
X5691167Y-34278729D01*
X5635233Y-34236858D01*
X5610816Y-34171394D01*
X5610500Y-34162547D01*
X5610500Y-33426530D01*
X7839500Y-33426530D01*
X7839500Y-33633469D01*
X7879868Y-33836412D01*
X7879870Y-33836420D01*
X7959059Y-34027598D01*
X7984480Y-34065643D01*
X8074024Y-34199657D01*
X8220342Y-34345975D01*
X8220345Y-34345977D01*
X8392402Y-34460941D01*
X8583580Y-34540130D01*
X8786530Y-34580499D01*
X8786534Y-34580500D01*
X8786535Y-34580500D01*
X8993466Y-34580500D01*
X8993467Y-34580499D01*
X9196420Y-34540130D01*
X9387598Y-34460941D01*
X9559655Y-34345977D01*
X9705977Y-34199655D01*
X9820941Y-34027598D01*
X9900130Y-33836420D01*
X9940500Y-33633465D01*
X9940500Y-33426535D01*
X9940499Y-33426530D01*
X15459500Y-33426530D01*
X15459500Y-33633469D01*
X15499868Y-33836412D01*
X15499870Y-33836420D01*
X15579059Y-34027598D01*
X15604480Y-34065643D01*
X15694024Y-34199657D01*
X15840342Y-34345975D01*
X15840345Y-34345977D01*
X16012402Y-34460941D01*
X16203580Y-34540130D01*
X16406530Y-34580499D01*
X16406534Y-34580500D01*
X16406535Y-34580500D01*
X16613466Y-34580500D01*
X16613467Y-34580499D01*
X16816420Y-34540130D01*
X17007598Y-34460941D01*
X17179655Y-34345977D01*
X17325977Y-34199655D01*
X17440941Y-34027598D01*
X17520130Y-33836420D01*
X17560500Y-33633465D01*
X17560500Y-33426535D01*
X17520130Y-33223580D01*
X17440941Y-33032402D01*
X17387543Y-32952486D01*
X19600001Y-32952486D01*
X19610494Y-33055197D01*
X19665641Y-33221619D01*
X19665643Y-33221624D01*
X19757684Y-33370845D01*
X19881654Y-33494815D01*
X20030875Y-33586856D01*
X20030880Y-33586858D01*
X20197302Y-33642005D01*
X20197309Y-33642006D01*
X20300019Y-33652499D01*
X20649999Y-33652499D01*
X21350000Y-33652499D01*
X21699972Y-33652499D01*
X21699986Y-33652498D01*
X21802697Y-33642005D01*
X21969119Y-33586858D01*
X21969124Y-33586856D01*
X22118345Y-33494815D01*
X22242315Y-33370845D01*
X22334356Y-33221624D01*
X22334358Y-33221619D01*
X22389505Y-33055197D01*
X22389506Y-33055190D01*
X22399999Y-32952486D01*
X22400000Y-32952473D01*
X22400000Y-32840000D01*
X21350000Y-32840000D01*
X21350000Y-33652499D01*
X20649999Y-33652499D01*
X20650000Y-33652498D01*
X20650000Y-32840000D01*
X19600001Y-32840000D01*
X19600001Y-32952486D01*
X17387543Y-32952486D01*
X17325977Y-32860345D01*
X17325976Y-32860344D01*
X17325974Y-32860341D01*
X17179657Y-32714024D01*
X17093626Y-32656541D01*
X17007598Y-32599059D01*
X16816420Y-32519870D01*
X16816412Y-32519868D01*
X16613469Y-32479500D01*
X16613465Y-32479500D01*
X16406535Y-32479500D01*
X16406530Y-32479500D01*
X16203587Y-32519868D01*
X16203579Y-32519870D01*
X16012403Y-32599058D01*
X15840342Y-32714024D01*
X15694024Y-32860342D01*
X15579058Y-33032403D01*
X15499870Y-33223579D01*
X15499868Y-33223587D01*
X15459500Y-33426530D01*
X9940499Y-33426530D01*
X9900130Y-33223580D01*
X9820941Y-33032402D01*
X9705977Y-32860345D01*
X9705976Y-32860344D01*
X9705975Y-32860342D01*
X9559657Y-32714024D01*
X9473626Y-32656541D01*
X9387598Y-32599059D01*
X9196420Y-32519870D01*
X9196412Y-32519868D01*
X8993469Y-32479500D01*
X8993465Y-32479500D01*
X8786535Y-32479500D01*
X8786530Y-32479500D01*
X8583587Y-32519868D01*
X8583579Y-32519870D01*
X8392403Y-32599058D01*
X8220342Y-32714024D01*
X8074024Y-32860342D01*
X7959058Y-33032403D01*
X7879870Y-33223579D01*
X7879868Y-33223587D01*
X7839500Y-33426530D01*
X5610500Y-33426530D01*
X5610500Y-33264110D01*
X5610500Y-33264108D01*
X5576392Y-33136814D01*
X5510500Y-33022686D01*
X5417314Y-32929500D01*
X4326819Y-31839005D01*
X4293334Y-31777682D01*
X4290500Y-31751324D01*
X4290500Y-31355146D01*
X4310185Y-31288107D01*
X4345607Y-31252046D01*
X4427782Y-31197139D01*
X4567139Y-31057782D01*
X4676632Y-30893914D01*
X4679691Y-30886530D01*
X7839500Y-30886530D01*
X7839500Y-31093469D01*
X7879868Y-31296412D01*
X7879870Y-31296420D01*
X7959058Y-31487596D01*
X8074024Y-31659657D01*
X8220342Y-31805975D01*
X8220345Y-31805977D01*
X8392402Y-31920941D01*
X8583580Y-32000130D01*
X8786530Y-32040499D01*
X8786534Y-32040500D01*
X8786535Y-32040500D01*
X8993466Y-32040500D01*
X8993467Y-32040499D01*
X9196420Y-32000130D01*
X9387598Y-31920941D01*
X9559655Y-31805977D01*
X9705977Y-31659655D01*
X9820941Y-31487598D01*
X9900130Y-31296420D01*
X9940500Y-31093465D01*
X9940500Y-30886535D01*
X9900130Y-30683580D01*
X9820941Y-30492402D01*
X9705977Y-30320345D01*
X9705975Y-30320342D01*
X9559657Y-30174024D01*
X9467814Y-30112657D01*
X9387598Y-30059059D01*
X9292903Y-30019835D01*
X9196420Y-29979870D01*
X9196412Y-29979868D01*
X8993469Y-29939500D01*
X8993465Y-29939500D01*
X8786535Y-29939500D01*
X8786530Y-29939500D01*
X8583587Y-29979868D01*
X8583579Y-29979870D01*
X8392403Y-30059058D01*
X8220342Y-30174024D01*
X8074024Y-30320342D01*
X7959058Y-30492403D01*
X7879870Y-30683579D01*
X7879868Y-30683587D01*
X7839500Y-30886530D01*
X4679691Y-30886530D01*
X4752051Y-30711835D01*
X4790500Y-30518541D01*
X4790500Y-30321459D01*
X4790500Y-30321456D01*
X4771219Y-30224530D01*
X4777446Y-30154939D01*
X4805153Y-30112659D01*
X6330995Y-28586819D01*
X6392318Y-28553334D01*
X6418676Y-28550500D01*
X6815890Y-28550500D01*
X6815892Y-28550500D01*
X6943186Y-28516392D01*
X7057314Y-28450500D01*
X7881628Y-27626185D01*
X7942950Y-27592701D01*
X8012641Y-27597685D01*
X8068575Y-27639557D01*
X8092992Y-27705021D01*
X8078140Y-27773294D01*
X8072411Y-27782757D01*
X7959058Y-27952403D01*
X7879870Y-28143579D01*
X7879868Y-28143587D01*
X7839500Y-28346530D01*
X7839500Y-28553469D01*
X7879868Y-28756412D01*
X7879870Y-28756420D01*
X7959058Y-28947596D01*
X8074024Y-29119657D01*
X8220342Y-29265975D01*
X8220345Y-29265977D01*
X8392402Y-29380941D01*
X8583580Y-29460130D01*
X8786530Y-29500499D01*
X8786534Y-29500500D01*
X8786535Y-29500500D01*
X8993466Y-29500500D01*
X8993467Y-29500499D01*
X9196420Y-29460130D01*
X9387598Y-29380941D01*
X9559655Y-29265977D01*
X9705977Y-29119655D01*
X9820941Y-28947598D01*
X9900130Y-28756420D01*
X9940500Y-28553465D01*
X9940500Y-28346535D01*
X9900130Y-28143580D01*
X9820941Y-27952402D01*
X9705977Y-27780345D01*
X9705975Y-27780342D01*
X9559657Y-27634024D01*
X9428915Y-27546666D01*
X9387598Y-27519059D01*
X9373407Y-27513181D01*
X9196420Y-27439870D01*
X9196412Y-27439868D01*
X8993469Y-27399500D01*
X8993465Y-27399500D01*
X8786535Y-27399500D01*
X8786530Y-27399500D01*
X8583587Y-27439868D01*
X8583579Y-27439870D01*
X8392403Y-27519058D01*
X8222756Y-27632411D01*
X8156078Y-27653288D01*
X8088698Y-27634803D01*
X8042009Y-27582824D01*
X8030833Y-27513853D01*
X8058719Y-27449790D01*
X8066170Y-27441642D01*
X8540138Y-26967674D01*
X8601459Y-26934191D01*
X8652005Y-26933740D01*
X8762127Y-26955644D01*
X8786534Y-26960500D01*
X8786535Y-26960500D01*
X8993466Y-26960500D01*
X8993467Y-26960499D01*
X9196420Y-26920130D01*
X9387598Y-26840941D01*
X9559655Y-26725977D01*
X9705977Y-26579655D01*
X9820941Y-26407598D01*
X9900130Y-26216420D01*
X9940500Y-26013465D01*
X9940500Y-25806535D01*
X9900130Y-25603580D01*
X9820941Y-25412402D01*
X9705977Y-25240345D01*
X9705975Y-25240342D01*
X9559657Y-25094024D01*
X9395576Y-24984390D01*
X9387598Y-24979059D01*
X9344282Y-24961117D01*
X9196420Y-24899870D01*
X9196412Y-24899868D01*
X8993469Y-24859500D01*
X8993465Y-24859500D01*
X8786535Y-24859500D01*
X8786530Y-24859500D01*
X8583587Y-24899868D01*
X8583579Y-24899870D01*
X8392403Y-24979058D01*
X8220342Y-25094024D01*
X8074024Y-25240342D01*
X7959058Y-25412403D01*
X7879870Y-25603579D01*
X7879868Y-25603587D01*
X7839500Y-25806530D01*
X7839500Y-26013469D01*
X7866258Y-26147990D01*
X7860031Y-26217582D01*
X7832322Y-26259862D01*
X6579005Y-27513181D01*
X6517682Y-27546666D01*
X6491324Y-27549500D01*
X6094107Y-27549500D01*
X5966812Y-27583608D01*
X5852686Y-27649500D01*
X5852683Y-27649502D01*
X4097340Y-29404844D01*
X4036017Y-29438329D01*
X3985467Y-29438780D01*
X3888543Y-29419500D01*
X3888541Y-29419500D01*
X3691459Y-29419500D01*
X3691457Y-29419500D01*
X3498170Y-29457947D01*
X3498160Y-29457950D01*
X3316092Y-29533364D01*
X3316079Y-29533371D01*
X3152218Y-29642860D01*
X3152214Y-29642863D01*
X3012863Y-29782214D01*
X3012860Y-29782218D01*
X2903371Y-29946079D01*
X2903364Y-29946092D01*
X2827950Y-30128160D01*
X2827947Y-30128170D01*
X2789500Y-30321456D01*
X2789500Y-30321459D01*
X2789500Y-30518541D01*
X2789500Y-30518543D01*
X2789499Y-30518543D01*
X500500Y-30518543D01*
X500500Y-25638543D01*
X2789499Y-25638543D01*
X2827947Y-25831829D01*
X2827950Y-25831839D01*
X2903364Y-26013907D01*
X2903371Y-26013920D01*
X3012860Y-26177781D01*
X3012863Y-26177785D01*
X3152214Y-26317136D01*
X3152218Y-26317139D01*
X3316079Y-26426628D01*
X3316092Y-26426635D01*
X3498160Y-26502049D01*
X3498165Y-26502051D01*
X3498169Y-26502051D01*
X3498170Y-26502052D01*
X3691456Y-26540500D01*
X3691459Y-26540500D01*
X3888543Y-26540500D01*
X4018582Y-26514632D01*
X4081835Y-26502051D01*
X4263914Y-26426632D01*
X4427782Y-26317139D01*
X4567139Y-26177782D01*
X4622045Y-26095608D01*
X4675657Y-26050804D01*
X4725147Y-26040500D01*
X5285890Y-26040500D01*
X5285892Y-26040500D01*
X5413186Y-26006392D01*
X5527314Y-25940500D01*
X7560995Y-23906819D01*
X7587922Y-23892115D01*
X7613741Y-23875523D01*
X7619941Y-23874631D01*
X7622318Y-23873334D01*
X7648676Y-23870500D01*
X7894719Y-23870500D01*
X7961758Y-23890185D01*
X7997819Y-23925607D01*
X8020800Y-23960000D01*
X8074024Y-24039657D01*
X8220342Y-24185975D01*
X8220345Y-24185977D01*
X8392402Y-24300941D01*
X8583580Y-24380130D01*
X8786530Y-24420499D01*
X8786534Y-24420500D01*
X8786535Y-24420500D01*
X8993466Y-24420500D01*
X8993467Y-24420499D01*
X9196420Y-24380130D01*
X9387598Y-24300941D01*
X9559655Y-24185977D01*
X9705977Y-24039655D01*
X9820941Y-23867598D01*
X9900130Y-23676420D01*
X9940500Y-23473465D01*
X9940500Y-23266535D01*
X9900130Y-23063580D01*
X9820941Y-22872402D01*
X9705977Y-22700345D01*
X9705975Y-22700342D01*
X9559657Y-22554024D01*
X9473626Y-22496541D01*
X9387598Y-22439059D01*
X9275079Y-22392452D01*
X9196420Y-22359870D01*
X9196414Y-22359868D01*
X9143617Y-22349366D01*
X9081706Y-22316981D01*
X9047132Y-22256265D01*
X9050873Y-22186495D01*
X9091739Y-22129823D01*
X9148413Y-22105275D01*
X9194422Y-22097988D01*
X9389031Y-22034755D01*
X9528643Y-21963618D01*
X8890001Y-21324974D01*
X8890000Y-21324974D01*
X8251354Y-21963619D01*
X8390965Y-22034753D01*
X8390972Y-22034756D01*
X8585577Y-22097988D01*
X8631586Y-22105275D01*
X8694722Y-22135204D01*
X8731653Y-22194515D01*
X8730657Y-22264378D01*
X8692047Y-22322611D01*
X8636383Y-22349366D01*
X8583584Y-22359868D01*
X8583579Y-22359870D01*
X8392403Y-22439058D01*
X8220342Y-22554024D01*
X8074024Y-22700342D01*
X8034292Y-22759806D01*
X7997819Y-22814391D01*
X7944210Y-22859195D01*
X7894719Y-22869500D01*
X7618676Y-22869500D01*
X7551637Y-22849815D01*
X7530995Y-22833181D01*
X6184645Y-21486831D01*
X6151160Y-21425508D01*
X6156143Y-21355819D01*
X6189091Y-21267483D01*
X6195500Y-21207873D01*
X6195499Y-20727682D01*
X7590000Y-20727682D01*
X7590000Y-20932317D01*
X7622010Y-21134418D01*
X7622010Y-21134421D01*
X7685241Y-21329023D01*
X7685241Y-21329024D01*
X7756379Y-21468644D01*
X7756380Y-21468644D01*
X8395025Y-20830000D01*
X8342364Y-20777339D01*
X8490000Y-20777339D01*
X8490000Y-20882661D01*
X8517259Y-20984394D01*
X8569920Y-21075606D01*
X8644394Y-21150080D01*
X8735606Y-21202741D01*
X8837339Y-21230000D01*
X8942661Y-21230000D01*
X9044394Y-21202741D01*
X9135606Y-21150080D01*
X9210080Y-21075606D01*
X9262741Y-20984394D01*
X9290000Y-20882661D01*
X9290000Y-20830000D01*
X9384974Y-20830000D01*
X10023618Y-21468643D01*
X10094755Y-21329031D01*
X10157990Y-21134417D01*
X10190000Y-20932317D01*
X10190000Y-20727682D01*
X10157990Y-20525582D01*
X10094756Y-20330972D01*
X10094753Y-20330965D01*
X10023619Y-20191354D01*
X9384974Y-20830000D01*
X9290000Y-20830000D01*
X9290000Y-20777339D01*
X9262741Y-20675606D01*
X9210080Y-20584394D01*
X9135606Y-20509920D01*
X9044394Y-20457259D01*
X8942661Y-20430000D01*
X8837339Y-20430000D01*
X8735606Y-20457259D01*
X8644394Y-20509920D01*
X8569920Y-20584394D01*
X8517259Y-20675606D01*
X8490000Y-20777339D01*
X8342364Y-20777339D01*
X7756379Y-20191354D01*
X7685242Y-20330973D01*
X7685242Y-20330974D01*
X7622010Y-20525578D01*
X7622010Y-20525581D01*
X7590000Y-20727682D01*
X6195499Y-20727682D01*
X6195499Y-20509920D01*
X6195499Y-19812129D01*
X6195498Y-19812123D01*
X6195497Y-19812116D01*
X6189091Y-19752517D01*
X6168153Y-19696380D01*
X6138797Y-19617671D01*
X6138793Y-19617664D01*
X6052547Y-19502455D01*
X6052544Y-19502452D01*
X5937335Y-19416206D01*
X5937328Y-19416202D01*
X5802482Y-19365908D01*
X5802483Y-19365908D01*
X5742883Y-19359501D01*
X5742881Y-19359500D01*
X5742873Y-19359500D01*
X5742864Y-19359500D01*
X4822129Y-19359500D01*
X4822123Y-19359501D01*
X4762516Y-19365908D01*
X4627671Y-19416202D01*
X4627664Y-19416206D01*
X4512455Y-19502452D01*
X4512452Y-19502455D01*
X4426206Y-19617664D01*
X4426202Y-19617671D01*
X4375908Y-19752517D01*
X4369501Y-19812116D01*
X4369501Y-19812123D01*
X4369500Y-19812135D01*
X4369500Y-21207870D01*
X4369501Y-21207876D01*
X4375908Y-21267483D01*
X4426202Y-21402328D01*
X4426206Y-21402335D01*
X4512452Y-21517544D01*
X4512455Y-21517547D01*
X4627664Y-21603793D01*
X4627671Y-21603797D01*
X4762516Y-21654091D01*
X4788419Y-21656875D01*
X4822127Y-21660500D01*
X4891322Y-21660499D01*
X4958361Y-21680183D01*
X4979004Y-21696818D01*
X6579505Y-23297319D01*
X6612990Y-23358642D01*
X6608006Y-23428334D01*
X6579505Y-23472681D01*
X5049005Y-25003181D01*
X5022077Y-25017884D01*
X4996259Y-25034477D01*
X4990058Y-25035368D01*
X4987682Y-25036666D01*
X4961324Y-25039500D01*
X4725147Y-25039500D01*
X4658108Y-25019815D01*
X4622045Y-24984391D01*
X4567139Y-24902218D01*
X4567137Y-24902215D01*
X4427785Y-24762863D01*
X4427781Y-24762860D01*
X4263920Y-24653371D01*
X4263907Y-24653364D01*
X4081839Y-24577950D01*
X4081829Y-24577947D01*
X3888543Y-24539500D01*
X3888541Y-24539500D01*
X3691459Y-24539500D01*
X3691457Y-24539500D01*
X3498170Y-24577947D01*
X3498160Y-24577950D01*
X3316092Y-24653364D01*
X3316079Y-24653371D01*
X3152218Y-24762860D01*
X3152214Y-24762863D01*
X3012863Y-24902214D01*
X3012860Y-24902218D01*
X2903371Y-25066079D01*
X2903364Y-25066092D01*
X2827950Y-25248160D01*
X2827947Y-25248170D01*
X2789500Y-25441456D01*
X2789500Y-25441459D01*
X2789500Y-25638541D01*
X2789500Y-25638543D01*
X2789499Y-25638543D01*
X500500Y-25638543D01*
X500500Y-21209986D01*
X995001Y-21209986D01*
X1005494Y-21312697D01*
X1060641Y-21479119D01*
X1060643Y-21479124D01*
X1152684Y-21628345D01*
X1276654Y-21752315D01*
X1425875Y-21844356D01*
X1425880Y-21844358D01*
X1592302Y-21899505D01*
X1592309Y-21899506D01*
X1695019Y-21909999D01*
X1807499Y-21909999D01*
X2507500Y-21909999D01*
X2619972Y-21909999D01*
X2619986Y-21909998D01*
X2722697Y-21899505D01*
X2889119Y-21844358D01*
X2889124Y-21844356D01*
X3038345Y-21752315D01*
X3162315Y-21628345D01*
X3254356Y-21479124D01*
X3254358Y-21479119D01*
X3309505Y-21312697D01*
X3309506Y-21312690D01*
X3319999Y-21209986D01*
X3320000Y-21209973D01*
X3320000Y-20860000D01*
X2507500Y-20860000D01*
X2507500Y-21909999D01*
X1807499Y-21909999D01*
X1807500Y-21909998D01*
X1807500Y-20860000D01*
X995001Y-20860000D01*
X995001Y-21209986D01*
X500500Y-21209986D01*
X500500Y-19810013D01*
X995000Y-19810013D01*
X995000Y-20160000D01*
X1807500Y-20160000D01*
X2507500Y-20160000D01*
X3319999Y-20160000D01*
X3319999Y-19810028D01*
X3319998Y-19810013D01*
X3309505Y-19707302D01*
X3254358Y-19540880D01*
X3254356Y-19540875D01*
X3162315Y-19391654D01*
X3038345Y-19267684D01*
X2889124Y-19175643D01*
X2889119Y-19175641D01*
X2722697Y-19120494D01*
X2722690Y-19120493D01*
X2619986Y-19110000D01*
X2507500Y-19110000D01*
X2507500Y-20160000D01*
X1807500Y-20160000D01*
X1807500Y-19110000D01*
X1695027Y-19110000D01*
X1695012Y-19110001D01*
X1592302Y-19120494D01*
X1425880Y-19175641D01*
X1425875Y-19175643D01*
X1276654Y-19267684D01*
X1152684Y-19391654D01*
X1060643Y-19540875D01*
X1060641Y-19540880D01*
X1005494Y-19707302D01*
X1005493Y-19707309D01*
X995000Y-19810013D01*
X500500Y-19810013D01*
X500500Y-17692948D01*
X520185Y-17625909D01*
X572989Y-17580154D01*
X642147Y-17570210D01*
X650969Y-17571806D01*
X655092Y-17572707D01*
X684878Y-17575500D01*
X684882Y-17575500D01*
X2315122Y-17575500D01*
X2330015Y-17574103D01*
X2344913Y-17572706D01*
X2470393Y-17528799D01*
X2577356Y-17449856D01*
X2656299Y-17342893D01*
X2680565Y-17273543D01*
X2721286Y-17216769D01*
X2786239Y-17191022D01*
X2797606Y-17190500D01*
X3117771Y-17190500D01*
X3184810Y-17210185D01*
X3205453Y-17226820D01*
X3251580Y-17272948D01*
X3251584Y-17272951D01*
X3374498Y-17355080D01*
X3374511Y-17355087D01*
X3462865Y-17391684D01*
X3511087Y-17411658D01*
X3511091Y-17411658D01*
X3511092Y-17411659D01*
X3656079Y-17440500D01*
X3656082Y-17440500D01*
X3803920Y-17440500D01*
X3904477Y-17420497D01*
X3948913Y-17411658D01*
X4085495Y-17355084D01*
X4208416Y-17272951D01*
X4312951Y-17168416D01*
X4395084Y-17045495D01*
X4451658Y-16908913D01*
X4473223Y-16800500D01*
X4480500Y-16763920D01*
X4480500Y-16616079D01*
X4451659Y-16471092D01*
X4451658Y-16471091D01*
X4451658Y-16471087D01*
X4451656Y-16471082D01*
X4395087Y-16334511D01*
X4395080Y-16334498D01*
X4312951Y-16211584D01*
X4312948Y-16211580D01*
X4208419Y-16107051D01*
X4208415Y-16107048D01*
X4085501Y-16024919D01*
X4085488Y-16024912D01*
X3948917Y-15968343D01*
X3948907Y-15968340D01*
X3803920Y-15939500D01*
X3803918Y-15939500D01*
X3656082Y-15939500D01*
X3656080Y-15939500D01*
X3511092Y-15968340D01*
X3511082Y-15968343D01*
X3374511Y-16024912D01*
X3374498Y-16024919D01*
X3251584Y-16107048D01*
X3251580Y-16107051D01*
X3205453Y-16153180D01*
X3144130Y-16186666D01*
X3117771Y-16189500D01*
X2797606Y-16189500D01*
X2730567Y-16169815D01*
X2684812Y-16117011D01*
X2680569Y-16106468D01*
X2656299Y-16037107D01*
X2611636Y-15976591D01*
X2577356Y-15930143D01*
X2473462Y-15853466D01*
X2470393Y-15851201D01*
X2344913Y-15807294D01*
X2344911Y-15807293D01*
X2344909Y-15807293D01*
X2315122Y-15804500D01*
X2315118Y-15804500D01*
X2170888Y-15804500D01*
X2103849Y-15784815D01*
X2083207Y-15768181D01*
X1340194Y-15025168D01*
X1306709Y-14963845D01*
X1311693Y-14894153D01*
X1340194Y-14849806D01*
X1500000Y-14690000D01*
X1499999Y-14689999D01*
X1994974Y-14689999D01*
X1994974Y-14690000D01*
X2831734Y-15526760D01*
X2896290Y-15419971D01*
X2946177Y-15259876D01*
X2952499Y-15190298D01*
X2952499Y-14189691D01*
X2946178Y-14120124D01*
X2946176Y-14120116D01*
X2896291Y-13960031D01*
X2831733Y-13853239D01*
X1994974Y-14689999D01*
X1499999Y-14689999D01*
X1340194Y-14530194D01*
X1306709Y-14468871D01*
X1311693Y-14399179D01*
X1340194Y-14354832D01*
X2083207Y-13611819D01*
X2144530Y-13578334D01*
X2170888Y-13575500D01*
X2315122Y-13575500D01*
X2330015Y-13574103D01*
X2344913Y-13572706D01*
X2470393Y-13528799D01*
X2577356Y-13449856D01*
X2656299Y-13342893D01*
X2680565Y-13273543D01*
X2721286Y-13216769D01*
X2786239Y-13191022D01*
X2797606Y-13190500D01*
X3651324Y-13190500D01*
X3718363Y-13210185D01*
X3739005Y-13226819D01*
X7839500Y-17327314D01*
X7932686Y-17420500D01*
X8016381Y-17468822D01*
X8064596Y-17519388D01*
X8077820Y-17587995D01*
X8057483Y-17645098D01*
X7959059Y-17792399D01*
X7959059Y-17792400D01*
X7879870Y-17983579D01*
X7879868Y-17983587D01*
X7839500Y-18186530D01*
X7839500Y-18393469D01*
X7879472Y-18594421D01*
X7879870Y-18596420D01*
X7959059Y-18787598D01*
X8016541Y-18873626D01*
X8074024Y-18959657D01*
X8220342Y-19105975D01*
X8220345Y-19105977D01*
X8392402Y-19220941D01*
X8583580Y-19300130D01*
X8612462Y-19305875D01*
X8636381Y-19310633D01*
X8698292Y-19343017D01*
X8732866Y-19403733D01*
X8729127Y-19473502D01*
X8688261Y-19530175D01*
X8631589Y-19554723D01*
X8585579Y-19562010D01*
X8585578Y-19562010D01*
X8390974Y-19625242D01*
X8390973Y-19625242D01*
X8251354Y-19696379D01*
X8890000Y-20335025D01*
X8890001Y-20335025D01*
X9528644Y-19696380D01*
X9528644Y-19696379D01*
X9389024Y-19625241D01*
X9194419Y-19562010D01*
X9148411Y-19554723D01*
X9085276Y-19524794D01*
X9048345Y-19465482D01*
X9049343Y-19395619D01*
X9087953Y-19337387D01*
X9143616Y-19310633D01*
X9196420Y-19300130D01*
X9387598Y-19220941D01*
X9559655Y-19105977D01*
X9705977Y-18959655D01*
X9820941Y-18787598D01*
X9900130Y-18596420D01*
X9940500Y-18393465D01*
X9940500Y-18237675D01*
X9960185Y-18170636D01*
X10012989Y-18124881D01*
X10082147Y-18114937D01*
X10145703Y-18143962D01*
X10152181Y-18149994D01*
X10463181Y-18460994D01*
X10496666Y-18522317D01*
X10499500Y-18548675D01*
X10499500Y-25545891D01*
X10533608Y-25673187D01*
X10566554Y-25730250D01*
X10599500Y-25787314D01*
X10599502Y-25787316D01*
X15452322Y-30640136D01*
X15485807Y-30701459D01*
X15486258Y-30752008D01*
X15459500Y-30886530D01*
X15459500Y-31093469D01*
X15499868Y-31296412D01*
X15499870Y-31296420D01*
X15579058Y-31487596D01*
X15694024Y-31659657D01*
X15840342Y-31805975D01*
X15840345Y-31805977D01*
X16012402Y-31920941D01*
X16203580Y-32000130D01*
X16406530Y-32040499D01*
X16406534Y-32040500D01*
X16406535Y-32040500D01*
X16613466Y-32040500D01*
X16613467Y-32040499D01*
X16678753Y-32027513D01*
X19600000Y-32027513D01*
X19600000Y-32140000D01*
X20650000Y-32140000D01*
X21350000Y-32140000D01*
X22399999Y-32140000D01*
X22399999Y-32027528D01*
X22399998Y-32027513D01*
X22389505Y-31924802D01*
X22334358Y-31758380D01*
X22334356Y-31758375D01*
X22242315Y-31609154D01*
X22118345Y-31485184D01*
X21969124Y-31393143D01*
X21969119Y-31393141D01*
X21802697Y-31337994D01*
X21802690Y-31337993D01*
X21699986Y-31327500D01*
X21350000Y-31327500D01*
X21350000Y-32140000D01*
X20650000Y-32140000D01*
X20650000Y-31327500D01*
X20300028Y-31327500D01*
X20300012Y-31327501D01*
X20197302Y-31337994D01*
X20030880Y-31393141D01*
X20030875Y-31393143D01*
X19881654Y-31485184D01*
X19757684Y-31609154D01*
X19665643Y-31758375D01*
X19665641Y-31758380D01*
X19610494Y-31924802D01*
X19610493Y-31924809D01*
X19600000Y-32027513D01*
X16678753Y-32027513D01*
X16816420Y-32000130D01*
X17007598Y-31920941D01*
X17179655Y-31805977D01*
X17325977Y-31659655D01*
X17440941Y-31487598D01*
X17520130Y-31296420D01*
X17560500Y-31093465D01*
X17560500Y-30886535D01*
X17520130Y-30683580D01*
X17440941Y-30492402D01*
X17325977Y-30320345D01*
X17325975Y-30320342D01*
X17179657Y-30174024D01*
X17087814Y-30112657D01*
X17007598Y-30059059D01*
X16912903Y-30019835D01*
X16816420Y-29979870D01*
X16816412Y-29979868D01*
X16613469Y-29939500D01*
X16613465Y-29939500D01*
X16406535Y-29939500D01*
X16406530Y-29939500D01*
X16272008Y-29966258D01*
X16202416Y-29960031D01*
X16160136Y-29932322D01*
X15686187Y-29458373D01*
X15652702Y-29397050D01*
X15657686Y-29327358D01*
X15699558Y-29271425D01*
X15765022Y-29247008D01*
X15833295Y-29261860D01*
X15842758Y-29267590D01*
X16012400Y-29380940D01*
X16012401Y-29380940D01*
X16012402Y-29380941D01*
X16203580Y-29460130D01*
X16406530Y-29500499D01*
X16406534Y-29500500D01*
X16406535Y-29500500D01*
X16613466Y-29500500D01*
X16613467Y-29500499D01*
X16816420Y-29460130D01*
X17007598Y-29380941D01*
X17179655Y-29265977D01*
X17325977Y-29119655D01*
X17440941Y-28947598D01*
X17520130Y-28756420D01*
X17560500Y-28553465D01*
X17560500Y-28346535D01*
X17520130Y-28143580D01*
X17440941Y-27952402D01*
X17440940Y-27952400D01*
X17440940Y-27952399D01*
X17388148Y-27873390D01*
X17367270Y-27806713D01*
X17385755Y-27739333D01*
X17437734Y-27692643D01*
X17491250Y-27680500D01*
X18556324Y-27680500D01*
X18623363Y-27700185D01*
X18644005Y-27716819D01*
X19813181Y-28885995D01*
X19846666Y-28947318D01*
X19849500Y-28973676D01*
X19849500Y-29825370D01*
X19849501Y-29825376D01*
X19855908Y-29884983D01*
X19906202Y-30019828D01*
X19906206Y-30019835D01*
X19992452Y-30135044D01*
X19992455Y-30135047D01*
X20107664Y-30221293D01*
X20107671Y-30221297D01*
X20242517Y-30271591D01*
X20242516Y-30271591D01*
X20249444Y-30272335D01*
X20302127Y-30278000D01*
X21697872Y-30277999D01*
X21757483Y-30271591D01*
X21892331Y-30221296D01*
X22007546Y-30135046D01*
X22093796Y-30019831D01*
X22144091Y-29884983D01*
X22150500Y-29825373D01*
X22150499Y-28904628D01*
X22144091Y-28845017D01*
X22111046Y-28756420D01*
X22093797Y-28710171D01*
X22093793Y-28710164D01*
X22007547Y-28594955D01*
X22007544Y-28594952D01*
X21892335Y-28508706D01*
X21892328Y-28508702D01*
X21757482Y-28458408D01*
X21757483Y-28458408D01*
X21697883Y-28452001D01*
X21697881Y-28452000D01*
X21697873Y-28452000D01*
X21697865Y-28452000D01*
X20846176Y-28452000D01*
X20779137Y-28432315D01*
X20758495Y-28415681D01*
X19758327Y-27415513D01*
X23749500Y-27415513D01*
X23749500Y-27604486D01*
X23779059Y-27791118D01*
X23837454Y-27970836D01*
X23923240Y-28139199D01*
X24034310Y-28292073D01*
X24167927Y-28425690D01*
X24320801Y-28536760D01*
X24400347Y-28577290D01*
X24489163Y-28622545D01*
X24489165Y-28622545D01*
X24489168Y-28622547D01*
X24585497Y-28653846D01*
X24668881Y-28680940D01*
X24855514Y-28710500D01*
X24855519Y-28710500D01*
X26344486Y-28710500D01*
X26531118Y-28680940D01*
X26710832Y-28622547D01*
X26879199Y-28536760D01*
X27032073Y-28425690D01*
X27165690Y-28292073D01*
X27276760Y-28139199D01*
X27362547Y-27970832D01*
X27420940Y-27791118D01*
X27432708Y-27716819D01*
X27450500Y-27604486D01*
X27450500Y-27415513D01*
X36249500Y-27415513D01*
X36249500Y-27604486D01*
X36279059Y-27791118D01*
X36337454Y-27970836D01*
X36423240Y-28139199D01*
X36534310Y-28292073D01*
X36667927Y-28425690D01*
X36820801Y-28536760D01*
X36900347Y-28577290D01*
X36989163Y-28622545D01*
X36989165Y-28622545D01*
X36989168Y-28622547D01*
X37085497Y-28653846D01*
X37168881Y-28680940D01*
X37355514Y-28710500D01*
X37355519Y-28710500D01*
X38844486Y-28710500D01*
X39031118Y-28680940D01*
X39210832Y-28622547D01*
X39379199Y-28536760D01*
X39532073Y-28425690D01*
X39665690Y-28292073D01*
X39776760Y-28139199D01*
X39862547Y-27970832D01*
X39920940Y-27791118D01*
X39932708Y-27716819D01*
X39950500Y-27604486D01*
X39950500Y-27415513D01*
X39920940Y-27228881D01*
X39886317Y-27122324D01*
X39862547Y-27049168D01*
X39862545Y-27049165D01*
X39862545Y-27049163D01*
X39803734Y-26933740D01*
X39776760Y-26880801D01*
X39665690Y-26727927D01*
X39532073Y-26594310D01*
X39379199Y-26483240D01*
X39210836Y-26397454D01*
X39031118Y-26339059D01*
X38844486Y-26309500D01*
X38844481Y-26309500D01*
X37355519Y-26309500D01*
X37355514Y-26309500D01*
X37168881Y-26339059D01*
X36989163Y-26397454D01*
X36820800Y-26483240D01*
X36745633Y-26537853D01*
X36667927Y-26594310D01*
X36667925Y-26594312D01*
X36667924Y-26594312D01*
X36534312Y-26727924D01*
X36534312Y-26727925D01*
X36534310Y-26727927D01*
X36486610Y-26793579D01*
X36423240Y-26880800D01*
X36337454Y-27049163D01*
X36279059Y-27228881D01*
X36249500Y-27415513D01*
X27450500Y-27415513D01*
X27420940Y-27228881D01*
X27386317Y-27122324D01*
X27362547Y-27049168D01*
X27362545Y-27049165D01*
X27362545Y-27049163D01*
X27303734Y-26933740D01*
X27276760Y-26880801D01*
X27165690Y-26727927D01*
X27032073Y-26594310D01*
X26879199Y-26483240D01*
X26710836Y-26397454D01*
X26531118Y-26339059D01*
X26344486Y-26309500D01*
X26344481Y-26309500D01*
X24855519Y-26309500D01*
X24855514Y-26309500D01*
X24668881Y-26339059D01*
X24489163Y-26397454D01*
X24320800Y-26483240D01*
X24245633Y-26537853D01*
X24167927Y-26594310D01*
X24167925Y-26594312D01*
X24167924Y-26594312D01*
X24034312Y-26727924D01*
X24034312Y-26727925D01*
X24034310Y-26727927D01*
X23986610Y-26793579D01*
X23923240Y-26880800D01*
X23837454Y-27049163D01*
X23779059Y-27228881D01*
X23749500Y-27415513D01*
X19758327Y-27415513D01*
X19122316Y-26779502D01*
X19122314Y-26779500D01*
X19065250Y-26746554D01*
X19008187Y-26713608D01*
X18944539Y-26696554D01*
X18880892Y-26679500D01*
X18880891Y-26679500D01*
X17491250Y-26679500D01*
X17424211Y-26659815D01*
X17378456Y-26607011D01*
X17368512Y-26537853D01*
X17388148Y-26486610D01*
X17440940Y-26407600D01*
X17440940Y-26407599D01*
X17440941Y-26407598D01*
X17520130Y-26216420D01*
X17558886Y-26021577D01*
X20049500Y-26021577D01*
X20049500Y-26218422D01*
X20080290Y-26412826D01*
X20141117Y-26600029D01*
X20171580Y-26659815D01*
X20230476Y-26775405D01*
X20346172Y-26934646D01*
X20485354Y-27073828D01*
X20644595Y-27189524D01*
X20696630Y-27216037D01*
X20819970Y-27278882D01*
X20819972Y-27278882D01*
X20819975Y-27278884D01*
X20920317Y-27311487D01*
X21007173Y-27339709D01*
X21201578Y-27370500D01*
X21201583Y-27370500D01*
X21398422Y-27370500D01*
X21592826Y-27339709D01*
X21780025Y-27278884D01*
X21955405Y-27189524D01*
X22114646Y-27073828D01*
X22253828Y-26934646D01*
X22369524Y-26775405D01*
X22458884Y-26600025D01*
X22519709Y-26412826D01*
X22522144Y-26397453D01*
X22550500Y-26218422D01*
X22550500Y-26021577D01*
X22519709Y-25827173D01*
X22458882Y-25639970D01*
X22369523Y-25464594D01*
X22253828Y-25305354D01*
X22114646Y-25166172D01*
X21955405Y-25050476D01*
X21924005Y-25034477D01*
X21780029Y-24961117D01*
X21592826Y-24900290D01*
X21398422Y-24869500D01*
X21398417Y-24869500D01*
X21201583Y-24869500D01*
X21201578Y-24869500D01*
X21007173Y-24900290D01*
X20819970Y-24961117D01*
X20644594Y-25050476D01*
X20584655Y-25094025D01*
X20485354Y-25166172D01*
X20485352Y-25166174D01*
X20485351Y-25166174D01*
X20346174Y-25305351D01*
X20346174Y-25305352D01*
X20346172Y-25305354D01*
X20296485Y-25373741D01*
X20230476Y-25464594D01*
X20141117Y-25639970D01*
X20080290Y-25827173D01*
X20049500Y-26021577D01*
X17558886Y-26021577D01*
X17560500Y-26013465D01*
X17560500Y-25806535D01*
X17520130Y-25603580D01*
X17440941Y-25412402D01*
X17325977Y-25240345D01*
X17325975Y-25240342D01*
X17179657Y-25094024D01*
X17015576Y-24984390D01*
X17007598Y-24979059D01*
X16964282Y-24961117D01*
X16816420Y-24899870D01*
X16816412Y-24899868D01*
X16613469Y-24859500D01*
X16613465Y-24859500D01*
X16406535Y-24859500D01*
X16406530Y-24859500D01*
X16203587Y-24899868D01*
X16203579Y-24899870D01*
X16012403Y-24979058D01*
X15840342Y-25094024D01*
X15840341Y-25094025D01*
X15742181Y-25192186D01*
X15680858Y-25225671D01*
X15611166Y-25220687D01*
X15555233Y-25178815D01*
X15530816Y-25113351D01*
X15530500Y-25104505D01*
X15530500Y-24175495D01*
X15550185Y-24108456D01*
X15602989Y-24062701D01*
X15672147Y-24052757D01*
X15735703Y-24081782D01*
X15742181Y-24087814D01*
X15840342Y-24185975D01*
X15840345Y-24185977D01*
X16012402Y-24300941D01*
X16203580Y-24380130D01*
X16406530Y-24420499D01*
X16406534Y-24420500D01*
X16406535Y-24420500D01*
X16613466Y-24420500D01*
X16613467Y-24420499D01*
X16816420Y-24380130D01*
X17007598Y-24300941D01*
X17179655Y-24185977D01*
X17325977Y-24039655D01*
X17420294Y-23898497D01*
X17473905Y-23853694D01*
X17491304Y-23847614D01*
X17533184Y-23836393D01*
X17533184Y-23836392D01*
X17533186Y-23836392D01*
X17647314Y-23770500D01*
X17718495Y-23699319D01*
X17779818Y-23665834D01*
X17806176Y-23663000D01*
X19762547Y-23663000D01*
X19829586Y-23682685D01*
X19875341Y-23735489D01*
X19878729Y-23743667D01*
X19906202Y-23817328D01*
X19906206Y-23817335D01*
X19992452Y-23932544D01*
X19992455Y-23932547D01*
X20107664Y-24018793D01*
X20107671Y-24018797D01*
X20242517Y-24069091D01*
X20242516Y-24069091D01*
X20249444Y-24069835D01*
X20302127Y-24075500D01*
X21697872Y-24075499D01*
X21757483Y-24069091D01*
X21892331Y-24018796D01*
X22007546Y-23932546D01*
X22093796Y-23817331D01*
X22144091Y-23682483D01*
X22150500Y-23622873D01*
X22150499Y-22702128D01*
X22144091Y-22642517D01*
X22111375Y-22554802D01*
X22093797Y-22507671D01*
X22093793Y-22507664D01*
X22007547Y-22392455D01*
X22007544Y-22392452D01*
X21892335Y-22306206D01*
X21892328Y-22306202D01*
X21870210Y-22297953D01*
X21757482Y-22255908D01*
X21757483Y-22255908D01*
X21697883Y-22249501D01*
X21697881Y-22249500D01*
X21697873Y-22249500D01*
X21697864Y-22249500D01*
X20302129Y-22249500D01*
X20302123Y-22249501D01*
X20242516Y-22255908D01*
X20107671Y-22306202D01*
X20107664Y-22306206D01*
X19992455Y-22392452D01*
X19992452Y-22392455D01*
X19906206Y-22507664D01*
X19906202Y-22507671D01*
X19878729Y-22581333D01*
X19836858Y-22637267D01*
X19771394Y-22661684D01*
X19762547Y-22662000D01*
X17613392Y-22662000D01*
X17481607Y-22662000D01*
X17397773Y-22684462D01*
X17327926Y-22682800D01*
X17278002Y-22652370D01*
X17179655Y-22554023D01*
X17007598Y-22439059D01*
X16895079Y-22392452D01*
X16816420Y-22359870D01*
X16816412Y-22359868D01*
X16613469Y-22319500D01*
X16613465Y-22319500D01*
X16406535Y-22319500D01*
X16406530Y-22319500D01*
X16203587Y-22359868D01*
X16203579Y-22359870D01*
X16012403Y-22439058D01*
X15842758Y-22552410D01*
X15776080Y-22573287D01*
X15708700Y-22554802D01*
X15662011Y-22502823D01*
X15650835Y-22433853D01*
X15678721Y-22369789D01*
X15686178Y-22361635D01*
X15887814Y-22159999D01*
X23539102Y-22159999D01*
X23539102Y-22160000D01*
X25052115Y-22160000D01*
X25023978Y-22202110D01*
X24974979Y-22320402D01*
X24950000Y-22445981D01*
X24950000Y-22574019D01*
X24974979Y-22699598D01*
X25023978Y-22817890D01*
X25052115Y-22860000D01*
X23539102Y-22860000D01*
X23606230Y-23066604D01*
X23606231Y-23066607D01*
X23709849Y-23269966D01*
X23844004Y-23454614D01*
X24005385Y-23615995D01*
X24190033Y-23750150D01*
X24393395Y-23853769D01*
X24610455Y-23924295D01*
X24835884Y-23960000D01*
X25250000Y-23960000D01*
X25250000Y-23057885D01*
X25292110Y-23086022D01*
X25410402Y-23135021D01*
X25535981Y-23160000D01*
X25664019Y-23160000D01*
X25789598Y-23135021D01*
X25907890Y-23086022D01*
X25950000Y-23057885D01*
X25950000Y-23960000D01*
X26364116Y-23960000D01*
X26589544Y-23924295D01*
X26806604Y-23853769D01*
X27009966Y-23750150D01*
X27194614Y-23615995D01*
X27355995Y-23454614D01*
X27490150Y-23269966D01*
X27593768Y-23066607D01*
X27593769Y-23066604D01*
X27660898Y-22860000D01*
X26147885Y-22860000D01*
X26176022Y-22817890D01*
X26225021Y-22699598D01*
X26250000Y-22574019D01*
X26250000Y-22445981D01*
X26225021Y-22320402D01*
X26176022Y-22202110D01*
X26147885Y-22160000D01*
X27660898Y-22160000D01*
X27660897Y-22159999D01*
X36039102Y-22159999D01*
X36039102Y-22160000D01*
X37552115Y-22160000D01*
X37523978Y-22202110D01*
X37474979Y-22320402D01*
X37450000Y-22445981D01*
X37450000Y-22574019D01*
X37474979Y-22699598D01*
X37523978Y-22817890D01*
X37552115Y-22860000D01*
X36039102Y-22860000D01*
X36106230Y-23066604D01*
X36106231Y-23066607D01*
X36209849Y-23269966D01*
X36344004Y-23454614D01*
X36505385Y-23615995D01*
X36690033Y-23750150D01*
X36893395Y-23853769D01*
X37110455Y-23924295D01*
X37335884Y-23960000D01*
X37750000Y-23960000D01*
X37750000Y-23057885D01*
X37792110Y-23086022D01*
X37910402Y-23135021D01*
X38035981Y-23160000D01*
X38164019Y-23160000D01*
X38289598Y-23135021D01*
X38407890Y-23086022D01*
X38450000Y-23057885D01*
X38450000Y-23960000D01*
X38864116Y-23960000D01*
X39089544Y-23924295D01*
X39306604Y-23853769D01*
X39509966Y-23750150D01*
X39694614Y-23615995D01*
X39855995Y-23454614D01*
X39990150Y-23269966D01*
X40093768Y-23066607D01*
X40093769Y-23066604D01*
X40160898Y-22860000D01*
X38647885Y-22860000D01*
X38676022Y-22817890D01*
X38725021Y-22699598D01*
X38750000Y-22574019D01*
X38750000Y-22445981D01*
X38725021Y-22320402D01*
X38676022Y-22202110D01*
X38647885Y-22160000D01*
X40160898Y-22160000D01*
X40160897Y-22159999D01*
X40093769Y-21953395D01*
X40093768Y-21953392D01*
X39990150Y-21750033D01*
X39855995Y-21565385D01*
X39694614Y-21404004D01*
X39509966Y-21269849D01*
X39306604Y-21166230D01*
X39089544Y-21095704D01*
X38864116Y-21060000D01*
X38450000Y-21060000D01*
X38450000Y-21962114D01*
X38407890Y-21933978D01*
X38289598Y-21884979D01*
X38164019Y-21860000D01*
X38035981Y-21860000D01*
X37910402Y-21884979D01*
X37792110Y-21933978D01*
X37750000Y-21962114D01*
X37750000Y-21060000D01*
X37335884Y-21060000D01*
X37110455Y-21095704D01*
X36893395Y-21166230D01*
X36690033Y-21269849D01*
X36505385Y-21404004D01*
X36344004Y-21565385D01*
X36209849Y-21750033D01*
X36106231Y-21953392D01*
X36106230Y-21953395D01*
X36039102Y-22159999D01*
X27660897Y-22159999D01*
X27593769Y-21953395D01*
X27593768Y-21953392D01*
X27490150Y-21750033D01*
X27355995Y-21565385D01*
X27194614Y-21404004D01*
X27009966Y-21269849D01*
X26806604Y-21166230D01*
X26589544Y-21095704D01*
X26364116Y-21060000D01*
X25950000Y-21060000D01*
X25950000Y-21962114D01*
X25907890Y-21933978D01*
X25789598Y-21884979D01*
X25664019Y-21860000D01*
X25535981Y-21860000D01*
X25410402Y-21884979D01*
X25292110Y-21933978D01*
X25250000Y-21962114D01*
X25250000Y-21060000D01*
X24835884Y-21060000D01*
X24610455Y-21095704D01*
X24393395Y-21166230D01*
X24190033Y-21269849D01*
X24005385Y-21404004D01*
X23844004Y-21565385D01*
X23709849Y-21750033D01*
X23606231Y-21953392D01*
X23606230Y-21953395D01*
X23539102Y-22159999D01*
X15887814Y-22159999D01*
X16160138Y-21887674D01*
X16221459Y-21854191D01*
X16272005Y-21853740D01*
X16382127Y-21875644D01*
X16406534Y-21880500D01*
X16406535Y-21880500D01*
X16613466Y-21880500D01*
X16613467Y-21880499D01*
X16816420Y-21840130D01*
X16961733Y-21779938D01*
X17009186Y-21770500D01*
X17015890Y-21770500D01*
X17015892Y-21770500D01*
X17143186Y-21736392D01*
X17257314Y-21670500D01*
X17350500Y-21577314D01*
X17416392Y-21463186D01*
X17450500Y-21335892D01*
X17450500Y-21329185D01*
X17459939Y-21281732D01*
X17465842Y-21267481D01*
X17520130Y-21136420D01*
X17560500Y-20933465D01*
X17560500Y-20726535D01*
X17520130Y-20523580D01*
X17510357Y-20499986D01*
X19600001Y-20499986D01*
X19610494Y-20602697D01*
X19665641Y-20769119D01*
X19665643Y-20769124D01*
X19757684Y-20918345D01*
X19881654Y-21042315D01*
X20030875Y-21134356D01*
X20030880Y-21134358D01*
X20197302Y-21189505D01*
X20197309Y-21189506D01*
X20300019Y-21199999D01*
X20649999Y-21199999D01*
X21350000Y-21199999D01*
X21699972Y-21199999D01*
X21699986Y-21199998D01*
X21802697Y-21189505D01*
X21969119Y-21134358D01*
X21969124Y-21134356D01*
X22118345Y-21042315D01*
X22242315Y-20918345D01*
X22334356Y-20769124D01*
X22334358Y-20769119D01*
X22389505Y-20602697D01*
X22389506Y-20602690D01*
X22399999Y-20499986D01*
X22400000Y-20499973D01*
X22400000Y-20387500D01*
X21350000Y-20387500D01*
X21350000Y-21199999D01*
X20649999Y-21199999D01*
X20650000Y-21199998D01*
X20650000Y-20387500D01*
X19600001Y-20387500D01*
X19600001Y-20499986D01*
X17510357Y-20499986D01*
X17440941Y-20332402D01*
X17325977Y-20160345D01*
X17325975Y-20160342D01*
X17179657Y-20014024D01*
X17093626Y-19956541D01*
X17007598Y-19899059D01*
X16816420Y-19819870D01*
X16816414Y-19819868D01*
X16763617Y-19809366D01*
X16701706Y-19776981D01*
X16667132Y-19716265D01*
X16670873Y-19646495D01*
X16711739Y-19589823D01*
X16745931Y-19575013D01*
X19600000Y-19575013D01*
X19600000Y-19687500D01*
X20650000Y-19687500D01*
X21350000Y-19687500D01*
X22399999Y-19687500D01*
X22399999Y-19575028D01*
X22399998Y-19575013D01*
X22389505Y-19472302D01*
X22334358Y-19305880D01*
X22334356Y-19305875D01*
X22242315Y-19156654D01*
X22202091Y-19116430D01*
X22168606Y-19055107D01*
X22173590Y-18985415D01*
X22202095Y-18941063D01*
X22217316Y-18925842D01*
X22309356Y-18776623D01*
X22309358Y-18776618D01*
X22364505Y-18610196D01*
X22364506Y-18610189D01*
X22374999Y-18507485D01*
X22375000Y-18507472D01*
X22375000Y-18345000D01*
X21350000Y-18345000D01*
X21350000Y-19687500D01*
X20650000Y-19687500D01*
X20650000Y-18345000D01*
X19625000Y-18345000D01*
X19625000Y-18507485D01*
X19635493Y-18610189D01*
X19635494Y-18610196D01*
X19690641Y-18776618D01*
X19690643Y-18776623D01*
X19782684Y-18925844D01*
X19797908Y-18941068D01*
X19831393Y-19002391D01*
X19826409Y-19072083D01*
X19797909Y-19116429D01*
X19757684Y-19156654D01*
X19665643Y-19305875D01*
X19665641Y-19305880D01*
X19610494Y-19472302D01*
X19610493Y-19472309D01*
X19600000Y-19575013D01*
X16745931Y-19575013D01*
X16768413Y-19565275D01*
X16814422Y-19557988D01*
X17009031Y-19494755D01*
X17074535Y-19461379D01*
X17148643Y-19423618D01*
X16510001Y-18784974D01*
X16510000Y-18784974D01*
X15871354Y-19423619D01*
X16010965Y-19494753D01*
X16010972Y-19494756D01*
X16205577Y-19557988D01*
X16251586Y-19565275D01*
X16314722Y-19595204D01*
X16351653Y-19654515D01*
X16350657Y-19724378D01*
X16312047Y-19782611D01*
X16256383Y-19809366D01*
X16203584Y-19819868D01*
X16203579Y-19819870D01*
X16012403Y-19899058D01*
X15840342Y-20014024D01*
X15694024Y-20160342D01*
X15579058Y-20332403D01*
X15499870Y-20523579D01*
X15499868Y-20523587D01*
X15459500Y-20726530D01*
X15459500Y-20933469D01*
X15486258Y-21067990D01*
X15480031Y-21137582D01*
X15452322Y-21179862D01*
X14862181Y-21770004D01*
X14800858Y-21803489D01*
X14731167Y-21798505D01*
X14675233Y-21756634D01*
X14650816Y-21691169D01*
X14650500Y-21682323D01*
X14650500Y-18754110D01*
X14650500Y-18754108D01*
X14616392Y-18626814D01*
X14550500Y-18512686D01*
X14457314Y-18419500D01*
X14225496Y-18187682D01*
X15210000Y-18187682D01*
X15210000Y-18392317D01*
X15242010Y-18594418D01*
X15242010Y-18594421D01*
X15305241Y-18789023D01*
X15305241Y-18789024D01*
X15376379Y-18928644D01*
X15376380Y-18928644D01*
X16015025Y-18290000D01*
X15962364Y-18237339D01*
X16110000Y-18237339D01*
X16110000Y-18342661D01*
X16137259Y-18444394D01*
X16189920Y-18535606D01*
X16264394Y-18610080D01*
X16355606Y-18662741D01*
X16457339Y-18690000D01*
X16562661Y-18690000D01*
X16664394Y-18662741D01*
X16755606Y-18610080D01*
X16830080Y-18535606D01*
X16882741Y-18444394D01*
X16910000Y-18342661D01*
X16910000Y-18290000D01*
X17004974Y-18290000D01*
X17643618Y-18928643D01*
X17714755Y-18789031D01*
X17777990Y-18594417D01*
X17810000Y-18392317D01*
X17810000Y-18187682D01*
X17777990Y-17985582D01*
X17714756Y-17790972D01*
X17714753Y-17790965D01*
X17643619Y-17651354D01*
X17004974Y-18290000D01*
X16910000Y-18290000D01*
X16910000Y-18237339D01*
X16882741Y-18135606D01*
X16830080Y-18044394D01*
X16755606Y-17969920D01*
X16664394Y-17917259D01*
X16562661Y-17890000D01*
X16457339Y-17890000D01*
X16355606Y-17917259D01*
X16264394Y-17969920D01*
X16189920Y-18044394D01*
X16137259Y-18135606D01*
X16110000Y-18237339D01*
X15962364Y-18237339D01*
X15376379Y-17651354D01*
X15305242Y-17790973D01*
X15305242Y-17790974D01*
X15242010Y-17985578D01*
X15242010Y-17985581D01*
X15210000Y-18187682D01*
X14225496Y-18187682D01*
X11684344Y-15646530D01*
X15459500Y-15646530D01*
X15459500Y-15853469D01*
X15499868Y-16056412D01*
X15499870Y-16056420D01*
X15579058Y-16247596D01*
X15694024Y-16419657D01*
X15840342Y-16565975D01*
X15840345Y-16565977D01*
X16012402Y-16680941D01*
X16203580Y-16760130D01*
X16222624Y-16763918D01*
X16256381Y-16770633D01*
X16318292Y-16803017D01*
X16352866Y-16863733D01*
X16349127Y-16933502D01*
X16308261Y-16990175D01*
X16251589Y-17014723D01*
X16205579Y-17022010D01*
X16205578Y-17022010D01*
X16010974Y-17085242D01*
X16010973Y-17085242D01*
X15871354Y-17156379D01*
X16510000Y-17795025D01*
X16510001Y-17795025D01*
X16822511Y-17482514D01*
X19625000Y-17482514D01*
X19625000Y-17645000D01*
X20650000Y-17645000D01*
X21350000Y-17645000D01*
X22375000Y-17645000D01*
X22375000Y-17482527D01*
X22374999Y-17482514D01*
X22364506Y-17379810D01*
X22364505Y-17379803D01*
X22309358Y-17213381D01*
X22309356Y-17213376D01*
X22217315Y-17064155D01*
X22093344Y-16940184D01*
X21944123Y-16848143D01*
X21944118Y-16848141D01*
X21777696Y-16792994D01*
X21777689Y-16792993D01*
X21674985Y-16782500D01*
X21350000Y-16782500D01*
X21350000Y-17645000D01*
X20650000Y-17645000D01*
X20650000Y-16782500D01*
X20325014Y-16782500D01*
X20222310Y-16792993D01*
X20222303Y-16792994D01*
X20055881Y-16848141D01*
X20055876Y-16848143D01*
X19906655Y-16940184D01*
X19782684Y-17064155D01*
X19690643Y-17213376D01*
X19690641Y-17213381D01*
X19635494Y-17379803D01*
X19635493Y-17379810D01*
X19625000Y-17482514D01*
X16822511Y-17482514D01*
X16913341Y-17391684D01*
X17148644Y-17156380D01*
X17148644Y-17156379D01*
X17009024Y-17085241D01*
X16814419Y-17022010D01*
X16768411Y-17014723D01*
X16705276Y-16984794D01*
X16668345Y-16925482D01*
X16669343Y-16855619D01*
X16707953Y-16797387D01*
X16763616Y-16770633D01*
X16816420Y-16760130D01*
X17007598Y-16680941D01*
X17179655Y-16565977D01*
X17325977Y-16419655D01*
X17440941Y-16247598D01*
X17520130Y-16056420D01*
X17560500Y-15853465D01*
X17560500Y-15646535D01*
X17520130Y-15443580D01*
X17440941Y-15252402D01*
X17325977Y-15080345D01*
X17325975Y-15080342D01*
X17179658Y-14934025D01*
X17179655Y-14934023D01*
X17099553Y-14880501D01*
X17007598Y-14819059D01*
X16930959Y-14787314D01*
X16816420Y-14739870D01*
X16816412Y-14739868D01*
X16613469Y-14699500D01*
X16613465Y-14699500D01*
X16406535Y-14699500D01*
X16406530Y-14699500D01*
X16203587Y-14739868D01*
X16203579Y-14739870D01*
X16012403Y-14819058D01*
X15840345Y-14934023D01*
X15840341Y-14934025D01*
X15694024Y-15080342D01*
X15579058Y-15252403D01*
X15499870Y-15443579D01*
X15499868Y-15443587D01*
X15459500Y-15646530D01*
X11684344Y-15646530D01*
X10117314Y-14079500D01*
X10032399Y-14030474D01*
X10003187Y-14013608D01*
X9894593Y-13984511D01*
X9875892Y-13979500D01*
X9875891Y-13979500D01*
X9871250Y-13979500D01*
X9861500Y-13976637D01*
X9851418Y-13977904D01*
X9828539Y-13966958D01*
X9804211Y-13959815D01*
X9797557Y-13952137D01*
X9788390Y-13947751D01*
X9775059Y-13926172D01*
X9758456Y-13907011D01*
X9757010Y-13896954D01*
X9751669Y-13888309D01*
X9752120Y-13862952D01*
X9748512Y-13837853D01*
X9752766Y-13826750D01*
X9752914Y-13818450D01*
X9768146Y-13786612D01*
X9771895Y-13781001D01*
X9782178Y-13765610D01*
X9835788Y-13720805D01*
X9885281Y-13710500D01*
X14335890Y-13710500D01*
X14335892Y-13710500D01*
X14463186Y-13676392D01*
X14577314Y-13610500D01*
X15264367Y-12923445D01*
X15325690Y-12889961D01*
X15395381Y-12894945D01*
X15451315Y-12936816D01*
X15475732Y-13002281D01*
X15473666Y-13035316D01*
X15459501Y-13106534D01*
X15459500Y-13106537D01*
X15459500Y-13313469D01*
X15499868Y-13516412D01*
X15499870Y-13516420D01*
X15575082Y-13697998D01*
X15579059Y-13707598D01*
X15628105Y-13781001D01*
X15694024Y-13879657D01*
X15840342Y-14025975D01*
X15840345Y-14025977D01*
X16012402Y-14140941D01*
X16203580Y-14220130D01*
X16406530Y-14260499D01*
X16406534Y-14260500D01*
X16406535Y-14260500D01*
X16613466Y-14260500D01*
X16613467Y-14260499D01*
X16816420Y-14220130D01*
X17007598Y-14140941D01*
X17179655Y-14025977D01*
X17325977Y-13879655D01*
X17440941Y-13707598D01*
X17520130Y-13516420D01*
X17560500Y-13313465D01*
X17560500Y-13106535D01*
X17520130Y-12903580D01*
X17440941Y-12712402D01*
X17440940Y-12712400D01*
X17440940Y-12712399D01*
X17388148Y-12633390D01*
X17367270Y-12566713D01*
X17385755Y-12499333D01*
X17437734Y-12452643D01*
X17491250Y-12440500D01*
X17630890Y-12440500D01*
X17630892Y-12440500D01*
X17758186Y-12406392D01*
X17856492Y-12349635D01*
X19874500Y-12349635D01*
X19874500Y-13245370D01*
X19874501Y-13245376D01*
X19880908Y-13304983D01*
X19931202Y-13439828D01*
X19931206Y-13439835D01*
X20017452Y-13555044D01*
X20017455Y-13555047D01*
X20132664Y-13641293D01*
X20132671Y-13641297D01*
X20177618Y-13658061D01*
X20267517Y-13691591D01*
X20327127Y-13698000D01*
X20375500Y-13697999D01*
X20384185Y-13700549D01*
X20393147Y-13699261D01*
X20417183Y-13710238D01*
X20442537Y-13717682D01*
X20448466Y-13724524D01*
X20456703Y-13728286D01*
X20470989Y-13750516D01*
X20488293Y-13770485D01*
X20490580Y-13781001D01*
X20494477Y-13787064D01*
X20499500Y-13821999D01*
X20499500Y-13933000D01*
X20479815Y-14000039D01*
X20427011Y-14045794D01*
X20375500Y-14057000D01*
X20327128Y-14057000D01*
X20327120Y-14057000D01*
X20327117Y-14057001D01*
X20267518Y-14063408D01*
X20132672Y-14113702D01*
X20132670Y-14113704D01*
X20017454Y-14199954D01*
X19931204Y-14315170D01*
X19931202Y-14315172D01*
X19880908Y-14450018D01*
X19874501Y-14509617D01*
X19874500Y-14509636D01*
X19874500Y-15530363D01*
X19874501Y-15530382D01*
X19880908Y-15589981D01*
X19931202Y-15724827D01*
X19931203Y-15724828D01*
X19931204Y-15724830D01*
X20017454Y-15840046D01*
X20132670Y-15926296D01*
X20132671Y-15926296D01*
X20132672Y-15926297D01*
X20267518Y-15976591D01*
X20267517Y-15976591D01*
X20274445Y-15977335D01*
X20327128Y-15983000D01*
X20327137Y-15983000D01*
X21672863Y-15983000D01*
X21672872Y-15983000D01*
X21732482Y-15976591D01*
X21867330Y-15926296D01*
X21982546Y-15840046D01*
X22068796Y-15724830D01*
X22119091Y-15589982D01*
X22125500Y-15530372D01*
X22125500Y-14509628D01*
X22119091Y-14450018D01*
X22068796Y-14315170D01*
X21982546Y-14199954D01*
X21867330Y-14113704D01*
X21867328Y-14113703D01*
X21867327Y-14113702D01*
X21732481Y-14063408D01*
X21732482Y-14063408D01*
X21672882Y-14057001D01*
X21672880Y-14057000D01*
X21672872Y-14057000D01*
X21672864Y-14057000D01*
X21624500Y-14057000D01*
X21615814Y-14054449D01*
X21606853Y-14055738D01*
X21582812Y-14044759D01*
X21557461Y-14037315D01*
X21551533Y-14030474D01*
X21543297Y-14026713D01*
X21529007Y-14004478D01*
X21511706Y-13984511D01*
X21509418Y-13973996D01*
X21505523Y-13967935D01*
X21500500Y-13933000D01*
X21500500Y-13821999D01*
X21520185Y-13754960D01*
X21572989Y-13709205D01*
X21624500Y-13697999D01*
X21672871Y-13697999D01*
X21672872Y-13697999D01*
X21732483Y-13691591D01*
X21867331Y-13641296D01*
X21982546Y-13555046D01*
X22068796Y-13439831D01*
X22119091Y-13304983D01*
X22125500Y-13245373D01*
X22125499Y-12349628D01*
X22119091Y-12290017D01*
X22118898Y-12289500D01*
X22068797Y-12155171D01*
X22068793Y-12155164D01*
X21982547Y-12039955D01*
X21982544Y-12039952D01*
X21867335Y-11953706D01*
X21867328Y-11953702D01*
X21732482Y-11903408D01*
X21732483Y-11903408D01*
X21672883Y-11897001D01*
X21672881Y-11897000D01*
X21672873Y-11897000D01*
X21672864Y-11897000D01*
X20327129Y-11897000D01*
X20327123Y-11897001D01*
X20267516Y-11903408D01*
X20132671Y-11953702D01*
X20132664Y-11953706D01*
X20017455Y-12039952D01*
X20017452Y-12039955D01*
X19931206Y-12155164D01*
X19931202Y-12155171D01*
X19880908Y-12290017D01*
X19875481Y-12340499D01*
X19874501Y-12349623D01*
X19874500Y-12349635D01*
X17856492Y-12349635D01*
X17872314Y-12340500D01*
X19307300Y-10905513D01*
X23749500Y-10905513D01*
X23749500Y-11094486D01*
X23779059Y-11281118D01*
X23837454Y-11460836D01*
X23877536Y-11539500D01*
X23923240Y-11629199D01*
X24034310Y-11782073D01*
X24167927Y-11915690D01*
X24320801Y-12026760D01*
X24346692Y-12039952D01*
X24489163Y-12112545D01*
X24489165Y-12112545D01*
X24489168Y-12112547D01*
X24585497Y-12143846D01*
X24668881Y-12170940D01*
X24855514Y-12200500D01*
X24855519Y-12200500D01*
X26344486Y-12200500D01*
X26531118Y-12170940D01*
X26534580Y-12169815D01*
X26710832Y-12112547D01*
X26879199Y-12026760D01*
X27032073Y-11915690D01*
X27165690Y-11782073D01*
X27276760Y-11629199D01*
X27362547Y-11460832D01*
X27420940Y-11281118D01*
X27422139Y-11273545D01*
X27450500Y-11094486D01*
X27450500Y-10905513D01*
X36249500Y-10905513D01*
X36249500Y-11094486D01*
X36279059Y-11281118D01*
X36337454Y-11460836D01*
X36377536Y-11539500D01*
X36423240Y-11629199D01*
X36534310Y-11782073D01*
X36667927Y-11915690D01*
X36820801Y-12026760D01*
X36846692Y-12039952D01*
X36989163Y-12112545D01*
X36989165Y-12112545D01*
X36989168Y-12112547D01*
X37085497Y-12143846D01*
X37168881Y-12170940D01*
X37355514Y-12200500D01*
X37355519Y-12200500D01*
X38844486Y-12200500D01*
X39031118Y-12170940D01*
X39034580Y-12169815D01*
X39210832Y-12112547D01*
X39379199Y-12026760D01*
X39532073Y-11915690D01*
X39665690Y-11782073D01*
X39776760Y-11629199D01*
X39862547Y-11460832D01*
X39920940Y-11281118D01*
X39922139Y-11273545D01*
X39950500Y-11094486D01*
X39950500Y-10905513D01*
X39920940Y-10718881D01*
X39871439Y-10566534D01*
X39862547Y-10539168D01*
X39862545Y-10539165D01*
X39862545Y-10539163D01*
X39802384Y-10421092D01*
X39776760Y-10370801D01*
X39665690Y-10217927D01*
X39532073Y-10084310D01*
X39379199Y-9973240D01*
X39210836Y-9887454D01*
X39031118Y-9829059D01*
X38844486Y-9799500D01*
X38844481Y-9799500D01*
X37355519Y-9799500D01*
X37355514Y-9799500D01*
X37168881Y-9829059D01*
X36989163Y-9887454D01*
X36820800Y-9973240D01*
X36783498Y-10000342D01*
X36667927Y-10084310D01*
X36667925Y-10084312D01*
X36667924Y-10084312D01*
X36534312Y-10217924D01*
X36534312Y-10217925D01*
X36534310Y-10217927D01*
X36486610Y-10283579D01*
X36423240Y-10370800D01*
X36337454Y-10539163D01*
X36279059Y-10718881D01*
X36249500Y-10905513D01*
X27450500Y-10905513D01*
X27420940Y-10718881D01*
X27371439Y-10566534D01*
X27362547Y-10539168D01*
X27362545Y-10539165D01*
X27362545Y-10539163D01*
X27302384Y-10421092D01*
X27276760Y-10370801D01*
X27165690Y-10217927D01*
X27032073Y-10084310D01*
X26879199Y-9973240D01*
X26710836Y-9887454D01*
X26531118Y-9829059D01*
X26344486Y-9799500D01*
X26344481Y-9799500D01*
X24855519Y-9799500D01*
X24855514Y-9799500D01*
X24668881Y-9829059D01*
X24489163Y-9887454D01*
X24320800Y-9973240D01*
X24283498Y-10000342D01*
X24167927Y-10084310D01*
X24167925Y-10084312D01*
X24167924Y-10084312D01*
X24034312Y-10217924D01*
X24034312Y-10217925D01*
X24034310Y-10217927D01*
X23986610Y-10283579D01*
X23923240Y-10370800D01*
X23837454Y-10539163D01*
X23779059Y-10718881D01*
X23749500Y-10905513D01*
X19307300Y-10905513D01*
X19805091Y-10407721D01*
X19866412Y-10374238D01*
X19936104Y-10379222D01*
X19992036Y-10421092D01*
X20017455Y-10455047D01*
X20132664Y-10541293D01*
X20132671Y-10541297D01*
X20267517Y-10591591D01*
X20267516Y-10591591D01*
X20274444Y-10592335D01*
X20327127Y-10598000D01*
X21672872Y-10597999D01*
X21732483Y-10591591D01*
X21867331Y-10541296D01*
X21982546Y-10455046D01*
X22068796Y-10339831D01*
X22119091Y-10204983D01*
X22125500Y-10145373D01*
X22125499Y-9249628D01*
X22119091Y-9190017D01*
X22115541Y-9180500D01*
X22068797Y-9055171D01*
X22068793Y-9055164D01*
X21982547Y-8939955D01*
X21982544Y-8939952D01*
X21867335Y-8853706D01*
X21867328Y-8853702D01*
X21732482Y-8803408D01*
X21732483Y-8803408D01*
X21672883Y-8797001D01*
X21672881Y-8797000D01*
X21672873Y-8797000D01*
X21672864Y-8797000D01*
X20327129Y-8797000D01*
X20327123Y-8797001D01*
X20267516Y-8803408D01*
X20132671Y-8853702D01*
X20132664Y-8853706D01*
X20017455Y-8939952D01*
X20017452Y-8939955D01*
X19931206Y-9055164D01*
X19931202Y-9055171D01*
X19908391Y-9116333D01*
X19866520Y-9172267D01*
X19801056Y-9196684D01*
X19792209Y-9197000D01*
X19741608Y-9197000D01*
X19614312Y-9231108D01*
X19500186Y-9297000D01*
X19500183Y-9297002D01*
X17734527Y-11062658D01*
X17673204Y-11096143D01*
X17603512Y-11091159D01*
X17547579Y-11049287D01*
X17523162Y-10983823D01*
X17525229Y-10950786D01*
X17560499Y-10773468D01*
X17560500Y-10773466D01*
X17560500Y-10566534D01*
X17560499Y-10566530D01*
X17538324Y-10455047D01*
X17520130Y-10363580D01*
X17440941Y-10172402D01*
X17325977Y-10000345D01*
X17325975Y-10000342D01*
X17179657Y-9854024D01*
X17048397Y-9766320D01*
X17007598Y-9739059D01*
X16816420Y-9659870D01*
X16816412Y-9659868D01*
X16613469Y-9619500D01*
X16613465Y-9619500D01*
X16406535Y-9619500D01*
X16406530Y-9619500D01*
X16203587Y-9659868D01*
X16203579Y-9659870D01*
X16012403Y-9739058D01*
X15840342Y-9854024D01*
X15694024Y-10000342D01*
X15579058Y-10172403D01*
X15499870Y-10363579D01*
X15499868Y-10363587D01*
X15459500Y-10566530D01*
X15459500Y-10773469D01*
X15499868Y-10976412D01*
X15499870Y-10976420D01*
X15579059Y-11167599D01*
X15579059Y-11167600D01*
X15631852Y-11246610D01*
X15652730Y-11313287D01*
X15634245Y-11380667D01*
X15582266Y-11427357D01*
X15528750Y-11439500D01*
X15474107Y-11439500D01*
X15394495Y-11460831D01*
X15394495Y-11460832D01*
X15346814Y-11473608D01*
X15346813Y-11473608D01*
X15346811Y-11473609D01*
X15232686Y-11539500D01*
X15232683Y-11539502D01*
X14099005Y-12673181D01*
X14037682Y-12706666D01*
X14011324Y-12709500D01*
X9885281Y-12709500D01*
X9818242Y-12689815D01*
X9782180Y-12654392D01*
X9705977Y-12540345D01*
X9705975Y-12540342D01*
X9559657Y-12394024D01*
X9403224Y-12289500D01*
X9387598Y-12279059D01*
X9338266Y-12258625D01*
X9196420Y-12199870D01*
X9196412Y-12199868D01*
X8993469Y-12159500D01*
X8993465Y-12159500D01*
X8786535Y-12159500D01*
X8786530Y-12159500D01*
X8583587Y-12199868D01*
X8583579Y-12199870D01*
X8392403Y-12279058D01*
X8220342Y-12394024D01*
X8074024Y-12540342D01*
X7959058Y-12712403D01*
X7879870Y-12903579D01*
X7879868Y-12903587D01*
X7839500Y-13106530D01*
X7839500Y-13313469D01*
X7863597Y-13434613D01*
X7857370Y-13504205D01*
X7814507Y-13559382D01*
X7748617Y-13582626D01*
X7680620Y-13566558D01*
X7654299Y-13546485D01*
X4674344Y-10566530D01*
X7839500Y-10566530D01*
X7839500Y-10773469D01*
X7874771Y-10950786D01*
X7879870Y-10976420D01*
X7959059Y-11167598D01*
X7987515Y-11210185D01*
X8074024Y-11339657D01*
X8220342Y-11485975D01*
X8220345Y-11485977D01*
X8392402Y-11600941D01*
X8583580Y-11680130D01*
X8786530Y-11720499D01*
X8786534Y-11720500D01*
X8786535Y-11720500D01*
X8993466Y-11720500D01*
X8993467Y-11720499D01*
X9196420Y-11680130D01*
X9387598Y-11600941D01*
X9559655Y-11485977D01*
X9705977Y-11339655D01*
X9820941Y-11167598D01*
X9900130Y-10976420D01*
X9940500Y-10773465D01*
X9940500Y-10566535D01*
X9900130Y-10363580D01*
X9820941Y-10172402D01*
X9705977Y-10000345D01*
X9705975Y-10000342D01*
X9559657Y-9854024D01*
X9428397Y-9766320D01*
X9387598Y-9739059D01*
X9196420Y-9659870D01*
X9196412Y-9659868D01*
X8993469Y-9619500D01*
X8993465Y-9619500D01*
X8786535Y-9619500D01*
X8786530Y-9619500D01*
X8583587Y-9659868D01*
X8583579Y-9659870D01*
X8392403Y-9739058D01*
X8220342Y-9854024D01*
X8074024Y-10000342D01*
X7959058Y-10172403D01*
X7879870Y-10363579D01*
X7879868Y-10363587D01*
X7839500Y-10566530D01*
X4674344Y-10566530D01*
X4397316Y-10289502D01*
X4397314Y-10289500D01*
X4340250Y-10256554D01*
X4283187Y-10223608D01*
X4213672Y-10204982D01*
X4155892Y-10189500D01*
X4155891Y-10189500D01*
X2797606Y-10189500D01*
X2730567Y-10169815D01*
X2684812Y-10117011D01*
X2680569Y-10106468D01*
X2656299Y-10037107D01*
X2609163Y-9973240D01*
X2577356Y-9930143D01*
X2474218Y-9854024D01*
X2470393Y-9851201D01*
X2344913Y-9807294D01*
X2344910Y-9807293D01*
X2344191Y-9807042D01*
X2287415Y-9766320D01*
X2261668Y-9701367D01*
X2275124Y-9632806D01*
X2323511Y-9582403D01*
X2344191Y-9572958D01*
X2344910Y-9572706D01*
X2344913Y-9572706D01*
X2470393Y-9528799D01*
X2577356Y-9449856D01*
X2656299Y-9342893D01*
X2680565Y-9273543D01*
X2721286Y-9216769D01*
X2786239Y-9191022D01*
X2797606Y-9190500D01*
X3547276Y-9190500D01*
X3547278Y-9190500D01*
X3674572Y-9156392D01*
X3788700Y-9090500D01*
X3972381Y-8906819D01*
X4033704Y-8873334D01*
X4060062Y-8870500D01*
X4133920Y-8870500D01*
X4231462Y-8851096D01*
X4278913Y-8841658D01*
X4415495Y-8785084D01*
X4538416Y-8702951D01*
X4642951Y-8598416D01*
X4725084Y-8475495D01*
X4781658Y-8338913D01*
X4802633Y-8233466D01*
X4810500Y-8193920D01*
X4810500Y-8046079D01*
X4781659Y-7901092D01*
X4781658Y-7901091D01*
X4781658Y-7901087D01*
X4761306Y-7851952D01*
X4753837Y-7782483D01*
X4785112Y-7720004D01*
X4845201Y-7684352D01*
X4875867Y-7680500D01*
X5984267Y-7680500D01*
X6051306Y-7700185D01*
X6071949Y-7716820D01*
X6119828Y-7764700D01*
X6119832Y-7764703D01*
X6242746Y-7846832D01*
X6242759Y-7846839D01*
X6373727Y-7901087D01*
X6379335Y-7903410D01*
X6379339Y-7903410D01*
X6379340Y-7903411D01*
X6524327Y-7932252D01*
X6524330Y-7932252D01*
X6672168Y-7932252D01*
X6769710Y-7912848D01*
X6817161Y-7903410D01*
X6953743Y-7846836D01*
X7076664Y-7764703D01*
X7181199Y-7660168D01*
X7263332Y-7537247D01*
X7287827Y-7478110D01*
X7331665Y-7423708D01*
X7397959Y-7401642D01*
X7465658Y-7418920D01*
X7490068Y-7437882D01*
X7832322Y-7780136D01*
X7865807Y-7841459D01*
X7866258Y-7892008D01*
X7839500Y-8026530D01*
X7839500Y-8233469D01*
X7879868Y-8436412D01*
X7879870Y-8436420D01*
X7959058Y-8627596D01*
X8074024Y-8799657D01*
X8220342Y-8945975D01*
X8220345Y-8945977D01*
X8392402Y-9060941D01*
X8583580Y-9140130D01*
X8745145Y-9172267D01*
X8786530Y-9180499D01*
X8786534Y-9180500D01*
X8786535Y-9180500D01*
X8993466Y-9180500D01*
X8993467Y-9180499D01*
X9196420Y-9140130D01*
X9387598Y-9060941D01*
X9559655Y-8945977D01*
X9705977Y-8799655D01*
X9820941Y-8627598D01*
X9900130Y-8436420D01*
X9940500Y-8233465D01*
X9940500Y-8026535D01*
X9900130Y-7823580D01*
X9820941Y-7632402D01*
X9705977Y-7460345D01*
X9705975Y-7460342D01*
X9559657Y-7314024D01*
X9404249Y-7210185D01*
X9387598Y-7199059D01*
X9364827Y-7189627D01*
X9196420Y-7119870D01*
X9196412Y-7119868D01*
X8993469Y-7079500D01*
X8993465Y-7079500D01*
X8786535Y-7079500D01*
X8786530Y-7079500D01*
X8652008Y-7106258D01*
X8582416Y-7100031D01*
X8540136Y-7072322D01*
X8066188Y-6598374D01*
X8032703Y-6537051D01*
X8037687Y-6467359D01*
X8079559Y-6411426D01*
X8145023Y-6387009D01*
X8213296Y-6401861D01*
X8222759Y-6407590D01*
X8392402Y-6520941D01*
X8583580Y-6600130D01*
X8786530Y-6640499D01*
X8786534Y-6640500D01*
X8786535Y-6640500D01*
X8993466Y-6640500D01*
X8993467Y-6640499D01*
X9196420Y-6600130D01*
X9387598Y-6520941D01*
X9559655Y-6405977D01*
X9705977Y-6259655D01*
X9820941Y-6087598D01*
X9900130Y-5896420D01*
X9940500Y-5693465D01*
X9940500Y-5486535D01*
X9900130Y-5283580D01*
X9820941Y-5092402D01*
X9710436Y-4927019D01*
X9689560Y-4860343D01*
X9708045Y-4792963D01*
X9760024Y-4746273D01*
X9828994Y-4735097D01*
X9893058Y-4762983D01*
X9901221Y-4770449D01*
X12298086Y-7167314D01*
X12391272Y-7260500D01*
X12505400Y-7326392D01*
X12632694Y-7360500D01*
X15528750Y-7360500D01*
X15595789Y-7380185D01*
X15641544Y-7432989D01*
X15651488Y-7502147D01*
X15631852Y-7553390D01*
X15579059Y-7632399D01*
X15579059Y-7632400D01*
X15499870Y-7823579D01*
X15499868Y-7823587D01*
X15459500Y-8026530D01*
X15459500Y-8233469D01*
X15499868Y-8436412D01*
X15499870Y-8436420D01*
X15579058Y-8627596D01*
X15694024Y-8799657D01*
X15840342Y-8945975D01*
X15840345Y-8945977D01*
X16012402Y-9060941D01*
X16203580Y-9140130D01*
X16365145Y-9172267D01*
X16406530Y-9180499D01*
X16406534Y-9180500D01*
X16406535Y-9180500D01*
X16613466Y-9180500D01*
X16613467Y-9180499D01*
X16816420Y-9140130D01*
X17007598Y-9060941D01*
X17179655Y-8945977D01*
X17325977Y-8799655D01*
X17440941Y-8627598D01*
X17520130Y-8436420D01*
X17560500Y-8233465D01*
X17560500Y-8026535D01*
X17520130Y-7823580D01*
X17440941Y-7632402D01*
X17371590Y-7528610D01*
X17350713Y-7461933D01*
X17369198Y-7394553D01*
X17421177Y-7347863D01*
X17442593Y-7339947D01*
X17493186Y-7326392D01*
X17607314Y-7260500D01*
X19728698Y-5139115D01*
X19790019Y-5105632D01*
X19859711Y-5110616D01*
X19915644Y-5152488D01*
X19926467Y-5172310D01*
X19926953Y-5172046D01*
X19931206Y-5179835D01*
X20017452Y-5295044D01*
X20017455Y-5295047D01*
X20132664Y-5381293D01*
X20132671Y-5381297D01*
X20177618Y-5398061D01*
X20267517Y-5431591D01*
X20327127Y-5438000D01*
X20327162Y-5437999D01*
X20327725Y-5438031D01*
X20327856Y-5438077D01*
X20330429Y-5438354D01*
X20330363Y-5438961D01*
X20393617Y-5461271D01*
X20436484Y-5516445D01*
X20442716Y-5586037D01*
X20424200Y-5630744D01*
X20374918Y-5704500D01*
X20374912Y-5704511D01*
X20318343Y-5841082D01*
X20318340Y-5841092D01*
X20289500Y-5986079D01*
X20289500Y-5986082D01*
X20289500Y-6133918D01*
X20289500Y-6133920D01*
X20289499Y-6133920D01*
X20318340Y-6278907D01*
X20318343Y-6278917D01*
X20374912Y-6415488D01*
X20374919Y-6415501D01*
X20460433Y-6543481D01*
X20458202Y-6544971D01*
X20481005Y-6598573D01*
X20469254Y-6667448D01*
X20422132Y-6719035D01*
X20357851Y-6737000D01*
X20327131Y-6737000D01*
X20327123Y-6737001D01*
X20267516Y-6743408D01*
X20132671Y-6793702D01*
X20132664Y-6793706D01*
X20017455Y-6879952D01*
X20017452Y-6879955D01*
X19931206Y-6995164D01*
X19931202Y-6995171D01*
X19880908Y-7130017D01*
X19876899Y-7167314D01*
X19874501Y-7189623D01*
X19874500Y-7189635D01*
X19874500Y-8085370D01*
X19874501Y-8085376D01*
X19880908Y-8144983D01*
X19931202Y-8279828D01*
X19931206Y-8279835D01*
X20017452Y-8395044D01*
X20017455Y-8395047D01*
X20132664Y-8481293D01*
X20132671Y-8481297D01*
X20267517Y-8531591D01*
X20267516Y-8531591D01*
X20274444Y-8532335D01*
X20327127Y-8538000D01*
X21672872Y-8537999D01*
X21732483Y-8531591D01*
X21867331Y-8481296D01*
X21982546Y-8395046D01*
X22068796Y-8279831D01*
X22119091Y-8144983D01*
X22125500Y-8085373D01*
X22125499Y-7189628D01*
X22119091Y-7130017D01*
X22115306Y-7119870D01*
X22068797Y-6995171D01*
X22068793Y-6995164D01*
X21982547Y-6879955D01*
X21982544Y-6879952D01*
X21867335Y-6793706D01*
X21867328Y-6793702D01*
X21732483Y-6743408D01*
X21705439Y-6740501D01*
X21640889Y-6713763D01*
X21601041Y-6656370D01*
X21598548Y-6586544D01*
X21620151Y-6543871D01*
X21619567Y-6543481D01*
X21622792Y-6538654D01*
X21622852Y-6538536D01*
X21622941Y-6538425D01*
X21622951Y-6538416D01*
X21705084Y-6415495D01*
X21706770Y-6411426D01*
X21760886Y-6280777D01*
X21760886Y-6280776D01*
X21760887Y-6280775D01*
X21761656Y-6278918D01*
X21761656Y-6278917D01*
X21761658Y-6278913D01*
X21779444Y-6189500D01*
X21790500Y-6133920D01*
X21790500Y-5986079D01*
X21761659Y-5841092D01*
X21761658Y-5841091D01*
X21761658Y-5841087D01*
X21705084Y-5704505D01*
X21668664Y-5649999D01*
X23539102Y-5649999D01*
X23539102Y-5650000D01*
X25052115Y-5650000D01*
X25023978Y-5692110D01*
X24974979Y-5810402D01*
X24950000Y-5935981D01*
X24950000Y-6064019D01*
X24974979Y-6189598D01*
X25023978Y-6307890D01*
X25052115Y-6350000D01*
X23539102Y-6350000D01*
X23606230Y-6556604D01*
X23606231Y-6556607D01*
X23709849Y-6759966D01*
X23844004Y-6944614D01*
X24005385Y-7105995D01*
X24190033Y-7240150D01*
X24393395Y-7343769D01*
X24610455Y-7414295D01*
X24835884Y-7450000D01*
X25250000Y-7450000D01*
X25250000Y-6547885D01*
X25292110Y-6576022D01*
X25410402Y-6625021D01*
X25535981Y-6650000D01*
X25664019Y-6650000D01*
X25789598Y-6625021D01*
X25907890Y-6576022D01*
X25950000Y-6547885D01*
X25950000Y-7450000D01*
X26364116Y-7450000D01*
X26589544Y-7414295D01*
X26806604Y-7343769D01*
X27009966Y-7240150D01*
X27194614Y-7105995D01*
X27355995Y-6944614D01*
X27490150Y-6759966D01*
X27593768Y-6556607D01*
X27593769Y-6556604D01*
X27660898Y-6350000D01*
X26147885Y-6350000D01*
X26176022Y-6307890D01*
X26225021Y-6189598D01*
X26250000Y-6064019D01*
X26250000Y-5935981D01*
X26225021Y-5810402D01*
X26176022Y-5692110D01*
X26147885Y-5650000D01*
X27660898Y-5650000D01*
X27660897Y-5649999D01*
X36039102Y-5649999D01*
X36039102Y-5650000D01*
X37552115Y-5650000D01*
X37523978Y-5692110D01*
X37474979Y-5810402D01*
X37450000Y-5935981D01*
X37450000Y-6064019D01*
X37474979Y-6189598D01*
X37523978Y-6307890D01*
X37552115Y-6350000D01*
X36039102Y-6350000D01*
X36106230Y-6556604D01*
X36106231Y-6556607D01*
X36209849Y-6759966D01*
X36344004Y-6944614D01*
X36505385Y-7105995D01*
X36690033Y-7240150D01*
X36893395Y-7343769D01*
X37110455Y-7414295D01*
X37335884Y-7450000D01*
X37750000Y-7450000D01*
X37750000Y-6547885D01*
X37792110Y-6576022D01*
X37910402Y-6625021D01*
X38035981Y-6650000D01*
X38164019Y-6650000D01*
X38289598Y-6625021D01*
X38407890Y-6576022D01*
X38450000Y-6547885D01*
X38450000Y-7450000D01*
X38864116Y-7450000D01*
X39089544Y-7414295D01*
X39306604Y-7343769D01*
X39509966Y-7240150D01*
X39694614Y-7105995D01*
X39855995Y-6944614D01*
X39990150Y-6759966D01*
X40093768Y-6556607D01*
X40093769Y-6556604D01*
X40160898Y-6350000D01*
X38647885Y-6350000D01*
X38676022Y-6307890D01*
X38725021Y-6189598D01*
X38750000Y-6064019D01*
X38750000Y-5935981D01*
X38725021Y-5810402D01*
X38676022Y-5692110D01*
X38647885Y-5650000D01*
X40160898Y-5650000D01*
X40160897Y-5649999D01*
X40093769Y-5443395D01*
X40093768Y-5443392D01*
X39990150Y-5240033D01*
X39855995Y-5055385D01*
X39694614Y-4894004D01*
X39509966Y-4759849D01*
X39306604Y-4656230D01*
X39089544Y-4585704D01*
X38864116Y-4550000D01*
X38450000Y-4550000D01*
X38450000Y-5452114D01*
X38407890Y-5423978D01*
X38289598Y-5374979D01*
X38164019Y-5350000D01*
X38035981Y-5350000D01*
X37910402Y-5374979D01*
X37792110Y-5423978D01*
X37750000Y-5452114D01*
X37750000Y-4550000D01*
X37335884Y-4550000D01*
X37110455Y-4585704D01*
X36893395Y-4656230D01*
X36690033Y-4759849D01*
X36505385Y-4894004D01*
X36344004Y-5055385D01*
X36209849Y-5240033D01*
X36106231Y-5443392D01*
X36106230Y-5443395D01*
X36039102Y-5649999D01*
X27660897Y-5649999D01*
X27593769Y-5443395D01*
X27593768Y-5443392D01*
X27490150Y-5240033D01*
X27355995Y-5055385D01*
X27194614Y-4894004D01*
X27009966Y-4759849D01*
X26806604Y-4656230D01*
X26589544Y-4585704D01*
X26364116Y-4550000D01*
X25950000Y-4550000D01*
X25950000Y-5452114D01*
X25907890Y-5423978D01*
X25789598Y-5374979D01*
X25664019Y-5350000D01*
X25535981Y-5350000D01*
X25410402Y-5374979D01*
X25292110Y-5423978D01*
X25250000Y-5452114D01*
X25250000Y-4550000D01*
X24835884Y-4550000D01*
X24610455Y-4585704D01*
X24393395Y-4656230D01*
X24190033Y-4759849D01*
X24005385Y-4894004D01*
X23844004Y-5055385D01*
X23709849Y-5240033D01*
X23606231Y-5443392D01*
X23606230Y-5443395D01*
X23539102Y-5649999D01*
X21668664Y-5649999D01*
X21649174Y-5620830D01*
X21647895Y-5618740D01*
X21639406Y-5587294D01*
X21629675Y-5556217D01*
X21630351Y-5553752D01*
X21629685Y-5551285D01*
X21639542Y-5520245D01*
X21648159Y-5488837D01*
X21650060Y-5487129D01*
X21650834Y-5484693D01*
X21675908Y-5463910D01*
X21700138Y-5442146D01*
X21703672Y-5440899D01*
X21704628Y-5440107D01*
X21706595Y-5439867D01*
X21725141Y-5433326D01*
X21732483Y-5431591D01*
X21752407Y-5424160D01*
X21867331Y-5381296D01*
X21982546Y-5295046D01*
X22068796Y-5179831D01*
X22119091Y-5044983D01*
X22125500Y-4985373D01*
X22125499Y-4089628D01*
X22119091Y-4030017D01*
X22117472Y-4025677D01*
X22068797Y-3895171D01*
X22068793Y-3895164D01*
X21982547Y-3779955D01*
X21982544Y-3779952D01*
X21867335Y-3693706D01*
X21867328Y-3693702D01*
X21732482Y-3643408D01*
X21732483Y-3643408D01*
X21672883Y-3637001D01*
X21672881Y-3637000D01*
X21672873Y-3637000D01*
X21672865Y-3637000D01*
X21548446Y-3637000D01*
X21481407Y-3617315D01*
X21435652Y-3564511D01*
X21425708Y-3495353D01*
X21454733Y-3431797D01*
X21492151Y-3402515D01*
X21635405Y-3329524D01*
X21794646Y-3213828D01*
X21933828Y-3074646D01*
X22049524Y-2915405D01*
X22138884Y-2740025D01*
X22199709Y-2552826D01*
X22211239Y-2480029D01*
X22230500Y-2358422D01*
X22230500Y-2161577D01*
X22199709Y-1967173D01*
X22147975Y-1807955D01*
X22138884Y-1779975D01*
X22138882Y-1779972D01*
X22138882Y-1779970D01*
X22049523Y-1604594D01*
X21933828Y-1445354D01*
X21794646Y-1306172D01*
X21635405Y-1190476D01*
X21460029Y-1101117D01*
X21272826Y-1040290D01*
X21078422Y-1009500D01*
X21078417Y-1009500D01*
X20881583Y-1009500D01*
X20881578Y-1009500D01*
X20687173Y-1040290D01*
X20499970Y-1101117D01*
X20324594Y-1190476D01*
X20233741Y-1256485D01*
X20165354Y-1306172D01*
X20165352Y-1306174D01*
X20165351Y-1306174D01*
X20026174Y-1445351D01*
X20026174Y-1445352D01*
X20026172Y-1445354D01*
X19976485Y-1513741D01*
X19910476Y-1604594D01*
X19821117Y-1779970D01*
X19760290Y-1967173D01*
X19729500Y-2161577D01*
X19729500Y-2358422D01*
X19760290Y-2552826D01*
X19821117Y-2740029D01*
X19910476Y-2915405D01*
X20026172Y-3074646D01*
X20165354Y-3213828D01*
X20284784Y-3300600D01*
X20324596Y-3329525D01*
X20467849Y-3402515D01*
X20518646Y-3450489D01*
X20535441Y-3518310D01*
X20512904Y-3584445D01*
X20458189Y-3627897D01*
X20411556Y-3637000D01*
X20327130Y-3637000D01*
X20327123Y-3637001D01*
X20267516Y-3643408D01*
X20132671Y-3693702D01*
X20132664Y-3693706D01*
X20017455Y-3779952D01*
X20017452Y-3779955D01*
X19931206Y-3895164D01*
X19931202Y-3895171D01*
X19908391Y-3956333D01*
X19866520Y-4012267D01*
X19801056Y-4036684D01*
X19792209Y-4037000D01*
X19556608Y-4037000D01*
X19429312Y-4071108D01*
X19315186Y-4137000D01*
X19315183Y-4137002D01*
X17772181Y-5680004D01*
X17710858Y-5713489D01*
X17641166Y-5708505D01*
X17585233Y-5666633D01*
X17560816Y-5601169D01*
X17560500Y-5592323D01*
X17560500Y-5486534D01*
X17560499Y-5486530D01*
X17551918Y-5443392D01*
X17520130Y-5283580D01*
X17440941Y-5092402D01*
X17325977Y-4920345D01*
X17325975Y-4920342D01*
X17179657Y-4774024D01*
X17019731Y-4667166D01*
X17007598Y-4659059D01*
X17000768Y-4656230D01*
X16816420Y-4579870D01*
X16816412Y-4579868D01*
X16613469Y-4539500D01*
X16613465Y-4539500D01*
X16406535Y-4539500D01*
X16406530Y-4539500D01*
X16203587Y-4579868D01*
X16203579Y-4579870D01*
X16012403Y-4659058D01*
X15840342Y-4774024D01*
X15694024Y-4920342D01*
X15579058Y-5092403D01*
X15499870Y-5283579D01*
X15499868Y-5283587D01*
X15459500Y-5486530D01*
X15459500Y-5693469D01*
X15499868Y-5896412D01*
X15499870Y-5896420D01*
X15579059Y-6087599D01*
X15579059Y-6087600D01*
X15631852Y-6166610D01*
X15652730Y-6233287D01*
X15634245Y-6300667D01*
X15582266Y-6347357D01*
X15528750Y-6359500D01*
X12957262Y-6359500D01*
X12890223Y-6339815D01*
X12869581Y-6323181D01*
X12031883Y-5485483D01*
X11998398Y-5424160D01*
X12003382Y-5354468D01*
X12045254Y-5298535D01*
X12072112Y-5283241D01*
X12132240Y-5258335D01*
X12132240Y-5258334D01*
X12132247Y-5258332D01*
X12255168Y-5176199D01*
X12359703Y-5071664D01*
X12441836Y-4948743D01*
X12498410Y-4812161D01*
X12527252Y-4667166D01*
X12527252Y-4601923D01*
X12546937Y-4534884D01*
X12563571Y-4514242D01*
X13490994Y-3586819D01*
X13552317Y-3553334D01*
X13578675Y-3550500D01*
X15514719Y-3550500D01*
X15581758Y-3570185D01*
X15617819Y-3605607D01*
X15650864Y-3655062D01*
X15694024Y-3719657D01*
X15840342Y-3865975D01*
X15840345Y-3865977D01*
X16012402Y-3980941D01*
X16203580Y-4060130D01*
X16374315Y-4094091D01*
X16406530Y-4100499D01*
X16406534Y-4100500D01*
X16406535Y-4100500D01*
X16613466Y-4100500D01*
X16613467Y-4100499D01*
X16816420Y-4060130D01*
X17007598Y-3980941D01*
X17179655Y-3865977D01*
X17325977Y-3719655D01*
X17440941Y-3547598D01*
X17520130Y-3356420D01*
X17560500Y-3153465D01*
X17560500Y-2946535D01*
X17520130Y-2743580D01*
X17440941Y-2552402D01*
X17325977Y-2380345D01*
X17325975Y-2380342D01*
X17179657Y-2234024D01*
X17042608Y-2142452D01*
X17007598Y-2119059D01*
X16816420Y-2039870D01*
X16816412Y-2039868D01*
X16613469Y-1999500D01*
X16613465Y-1999500D01*
X16406535Y-1999500D01*
X16406530Y-1999500D01*
X16203587Y-2039868D01*
X16203579Y-2039870D01*
X16012403Y-2119058D01*
X15840342Y-2234024D01*
X15694024Y-2380342D01*
X15654292Y-2439806D01*
X15617819Y-2494391D01*
X15564210Y-2539195D01*
X15514719Y-2549500D01*
X13254107Y-2549500D01*
X13126812Y-2583608D01*
X13012686Y-2649500D01*
X13012683Y-2649502D01*
X11855757Y-3806429D01*
X11794434Y-3839914D01*
X11768076Y-3842748D01*
X11702832Y-3842748D01*
X11557844Y-3871588D01*
X11557834Y-3871591D01*
X11421263Y-3928160D01*
X11421250Y-3928167D01*
X11298336Y-4010296D01*
X11298332Y-4010299D01*
X11193803Y-4114828D01*
X11193800Y-4114832D01*
X11111671Y-4237746D01*
X11111663Y-4237761D01*
X11086757Y-4297889D01*
X11042916Y-4352292D01*
X10976621Y-4374356D01*
X10908922Y-4357076D01*
X10884516Y-4338116D01*
X9976818Y-3430418D01*
X9943333Y-3369095D01*
X9940499Y-3342737D01*
X9940499Y-2452129D01*
X9940498Y-2452123D01*
X9940497Y-2452116D01*
X9934091Y-2392517D01*
X9929551Y-2380345D01*
X9883797Y-2257671D01*
X9883793Y-2257664D01*
X9797547Y-2142455D01*
X9797544Y-2142452D01*
X9682335Y-2056206D01*
X9682328Y-2056202D01*
X9547482Y-2005908D01*
X9547483Y-2005908D01*
X9487883Y-1999501D01*
X9487881Y-1999500D01*
X9487873Y-1999500D01*
X9487864Y-1999500D01*
X8292129Y-1999500D01*
X8292123Y-1999501D01*
X8232516Y-2005908D01*
X8097671Y-2056202D01*
X8097664Y-2056206D01*
X7982455Y-2142452D01*
X7982452Y-2142455D01*
X7896206Y-2257664D01*
X7896202Y-2257671D01*
X7845908Y-2392517D01*
X7839501Y-2452116D01*
X7839501Y-2452123D01*
X7839500Y-2452135D01*
X7839500Y-3532324D01*
X7819815Y-3599363D01*
X7767011Y-3645118D01*
X7697853Y-3655062D01*
X7634297Y-3626037D01*
X7627819Y-3620005D01*
X7387316Y-3379502D01*
X7387314Y-3379500D01*
X7300755Y-3329525D01*
X7273187Y-3313608D01*
X7209539Y-3296554D01*
X7145892Y-3279500D01*
X7145891Y-3279500D01*
X6118031Y-3279500D01*
X6050992Y-3259815D01*
X6005237Y-3207011D01*
X5995293Y-3137853D01*
X6024318Y-3074297D01*
X6045145Y-3055182D01*
X6048251Y-3052925D01*
X6184646Y-2953828D01*
X6323828Y-2814646D01*
X6439524Y-2655405D01*
X6528884Y-2480025D01*
X6589709Y-2292826D01*
X6599022Y-2234024D01*
X6620500Y-2098422D01*
X6620500Y-1901577D01*
X6589709Y-1707173D01*
X6556379Y-1604595D01*
X6528884Y-1519975D01*
X6528882Y-1519972D01*
X6528882Y-1519970D01*
X6439523Y-1344594D01*
X6411609Y-1306174D01*
X6323828Y-1185354D01*
X6184646Y-1046172D01*
X6025405Y-930476D01*
X5850029Y-841117D01*
X5662826Y-780290D01*
X5468422Y-749500D01*
X5468417Y-749500D01*
X5271583Y-749500D01*
X5271578Y-749500D01*
X5077173Y-780290D01*
X4889970Y-841117D01*
X4714594Y-930476D01*
X4623741Y-996485D01*
X4555354Y-1046172D01*
X4555352Y-1046174D01*
X4555351Y-1046174D01*
X4416174Y-1185351D01*
X4416174Y-1185352D01*
X4416172Y-1185354D01*
X4412451Y-1190476D01*
X4300476Y-1344594D01*
X4211117Y-1519970D01*
X4150290Y-1707173D01*
X4119500Y-1901577D01*
X4119500Y-2098422D01*
X4150290Y-2292826D01*
X4211117Y-2480029D01*
X4297467Y-2649500D01*
X4300476Y-2655405D01*
X4416172Y-2814646D01*
X4555354Y-2953828D01*
X4687830Y-3050078D01*
X4694855Y-3055182D01*
X4737520Y-3110513D01*
X4743499Y-3180126D01*
X4710893Y-3241921D01*
X4650054Y-3276278D01*
X4621969Y-3279500D01*
X3368676Y-3279500D01*
X3301637Y-3259815D01*
X3280995Y-3243181D01*
X2739319Y-2701505D01*
X2705834Y-2640182D01*
X2703000Y-2613824D01*
X2703000Y-2192377D01*
X2700206Y-2162590D01*
X2700206Y-2162587D01*
X2656299Y-2037107D01*
X2604685Y-1967173D01*
X2577356Y-1930143D01*
X2470394Y-1851202D01*
X2470393Y-1851201D01*
X2344913Y-1807294D01*
X2344911Y-1807293D01*
X2344909Y-1807293D01*
X2315122Y-1804500D01*
X2315118Y-1804500D01*
X684882Y-1804500D01*
X684878Y-1804500D01*
X655086Y-1807293D01*
X650959Y-1808195D01*
X647830Y-1807973D01*
X647574Y-1807998D01*
X647570Y-1807955D01*
X581263Y-1803269D01*
X525295Y-1761444D01*
X500823Y-1696000D01*
X500500Y-1687051D01*
X500500Y-624500D01*
X520185Y-557461D01*
X572989Y-511706D01*
X624500Y-500500D01*
X40375500Y-500500D01*
X40442539Y-520185D01*
G37*
%TD.AperFunction*%
%TD*%
M02*
