%TF.GenerationSoftware,KiCad,Pcbnew,9.0.1*%
%TF.CreationDate,2025-06-03T10:55:25+05:30*%
%TF.ProjectId,lighting_pcb_tht,6c696768-7469-46e6-975f-7063625f7468,rev?*%
%TF.SameCoordinates,Original*%
%TF.FileFunction,Legend,Bot*%
%TF.FilePolarity,Positive*%
%FSLAX46Y46*%
G04 Gerber Fmt 4.6, Leading zero omitted, Abs format (unit mm)*
G04 Created by KiCad (PCBNEW 9.0.1) date 2025-06-03 10:55:25*
%MOMM*%
%LPD*%
G01*
G04 APERTURE LIST*
%ADD10C,0.170000*%
G04 APERTURE END LIST*
D10*
X35424302Y-4037556D02*
X34224302Y-4037556D01*
X34224302Y-4037556D02*
X34224302Y-4494699D01*
X34224302Y-4494699D02*
X34281445Y-4608984D01*
X34281445Y-4608984D02*
X34338588Y-4666127D01*
X34338588Y-4666127D02*
X34452874Y-4723270D01*
X34452874Y-4723270D02*
X34624302Y-4723270D01*
X34624302Y-4723270D02*
X34738588Y-4666127D01*
X34738588Y-4666127D02*
X34795731Y-4608984D01*
X34795731Y-4608984D02*
X34852874Y-4494699D01*
X34852874Y-4494699D02*
X34852874Y-4037556D01*
X35310017Y-5923270D02*
X35367160Y-5866127D01*
X35367160Y-5866127D02*
X35424302Y-5694699D01*
X35424302Y-5694699D02*
X35424302Y-5580413D01*
X35424302Y-5580413D02*
X35367160Y-5408984D01*
X35367160Y-5408984D02*
X35252874Y-5294699D01*
X35252874Y-5294699D02*
X35138588Y-5237556D01*
X35138588Y-5237556D02*
X34910017Y-5180413D01*
X34910017Y-5180413D02*
X34738588Y-5180413D01*
X34738588Y-5180413D02*
X34510017Y-5237556D01*
X34510017Y-5237556D02*
X34395731Y-5294699D01*
X34395731Y-5294699D02*
X34281445Y-5408984D01*
X34281445Y-5408984D02*
X34224302Y-5580413D01*
X34224302Y-5580413D02*
X34224302Y-5694699D01*
X34224302Y-5694699D02*
X34281445Y-5866127D01*
X34281445Y-5866127D02*
X34338588Y-5923270D01*
X34795731Y-6837556D02*
X34852874Y-7008984D01*
X34852874Y-7008984D02*
X34910017Y-7066127D01*
X34910017Y-7066127D02*
X35024302Y-7123270D01*
X35024302Y-7123270D02*
X35195731Y-7123270D01*
X35195731Y-7123270D02*
X35310017Y-7066127D01*
X35310017Y-7066127D02*
X35367160Y-7008984D01*
X35367160Y-7008984D02*
X35424302Y-6894699D01*
X35424302Y-6894699D02*
X35424302Y-6437556D01*
X35424302Y-6437556D02*
X34224302Y-6437556D01*
X34224302Y-6437556D02*
X34224302Y-6837556D01*
X34224302Y-6837556D02*
X34281445Y-6951842D01*
X34281445Y-6951842D02*
X34338588Y-7008984D01*
X34338588Y-7008984D02*
X34452874Y-7066127D01*
X34452874Y-7066127D02*
X34567160Y-7066127D01*
X34567160Y-7066127D02*
X34681445Y-7008984D01*
X34681445Y-7008984D02*
X34738588Y-6951842D01*
X34738588Y-6951842D02*
X34795731Y-6837556D01*
X34795731Y-6837556D02*
X34795731Y-6437556D01*
X35424302Y-8551842D02*
X34224302Y-8551842D01*
X34224302Y-8551842D02*
X34224302Y-8837556D01*
X34224302Y-8837556D02*
X34281445Y-9008985D01*
X34281445Y-9008985D02*
X34395731Y-9123270D01*
X34395731Y-9123270D02*
X34510017Y-9180413D01*
X34510017Y-9180413D02*
X34738588Y-9237556D01*
X34738588Y-9237556D02*
X34910017Y-9237556D01*
X34910017Y-9237556D02*
X35138588Y-9180413D01*
X35138588Y-9180413D02*
X35252874Y-9123270D01*
X35252874Y-9123270D02*
X35367160Y-9008985D01*
X35367160Y-9008985D02*
X35424302Y-8837556D01*
X35424302Y-8837556D02*
X35424302Y-8551842D01*
X35367160Y-10208985D02*
X35424302Y-10094699D01*
X35424302Y-10094699D02*
X35424302Y-9866128D01*
X35424302Y-9866128D02*
X35367160Y-9751842D01*
X35367160Y-9751842D02*
X35252874Y-9694699D01*
X35252874Y-9694699D02*
X34795731Y-9694699D01*
X34795731Y-9694699D02*
X34681445Y-9751842D01*
X34681445Y-9751842D02*
X34624302Y-9866128D01*
X34624302Y-9866128D02*
X34624302Y-10094699D01*
X34624302Y-10094699D02*
X34681445Y-10208985D01*
X34681445Y-10208985D02*
X34795731Y-10266128D01*
X34795731Y-10266128D02*
X34910017Y-10266128D01*
X34910017Y-10266128D02*
X35024302Y-9694699D01*
X35367160Y-10723270D02*
X35424302Y-10837556D01*
X35424302Y-10837556D02*
X35424302Y-11066127D01*
X35424302Y-11066127D02*
X35367160Y-11180413D01*
X35367160Y-11180413D02*
X35252874Y-11237556D01*
X35252874Y-11237556D02*
X35195731Y-11237556D01*
X35195731Y-11237556D02*
X35081445Y-11180413D01*
X35081445Y-11180413D02*
X35024302Y-11066127D01*
X35024302Y-11066127D02*
X35024302Y-10894699D01*
X35024302Y-10894699D02*
X34967160Y-10780413D01*
X34967160Y-10780413D02*
X34852874Y-10723270D01*
X34852874Y-10723270D02*
X34795731Y-10723270D01*
X34795731Y-10723270D02*
X34681445Y-10780413D01*
X34681445Y-10780413D02*
X34624302Y-10894699D01*
X34624302Y-10894699D02*
X34624302Y-11066127D01*
X34624302Y-11066127D02*
X34681445Y-11180413D01*
X35424302Y-11751842D02*
X34624302Y-11751842D01*
X34224302Y-11751842D02*
X34281445Y-11694699D01*
X34281445Y-11694699D02*
X34338588Y-11751842D01*
X34338588Y-11751842D02*
X34281445Y-11808985D01*
X34281445Y-11808985D02*
X34224302Y-11751842D01*
X34224302Y-11751842D02*
X34338588Y-11751842D01*
X34624302Y-12837557D02*
X35595731Y-12837557D01*
X35595731Y-12837557D02*
X35710017Y-12780414D01*
X35710017Y-12780414D02*
X35767160Y-12723271D01*
X35767160Y-12723271D02*
X35824302Y-12608985D01*
X35824302Y-12608985D02*
X35824302Y-12437557D01*
X35824302Y-12437557D02*
X35767160Y-12323271D01*
X35367160Y-12837557D02*
X35424302Y-12723271D01*
X35424302Y-12723271D02*
X35424302Y-12494699D01*
X35424302Y-12494699D02*
X35367160Y-12380414D01*
X35367160Y-12380414D02*
X35310017Y-12323271D01*
X35310017Y-12323271D02*
X35195731Y-12266128D01*
X35195731Y-12266128D02*
X34852874Y-12266128D01*
X34852874Y-12266128D02*
X34738588Y-12323271D01*
X34738588Y-12323271D02*
X34681445Y-12380414D01*
X34681445Y-12380414D02*
X34624302Y-12494699D01*
X34624302Y-12494699D02*
X34624302Y-12723271D01*
X34624302Y-12723271D02*
X34681445Y-12837557D01*
X34624302Y-13408985D02*
X35424302Y-13408985D01*
X34738588Y-13408985D02*
X34681445Y-13466128D01*
X34681445Y-13466128D02*
X34624302Y-13580413D01*
X34624302Y-13580413D02*
X34624302Y-13751842D01*
X34624302Y-13751842D02*
X34681445Y-13866128D01*
X34681445Y-13866128D02*
X34795731Y-13923271D01*
X34795731Y-13923271D02*
X35424302Y-13923271D01*
X35367160Y-14951842D02*
X35424302Y-14837556D01*
X35424302Y-14837556D02*
X35424302Y-14608985D01*
X35424302Y-14608985D02*
X35367160Y-14494699D01*
X35367160Y-14494699D02*
X35252874Y-14437556D01*
X35252874Y-14437556D02*
X34795731Y-14437556D01*
X34795731Y-14437556D02*
X34681445Y-14494699D01*
X34681445Y-14494699D02*
X34624302Y-14608985D01*
X34624302Y-14608985D02*
X34624302Y-14837556D01*
X34624302Y-14837556D02*
X34681445Y-14951842D01*
X34681445Y-14951842D02*
X34795731Y-15008985D01*
X34795731Y-15008985D02*
X34910017Y-15008985D01*
X34910017Y-15008985D02*
X35024302Y-14437556D01*
X35424302Y-16037556D02*
X34224302Y-16037556D01*
X35367160Y-16037556D02*
X35424302Y-15923270D01*
X35424302Y-15923270D02*
X35424302Y-15694698D01*
X35424302Y-15694698D02*
X35367160Y-15580413D01*
X35367160Y-15580413D02*
X35310017Y-15523270D01*
X35310017Y-15523270D02*
X35195731Y-15466127D01*
X35195731Y-15466127D02*
X34852874Y-15466127D01*
X34852874Y-15466127D02*
X34738588Y-15523270D01*
X34738588Y-15523270D02*
X34681445Y-15580413D01*
X34681445Y-15580413D02*
X34624302Y-15694698D01*
X34624302Y-15694698D02*
X34624302Y-15923270D01*
X34624302Y-15923270D02*
X34681445Y-16037556D01*
X35424302Y-17523270D02*
X34224302Y-17523270D01*
X34681445Y-17523270D02*
X34624302Y-17637556D01*
X34624302Y-17637556D02*
X34624302Y-17866127D01*
X34624302Y-17866127D02*
X34681445Y-17980413D01*
X34681445Y-17980413D02*
X34738588Y-18037556D01*
X34738588Y-18037556D02*
X34852874Y-18094698D01*
X34852874Y-18094698D02*
X35195731Y-18094698D01*
X35195731Y-18094698D02*
X35310017Y-18037556D01*
X35310017Y-18037556D02*
X35367160Y-17980413D01*
X35367160Y-17980413D02*
X35424302Y-17866127D01*
X35424302Y-17866127D02*
X35424302Y-17637556D01*
X35424302Y-17637556D02*
X35367160Y-17523270D01*
X34624302Y-18494698D02*
X35424302Y-18780412D01*
X34624302Y-19066127D02*
X35424302Y-18780412D01*
X35424302Y-18780412D02*
X35710017Y-18666127D01*
X35710017Y-18666127D02*
X35767160Y-18608984D01*
X35767160Y-18608984D02*
X35824302Y-18494698D01*
X35081445Y-20380413D02*
X35081445Y-20951842D01*
X35424302Y-20266127D02*
X34224302Y-20666127D01*
X34224302Y-20666127D02*
X35424302Y-21066127D01*
X35424302Y-21980413D02*
X34224302Y-21980413D01*
X35367160Y-21980413D02*
X35424302Y-21866127D01*
X35424302Y-21866127D02*
X35424302Y-21637555D01*
X35424302Y-21637555D02*
X35367160Y-21523270D01*
X35367160Y-21523270D02*
X35310017Y-21466127D01*
X35310017Y-21466127D02*
X35195731Y-21408984D01*
X35195731Y-21408984D02*
X34852874Y-21408984D01*
X34852874Y-21408984D02*
X34738588Y-21466127D01*
X34738588Y-21466127D02*
X34681445Y-21523270D01*
X34681445Y-21523270D02*
X34624302Y-21637555D01*
X34624302Y-21637555D02*
X34624302Y-21866127D01*
X34624302Y-21866127D02*
X34681445Y-21980413D01*
X35424302Y-22551841D02*
X34624302Y-22551841D01*
X34224302Y-22551841D02*
X34281445Y-22494698D01*
X34281445Y-22494698D02*
X34338588Y-22551841D01*
X34338588Y-22551841D02*
X34281445Y-22608984D01*
X34281445Y-22608984D02*
X34224302Y-22551841D01*
X34224302Y-22551841D02*
X34338588Y-22551841D01*
X34624302Y-22951841D02*
X34624302Y-23408984D01*
X34224302Y-23123270D02*
X35252874Y-23123270D01*
X35252874Y-23123270D02*
X35367160Y-23180413D01*
X35367160Y-23180413D02*
X35424302Y-23294698D01*
X35424302Y-23294698D02*
X35424302Y-23408984D01*
X34624302Y-23694698D02*
X35424302Y-23980412D01*
X34624302Y-24266127D02*
X35424302Y-23980412D01*
X35424302Y-23980412D02*
X35710017Y-23866127D01*
X35710017Y-23866127D02*
X35767160Y-23808984D01*
X35767160Y-23808984D02*
X35824302Y-23694698D01*
X35424302Y-25237556D02*
X34795731Y-25237556D01*
X34795731Y-25237556D02*
X34681445Y-25180413D01*
X34681445Y-25180413D02*
X34624302Y-25066127D01*
X34624302Y-25066127D02*
X34624302Y-24837556D01*
X34624302Y-24837556D02*
X34681445Y-24723270D01*
X35367160Y-25237556D02*
X35424302Y-25123270D01*
X35424302Y-25123270D02*
X35424302Y-24837556D01*
X35424302Y-24837556D02*
X35367160Y-24723270D01*
X35367160Y-24723270D02*
X35252874Y-24666127D01*
X35252874Y-24666127D02*
X35138588Y-24666127D01*
X35138588Y-24666127D02*
X35024302Y-24723270D01*
X35024302Y-24723270D02*
X34967160Y-24837556D01*
X34967160Y-24837556D02*
X34967160Y-25123270D01*
X34967160Y-25123270D02*
X34910017Y-25237556D01*
X35424302Y-26723270D02*
X34224302Y-26723270D01*
X34224302Y-26723270D02*
X34224302Y-27180413D01*
X34224302Y-27180413D02*
X34281445Y-27294698D01*
X34281445Y-27294698D02*
X34338588Y-27351841D01*
X34338588Y-27351841D02*
X34452874Y-27408984D01*
X34452874Y-27408984D02*
X34624302Y-27408984D01*
X34624302Y-27408984D02*
X34738588Y-27351841D01*
X34738588Y-27351841D02*
X34795731Y-27294698D01*
X34795731Y-27294698D02*
X34852874Y-27180413D01*
X34852874Y-27180413D02*
X34852874Y-26723270D01*
X35424302Y-28437556D02*
X34795731Y-28437556D01*
X34795731Y-28437556D02*
X34681445Y-28380413D01*
X34681445Y-28380413D02*
X34624302Y-28266127D01*
X34624302Y-28266127D02*
X34624302Y-28037556D01*
X34624302Y-28037556D02*
X34681445Y-27923270D01*
X35367160Y-28437556D02*
X35424302Y-28323270D01*
X35424302Y-28323270D02*
X35424302Y-28037556D01*
X35424302Y-28037556D02*
X35367160Y-27923270D01*
X35367160Y-27923270D02*
X35252874Y-27866127D01*
X35252874Y-27866127D02*
X35138588Y-27866127D01*
X35138588Y-27866127D02*
X35024302Y-27923270D01*
X35024302Y-27923270D02*
X34967160Y-28037556D01*
X34967160Y-28037556D02*
X34967160Y-28323270D01*
X34967160Y-28323270D02*
X34910017Y-28437556D01*
X34624302Y-29008984D02*
X35424302Y-29008984D01*
X34738588Y-29008984D02*
X34681445Y-29066127D01*
X34681445Y-29066127D02*
X34624302Y-29180412D01*
X34624302Y-29180412D02*
X34624302Y-29351841D01*
X34624302Y-29351841D02*
X34681445Y-29466127D01*
X34681445Y-29466127D02*
X34795731Y-29523270D01*
X34795731Y-29523270D02*
X35424302Y-29523270D01*
X35424302Y-30608984D02*
X34224302Y-30608984D01*
X35367160Y-30608984D02*
X35424302Y-30494698D01*
X35424302Y-30494698D02*
X35424302Y-30266126D01*
X35424302Y-30266126D02*
X35367160Y-30151841D01*
X35367160Y-30151841D02*
X35310017Y-30094698D01*
X35310017Y-30094698D02*
X35195731Y-30037555D01*
X35195731Y-30037555D02*
X34852874Y-30037555D01*
X34852874Y-30037555D02*
X34738588Y-30094698D01*
X34738588Y-30094698D02*
X34681445Y-30151841D01*
X34681445Y-30151841D02*
X34624302Y-30266126D01*
X34624302Y-30266126D02*
X34624302Y-30494698D01*
X34624302Y-30494698D02*
X34681445Y-30608984D01*
X34624302Y-31694698D02*
X35424302Y-31694698D01*
X34624302Y-31180412D02*
X35252874Y-31180412D01*
X35252874Y-31180412D02*
X35367160Y-31237555D01*
X35367160Y-31237555D02*
X35424302Y-31351840D01*
X35424302Y-31351840D02*
X35424302Y-31523269D01*
X35424302Y-31523269D02*
X35367160Y-31637555D01*
X35367160Y-31637555D02*
X35310017Y-31694698D01*
X35424302Y-32266126D02*
X34624302Y-32266126D01*
X34852874Y-32266126D02*
X34738588Y-32323269D01*
X34738588Y-32323269D02*
X34681445Y-32380412D01*
X34681445Y-32380412D02*
X34624302Y-32494697D01*
X34624302Y-32494697D02*
X34624302Y-32608983D01*
X35424302Y-33523269D02*
X34795731Y-33523269D01*
X34795731Y-33523269D02*
X34681445Y-33466126D01*
X34681445Y-33466126D02*
X34624302Y-33351840D01*
X34624302Y-33351840D02*
X34624302Y-33123269D01*
X34624302Y-33123269D02*
X34681445Y-33008983D01*
X35367160Y-33523269D02*
X35424302Y-33408983D01*
X35424302Y-33408983D02*
X35424302Y-33123269D01*
X35424302Y-33123269D02*
X35367160Y-33008983D01*
X35367160Y-33008983D02*
X35252874Y-32951840D01*
X35252874Y-32951840D02*
X35138588Y-32951840D01*
X35138588Y-32951840D02*
X35024302Y-33008983D01*
X35024302Y-33008983D02*
X34967160Y-33123269D01*
X34967160Y-33123269D02*
X34967160Y-33408983D01*
X34967160Y-33408983D02*
X34910017Y-33523269D01*
X34624302Y-34094697D02*
X35424302Y-34094697D01*
X34738588Y-34094697D02*
X34681445Y-34151840D01*
X34681445Y-34151840D02*
X34624302Y-34266125D01*
X34624302Y-34266125D02*
X34624302Y-34437554D01*
X34624302Y-34437554D02*
X34681445Y-34551840D01*
X34681445Y-34551840D02*
X34795731Y-34608983D01*
X34795731Y-34608983D02*
X35424302Y-34608983D01*
X34624302Y-35694697D02*
X35595731Y-35694697D01*
X35595731Y-35694697D02*
X35710017Y-35637554D01*
X35710017Y-35637554D02*
X35767160Y-35580411D01*
X35767160Y-35580411D02*
X35824302Y-35466125D01*
X35824302Y-35466125D02*
X35824302Y-35294697D01*
X35824302Y-35294697D02*
X35767160Y-35180411D01*
X35367160Y-35694697D02*
X35424302Y-35580411D01*
X35424302Y-35580411D02*
X35424302Y-35351839D01*
X35424302Y-35351839D02*
X35367160Y-35237554D01*
X35367160Y-35237554D02*
X35310017Y-35180411D01*
X35310017Y-35180411D02*
X35195731Y-35123268D01*
X35195731Y-35123268D02*
X34852874Y-35123268D01*
X34852874Y-35123268D02*
X34738588Y-35180411D01*
X34738588Y-35180411D02*
X34681445Y-35237554D01*
X34681445Y-35237554D02*
X34624302Y-35351839D01*
X34624302Y-35351839D02*
X34624302Y-35580411D01*
X34624302Y-35580411D02*
X34681445Y-35694697D01*
X35424302Y-37180411D02*
X34224302Y-37180411D01*
X34224302Y-37180411D02*
X34224302Y-37466125D01*
X34224302Y-37466125D02*
X34281445Y-37637554D01*
X34281445Y-37637554D02*
X34395731Y-37751839D01*
X34395731Y-37751839D02*
X34510017Y-37808982D01*
X34510017Y-37808982D02*
X34738588Y-37866125D01*
X34738588Y-37866125D02*
X34910017Y-37866125D01*
X34910017Y-37866125D02*
X35138588Y-37808982D01*
X35138588Y-37808982D02*
X35252874Y-37751839D01*
X35252874Y-37751839D02*
X35367160Y-37637554D01*
X35367160Y-37637554D02*
X35424302Y-37466125D01*
X35424302Y-37466125D02*
X35424302Y-37180411D01*
X35367160Y-38837554D02*
X35424302Y-38723268D01*
X35424302Y-38723268D02*
X35424302Y-38494697D01*
X35424302Y-38494697D02*
X35367160Y-38380411D01*
X35367160Y-38380411D02*
X35252874Y-38323268D01*
X35252874Y-38323268D02*
X34795731Y-38323268D01*
X34795731Y-38323268D02*
X34681445Y-38380411D01*
X34681445Y-38380411D02*
X34624302Y-38494697D01*
X34624302Y-38494697D02*
X34624302Y-38723268D01*
X34624302Y-38723268D02*
X34681445Y-38837554D01*
X34681445Y-38837554D02*
X34795731Y-38894697D01*
X34795731Y-38894697D02*
X34910017Y-38894697D01*
X34910017Y-38894697D02*
X35024302Y-38323268D01*
X35367160Y-39351839D02*
X35424302Y-39466125D01*
X35424302Y-39466125D02*
X35424302Y-39694696D01*
X35424302Y-39694696D02*
X35367160Y-39808982D01*
X35367160Y-39808982D02*
X35252874Y-39866125D01*
X35252874Y-39866125D02*
X35195731Y-39866125D01*
X35195731Y-39866125D02*
X35081445Y-39808982D01*
X35081445Y-39808982D02*
X35024302Y-39694696D01*
X35024302Y-39694696D02*
X35024302Y-39523268D01*
X35024302Y-39523268D02*
X34967160Y-39408982D01*
X34967160Y-39408982D02*
X34852874Y-39351839D01*
X34852874Y-39351839D02*
X34795731Y-39351839D01*
X34795731Y-39351839D02*
X34681445Y-39408982D01*
X34681445Y-39408982D02*
X34624302Y-39523268D01*
X34624302Y-39523268D02*
X34624302Y-39694696D01*
X34624302Y-39694696D02*
X34681445Y-39808982D01*
X35424302Y-40380411D02*
X34224302Y-40380411D01*
X35424302Y-40894697D02*
X34795731Y-40894697D01*
X34795731Y-40894697D02*
X34681445Y-40837554D01*
X34681445Y-40837554D02*
X34624302Y-40723268D01*
X34624302Y-40723268D02*
X34624302Y-40551839D01*
X34624302Y-40551839D02*
X34681445Y-40437554D01*
X34681445Y-40437554D02*
X34738588Y-40380411D01*
X34624302Y-41466125D02*
X35824302Y-41466125D01*
X34681445Y-41466125D02*
X34624302Y-41580411D01*
X34624302Y-41580411D02*
X34624302Y-41808982D01*
X34624302Y-41808982D02*
X34681445Y-41923268D01*
X34681445Y-41923268D02*
X34738588Y-41980411D01*
X34738588Y-41980411D02*
X34852874Y-42037553D01*
X34852874Y-42037553D02*
X35195731Y-42037553D01*
X35195731Y-42037553D02*
X35310017Y-41980411D01*
X35310017Y-41980411D02*
X35367160Y-41923268D01*
X35367160Y-41923268D02*
X35424302Y-41808982D01*
X35424302Y-41808982D02*
X35424302Y-41580411D01*
X35424302Y-41580411D02*
X35367160Y-41466125D01*
X35424302Y-43066125D02*
X34795731Y-43066125D01*
X34795731Y-43066125D02*
X34681445Y-43008982D01*
X34681445Y-43008982D02*
X34624302Y-42894696D01*
X34624302Y-42894696D02*
X34624302Y-42666125D01*
X34624302Y-42666125D02*
X34681445Y-42551839D01*
X35367160Y-43066125D02*
X35424302Y-42951839D01*
X35424302Y-42951839D02*
X35424302Y-42666125D01*
X35424302Y-42666125D02*
X35367160Y-42551839D01*
X35367160Y-42551839D02*
X35252874Y-42494696D01*
X35252874Y-42494696D02*
X35138588Y-42494696D01*
X35138588Y-42494696D02*
X35024302Y-42551839D01*
X35024302Y-42551839D02*
X34967160Y-42666125D01*
X34967160Y-42666125D02*
X34967160Y-42951839D01*
X34967160Y-42951839D02*
X34910017Y-43066125D01*
X34624302Y-43637553D02*
X35424302Y-43637553D01*
X34738588Y-43637553D02*
X34681445Y-43694696D01*
X34681445Y-43694696D02*
X34624302Y-43808981D01*
X34624302Y-43808981D02*
X34624302Y-43980410D01*
X34624302Y-43980410D02*
X34681445Y-44094696D01*
X34681445Y-44094696D02*
X34795731Y-44151839D01*
X34795731Y-44151839D02*
X35424302Y-44151839D01*
X35424302Y-45237553D02*
X34224302Y-45237553D01*
X35367160Y-45237553D02*
X35424302Y-45123267D01*
X35424302Y-45123267D02*
X35424302Y-44894695D01*
X35424302Y-44894695D02*
X35367160Y-44780410D01*
X35367160Y-44780410D02*
X35310017Y-44723267D01*
X35310017Y-44723267D02*
X35195731Y-44666124D01*
X35195731Y-44666124D02*
X34852874Y-44666124D01*
X34852874Y-44666124D02*
X34738588Y-44723267D01*
X34738588Y-44723267D02*
X34681445Y-44780410D01*
X34681445Y-44780410D02*
X34624302Y-44894695D01*
X34624302Y-44894695D02*
X34624302Y-45123267D01*
X34624302Y-45123267D02*
X34681445Y-45237553D01*
X35367160Y-46266124D02*
X35424302Y-46151838D01*
X35424302Y-46151838D02*
X35424302Y-45923267D01*
X35424302Y-45923267D02*
X35367160Y-45808981D01*
X35367160Y-45808981D02*
X35252874Y-45751838D01*
X35252874Y-45751838D02*
X34795731Y-45751838D01*
X34795731Y-45751838D02*
X34681445Y-45808981D01*
X34681445Y-45808981D02*
X34624302Y-45923267D01*
X34624302Y-45923267D02*
X34624302Y-46151838D01*
X34624302Y-46151838D02*
X34681445Y-46266124D01*
X34681445Y-46266124D02*
X34795731Y-46323267D01*
X34795731Y-46323267D02*
X34910017Y-46323267D01*
X34910017Y-46323267D02*
X35024302Y-45751838D01*
X39812443Y-48625731D02*
X39641015Y-48682874D01*
X39641015Y-48682874D02*
X39583872Y-48740017D01*
X39583872Y-48740017D02*
X39526729Y-48854302D01*
X39526729Y-48854302D02*
X39526729Y-49025731D01*
X39526729Y-49025731D02*
X39583872Y-49140017D01*
X39583872Y-49140017D02*
X39641015Y-49197160D01*
X39641015Y-49197160D02*
X39755300Y-49254302D01*
X39755300Y-49254302D02*
X40212443Y-49254302D01*
X40212443Y-49254302D02*
X40212443Y-48054302D01*
X40212443Y-48054302D02*
X39812443Y-48054302D01*
X39812443Y-48054302D02*
X39698158Y-48111445D01*
X39698158Y-48111445D02*
X39641015Y-48168588D01*
X39641015Y-48168588D02*
X39583872Y-48282874D01*
X39583872Y-48282874D02*
X39583872Y-48397160D01*
X39583872Y-48397160D02*
X39641015Y-48511445D01*
X39641015Y-48511445D02*
X39698158Y-48568588D01*
X39698158Y-48568588D02*
X39812443Y-48625731D01*
X39812443Y-48625731D02*
X40212443Y-48625731D01*
X38783872Y-48054302D02*
X38555300Y-48054302D01*
X38555300Y-48054302D02*
X38441015Y-48111445D01*
X38441015Y-48111445D02*
X38326729Y-48225731D01*
X38326729Y-48225731D02*
X38269586Y-48454302D01*
X38269586Y-48454302D02*
X38269586Y-48854302D01*
X38269586Y-48854302D02*
X38326729Y-49082874D01*
X38326729Y-49082874D02*
X38441015Y-49197160D01*
X38441015Y-49197160D02*
X38555300Y-49254302D01*
X38555300Y-49254302D02*
X38783872Y-49254302D01*
X38783872Y-49254302D02*
X38898158Y-49197160D01*
X38898158Y-49197160D02*
X39012443Y-49082874D01*
X39012443Y-49082874D02*
X39069586Y-48854302D01*
X39069586Y-48854302D02*
X39069586Y-48454302D01*
X39069586Y-48454302D02*
X39012443Y-48225731D01*
X39012443Y-48225731D02*
X38898158Y-48111445D01*
X38898158Y-48111445D02*
X38783872Y-48054302D01*
X37926729Y-48054302D02*
X37241015Y-48054302D01*
X37583872Y-49254302D02*
X37583872Y-48054302D01*
M02*
