%TF.GenerationSoftware,KiCad,Pcbnew,9.0.1*%
%TF.CreationDate,2025-06-03T10:55:25+05:30*%
%TF.ProjectId,lighting_pcb_tht,6c696768-7469-46e6-975f-7063625f7468,rev?*%
%TF.SameCoordinates,Original*%
%TF.FileFunction,Copper,L2,Bot*%
%TF.FilePolarity,Positive*%
%FSLAX46Y46*%
G04 Gerber Fmt 4.6, Leading zero omitted, Abs format (unit mm)*
G04 Created by KiCad (PCBNEW 9.0.1) date 2025-06-03 10:55:25*
%MOMM*%
%LPD*%
G01*
G04 APERTURE LIST*
G04 Aperture macros list*
%AMRoundRect*
0 Rectangle with rounded corners*
0 $1 Rounding radius*
0 $2 $3 $4 $5 $6 $7 $8 $9 X,Y pos of 4 corners*
0 Add a 4 corners polygon primitive as box body*
4,1,4,$2,$3,$4,$5,$6,$7,$8,$9,$2,$3,0*
0 Add four circle primitives for the rounded corners*
1,1,$1+$1,$2,$3*
1,1,$1+$1,$4,$5*
1,1,$1+$1,$6,$7*
1,1,$1+$1,$8,$9*
0 Add four rect primitives between the rounded corners*
20,1,$1+$1,$2,$3,$4,$5,0*
20,1,$1+$1,$4,$5,$6,$7,0*
20,1,$1+$1,$6,$7,$8,$9,0*
20,1,$1+$1,$8,$9,$2,$3,0*%
G04 Aperture macros list end*
%TA.AperFunction,ComponentPad*%
%ADD10RoundRect,0.250000X-0.550000X-0.550000X0.550000X-0.550000X0.550000X0.550000X-0.550000X0.550000X0*%
%TD*%
%TA.AperFunction,ComponentPad*%
%ADD11C,1.600000*%
%TD*%
%TA.AperFunction,ComponentPad*%
%ADD12O,3.200000X1.900000*%
%TD*%
%TA.AperFunction,ComponentPad*%
%ADD13R,1.600000X1.600000*%
%TD*%
%TA.AperFunction,ComponentPad*%
%ADD14C,2.800000*%
%TD*%
%TA.AperFunction,ComponentPad*%
%ADD15RoundRect,0.250001X-1.149999X-1.149999X1.149999X-1.149999X1.149999X1.149999X-1.149999X1.149999X0*%
%TD*%
%TA.AperFunction,ComponentPad*%
%ADD16C,1.500000*%
%TD*%
%TA.AperFunction,ViaPad*%
%ADD17C,1.000000*%
%TD*%
%TA.AperFunction,Conductor*%
%ADD18C,0.500000*%
%TD*%
G04 APERTURE END LIST*
D10*
%TO.P,U1,1,~{RESET}/PC6*%
%TO.N,Net-(U1-~{RESET}{slash}PC6)*%
X8890000Y-3050000D03*
D11*
%TO.P,U1,2,PD0*%
%TO.N,Net-(U1-PD0)*%
X8890000Y-5590000D03*
%TO.P,U1,3,PD1*%
%TO.N,Net-(U1-PD1)*%
X8890000Y-8130000D03*
%TO.P,U1,4,PD2*%
%TO.N,unconnected-(U1-PD2-Pad4)*%
X8890000Y-10670000D03*
%TO.P,U1,5,PD3*%
%TO.N,Net-(U1-PD3)*%
X8890000Y-13210000D03*
%TO.P,U1,6,PD4*%
%TO.N,unconnected-(U1-PD4-Pad6)*%
X8890000Y-15750000D03*
%TO.P,U1,7,VCC*%
%TO.N,+5V*%
X8890000Y-18290000D03*
%TO.P,U1,8,GND*%
%TO.N,GND*%
X8890000Y-20830000D03*
%TO.P,U1,9,XTAL1/PB6*%
%TO.N,Net-(U1-XTAL1{slash}PB6)*%
X8890000Y-23370000D03*
%TO.P,U1,10,XTAL2/PB7*%
%TO.N,Net-(U1-XTAL2{slash}PB7)*%
X8890000Y-25910000D03*
%TO.P,U1,11,PD5*%
%TO.N,Net-(U1-PD5)*%
X8890000Y-28450000D03*
%TO.P,U1,12,PD6*%
%TO.N,Net-(U1-PD6)*%
X8890000Y-30990000D03*
%TO.P,U1,13,PD7*%
%TO.N,Net-(U1-PD7)*%
X8890000Y-33530000D03*
%TO.P,U1,14,PB0*%
%TO.N,unconnected-(U1-PB0-Pad14)*%
X8890000Y-36070000D03*
%TO.P,U1,15,PB1*%
%TO.N,Net-(U1-PB1)*%
X16510000Y-36070000D03*
%TO.P,U1,16,PB2*%
%TO.N,unconnected-(U1-PB2-Pad16)*%
X16510000Y-33530000D03*
%TO.P,U1,17,PB3*%
%TO.N,Net-(U1-PB3)*%
X16510000Y-30990000D03*
%TO.P,U1,18,PB4*%
%TO.N,Net-(U1-PB4)*%
X16510000Y-28450000D03*
%TO.P,U1,19,PB5*%
%TO.N,unconnected-(U1-PB5-Pad19)*%
X16510000Y-25910000D03*
%TO.P,U1,20,AVCC*%
%TO.N,+5V*%
X16510000Y-23370000D03*
%TO.P,U1,21,AREF*%
%TO.N,Net-(U1-AREF)*%
X16510000Y-20830000D03*
%TO.P,U1,22,GND*%
%TO.N,GND*%
X16510000Y-18290000D03*
%TO.P,U1,23,PC0*%
%TO.N,unconnected-(U1-PC0-Pad23)*%
X16510000Y-15750000D03*
%TO.P,U1,24,PC1*%
%TO.N,unconnected-(U1-PC1-Pad24)*%
X16510000Y-13210000D03*
%TO.P,U1,25,PC2*%
%TO.N,unconnected-(U1-PC2-Pad25)*%
X16510000Y-10670000D03*
%TO.P,U1,26,PC3*%
%TO.N,unconnected-(U1-PC3-Pad26)*%
X16510000Y-8130000D03*
%TO.P,U1,27,PC4*%
%TO.N,unconnected-(U1-PC4-Pad27)*%
X16510000Y-5590000D03*
%TO.P,U1,28,PC5*%
%TO.N,Net-(U1-PC5)*%
X16510000Y-3050000D03*
%TD*%
D12*
%TO.P,SW3,2,2*%
%TO.N,Net-(U1-PD7)*%
X38100000Y-44010000D03*
X25600000Y-44010000D03*
%TO.P,SW3,1,1*%
%TO.N,GND*%
X38100000Y-39010000D03*
X25600000Y-39010000D03*
%TD*%
%TO.P,SW2,2,2*%
%TO.N,Net-(U1-PD6)*%
X38100000Y-27510000D03*
X25600000Y-27510000D03*
%TO.P,SW2,1,1*%
%TO.N,GND*%
X38100000Y-22510000D03*
X25600000Y-22510000D03*
%TD*%
D11*
%TO.P,C3,2*%
%TO.N,GND*%
X21000000Y-38050000D03*
D13*
%TO.P,C3,1*%
%TO.N,+5V*%
X21000000Y-36050000D03*
%TD*%
D14*
%TO.P,J1,3,Pin_3*%
%TO.N,GND*%
X14860000Y-43270000D03*
%TO.P,J1,2,Pin_2*%
%TO.N,Net-(J1-Pin_2)*%
X9860000Y-43270000D03*
D15*
%TO.P,J1,1,Pin_1*%
%TO.N,+5V*%
X4860000Y-43270000D03*
%TD*%
D12*
%TO.P,SW1,2,2*%
%TO.N,Net-(U1-PD5)*%
X38100000Y-11000000D03*
X25600000Y-11000000D03*
%TO.P,SW1,1,1*%
%TO.N,GND*%
X38100000Y-6000000D03*
X25600000Y-6000000D03*
%TD*%
D16*
%TO.P,Y1,2,2*%
%TO.N,Net-(U1-XTAL2{slash}PB7)*%
X3790000Y-30420000D03*
%TO.P,Y1,1,1*%
%TO.N,Net-(U1-XTAL1{slash}PB6)*%
X3790000Y-25540000D03*
%TD*%
D17*
%TO.N,Net-(U1-PC5)*%
X11776752Y-4593248D03*
X6598248Y-7181752D03*
%TO.N,+5V*%
X21040000Y-6060000D03*
X3730000Y-16690000D03*
%TO.N,Net-(U1-~{RESET}{slash}PC6)*%
X4060000Y-8120000D03*
%TD*%
D18*
%TO.N,Net-(U1-PC5)*%
X8100000Y-6860000D02*
X7780000Y-7180000D01*
X9515050Y-6860000D02*
X8100000Y-6860000D01*
X11776752Y-4593248D02*
X9515050Y-6854950D01*
X9515050Y-6854950D02*
X9515050Y-6860000D01*
X7780000Y-7180000D02*
X6600000Y-7180000D01*
X6600000Y-7180000D02*
X6598248Y-7181752D01*
%TO.N,Net-(U1-PD5)*%
X8890000Y-28450000D02*
X12690000Y-24650000D01*
X12690000Y-17210000D02*
X15420000Y-14480000D01*
X12690000Y-24650000D02*
X12690000Y-17210000D01*
X25600000Y-11000000D02*
X38100000Y-11000000D01*
X15420000Y-14480000D02*
X20120000Y-14480000D01*
X23600000Y-11000000D02*
X25600000Y-11000000D01*
X20120000Y-14480000D02*
X23600000Y-11000000D01*
%TO.N,Net-(U1-PD6)*%
X8890000Y-30990000D02*
X10160000Y-29720000D01*
X10160000Y-29720000D02*
X20990000Y-29720000D01*
X20990000Y-29720000D02*
X23200000Y-27510000D01*
X23200000Y-27510000D02*
X25600000Y-27510000D01*
X25600000Y-27510000D02*
X38100000Y-27510000D01*
%TO.N,Net-(U1-PD7)*%
X25600000Y-44010000D02*
X38100000Y-44010000D01*
X11980000Y-33530000D02*
X22460000Y-44010000D01*
X8890000Y-33530000D02*
X11980000Y-33530000D01*
X22460000Y-44010000D02*
X25600000Y-44010000D01*
%TO.N,Net-(U1-~{RESET}{slash}PC6)*%
X4060000Y-8111386D02*
X4109643Y-8061743D01*
X4060000Y-8120000D02*
X4060000Y-8111386D01*
X4109643Y-8060357D02*
X8890000Y-3280000D01*
X8890000Y-3280000D02*
X8890000Y-3050000D01*
X4109643Y-8061743D02*
X4109643Y-8060357D01*
%TD*%
%TA.AperFunction,Conductor*%
%TO.N,+5V*%
G36*
X40442539Y-520185D02*
G01*
X40488294Y-572989D01*
X40499500Y-624500D01*
X40499500Y-49375500D01*
X40479815Y-49442539D01*
X40427011Y-49488294D01*
X40375500Y-49499500D01*
X624500Y-49499500D01*
X557461Y-49479815D01*
X511706Y-49427011D01*
X500500Y-49375500D01*
X500500Y-47671577D01*
X19749500Y-47671577D01*
X19749500Y-47868422D01*
X19780290Y-48062826D01*
X19841117Y-48250029D01*
X19930476Y-48425405D01*
X20046172Y-48584646D01*
X20185354Y-48723828D01*
X20344595Y-48839524D01*
X20427455Y-48881743D01*
X20519970Y-48928882D01*
X20519972Y-48928882D01*
X20519975Y-48928884D01*
X20620317Y-48961487D01*
X20707173Y-48989709D01*
X20901578Y-49020500D01*
X20901583Y-49020500D01*
X21098422Y-49020500D01*
X21292826Y-48989709D01*
X21480025Y-48928884D01*
X21655405Y-48839524D01*
X21814646Y-48723828D01*
X21953828Y-48584646D01*
X22069524Y-48425405D01*
X22158884Y-48250025D01*
X22219709Y-48062826D01*
X22250500Y-47868422D01*
X22250500Y-47671577D01*
X22219709Y-47477173D01*
X22158882Y-47289970D01*
X22069523Y-47114594D01*
X21953828Y-46955354D01*
X21814646Y-46816172D01*
X21655405Y-46700476D01*
X21480029Y-46611117D01*
X21292826Y-46550290D01*
X21098422Y-46519500D01*
X21098417Y-46519500D01*
X20901583Y-46519500D01*
X20901578Y-46519500D01*
X20707173Y-46550290D01*
X20519970Y-46611117D01*
X20344594Y-46700476D01*
X20253741Y-46766485D01*
X20185354Y-46816172D01*
X20185352Y-46816174D01*
X20185351Y-46816174D01*
X20046174Y-46955351D01*
X20046174Y-46955352D01*
X20046172Y-46955354D01*
X19996485Y-47023741D01*
X19930476Y-47114594D01*
X19841117Y-47289970D01*
X19780290Y-47477173D01*
X19749500Y-47671577D01*
X500500Y-47671577D01*
X500500Y-42070014D01*
X2960000Y-42070014D01*
X2960000Y-42920000D01*
X4312115Y-42920000D01*
X4283978Y-42962110D01*
X4234979Y-43080402D01*
X4210000Y-43205981D01*
X4210000Y-43334019D01*
X4234979Y-43459598D01*
X4283978Y-43577890D01*
X4312115Y-43620000D01*
X2960000Y-43620000D01*
X2960000Y-44469985D01*
X2970493Y-44572689D01*
X2970494Y-44572696D01*
X3025641Y-44739118D01*
X3025643Y-44739123D01*
X3117684Y-44888344D01*
X3241655Y-45012315D01*
X3390876Y-45104356D01*
X3390881Y-45104358D01*
X3557303Y-45159505D01*
X3557310Y-45159506D01*
X3660014Y-45169999D01*
X3660027Y-45170000D01*
X4510000Y-45170000D01*
X4510000Y-43817885D01*
X4552110Y-43846022D01*
X4670402Y-43895021D01*
X4795981Y-43920000D01*
X4924019Y-43920000D01*
X5049598Y-43895021D01*
X5167890Y-43846022D01*
X5210000Y-43817885D01*
X5210000Y-45170000D01*
X6059973Y-45170000D01*
X6059985Y-45169999D01*
X6162689Y-45159506D01*
X6162696Y-45159505D01*
X6329118Y-45104358D01*
X6329123Y-45104356D01*
X6478344Y-45012315D01*
X6602315Y-44888344D01*
X6694356Y-44739123D01*
X6694358Y-44739118D01*
X6749505Y-44572696D01*
X6749506Y-44572689D01*
X6759999Y-44469985D01*
X6760000Y-44469972D01*
X6760000Y-43620000D01*
X5407885Y-43620000D01*
X5436022Y-43577890D01*
X5485021Y-43459598D01*
X5510000Y-43334019D01*
X5510000Y-43205981D01*
X5496895Y-43140097D01*
X8209500Y-43140097D01*
X8209500Y-43399902D01*
X8250140Y-43656493D01*
X8330422Y-43903576D01*
X8411534Y-44062764D01*
X8448366Y-44135051D01*
X8601069Y-44345229D01*
X8784771Y-44528931D01*
X8994949Y-44681634D01*
X9107777Y-44739123D01*
X9226423Y-44799577D01*
X9226425Y-44799577D01*
X9226428Y-44799579D01*
X9473507Y-44879860D01*
X9605706Y-44900797D01*
X9730098Y-44920500D01*
X9730103Y-44920500D01*
X9989902Y-44920500D01*
X10103298Y-44902539D01*
X10246493Y-44879860D01*
X10493572Y-44799579D01*
X10725051Y-44681634D01*
X10935229Y-44528931D01*
X11118931Y-44345229D01*
X11271634Y-44135051D01*
X11389579Y-43903572D01*
X11469860Y-43656493D01*
X11498893Y-43473181D01*
X11510500Y-43399902D01*
X11510500Y-43140097D01*
X13209500Y-43140097D01*
X13209500Y-43399902D01*
X13250140Y-43656493D01*
X13330422Y-43903576D01*
X13411534Y-44062764D01*
X13448366Y-44135051D01*
X13601069Y-44345229D01*
X13784771Y-44528931D01*
X13994949Y-44681634D01*
X14107777Y-44739123D01*
X14226423Y-44799577D01*
X14226425Y-44799577D01*
X14226428Y-44799579D01*
X14473507Y-44879860D01*
X14605706Y-44900797D01*
X14730098Y-44920500D01*
X14730103Y-44920500D01*
X14989902Y-44920500D01*
X15103298Y-44902539D01*
X15246493Y-44879860D01*
X15493572Y-44799579D01*
X15725051Y-44681634D01*
X15935229Y-44528931D01*
X16118931Y-44345229D01*
X16271634Y-44135051D01*
X16389579Y-43903572D01*
X16469860Y-43656493D01*
X16498893Y-43473181D01*
X16510500Y-43399902D01*
X16510500Y-43140097D01*
X16482309Y-42962110D01*
X16469860Y-42883507D01*
X16389579Y-42636428D01*
X16389577Y-42636425D01*
X16389577Y-42636423D01*
X16346787Y-42552445D01*
X16271634Y-42404949D01*
X16118931Y-42194771D01*
X15935229Y-42011069D01*
X15725051Y-41858366D01*
X15612231Y-41800881D01*
X15493576Y-41740422D01*
X15246493Y-41660140D01*
X14989902Y-41619500D01*
X14989897Y-41619500D01*
X14730103Y-41619500D01*
X14730098Y-41619500D01*
X14473506Y-41660140D01*
X14226423Y-41740422D01*
X13994945Y-41858368D01*
X13784774Y-42011066D01*
X13784768Y-42011071D01*
X13601071Y-42194768D01*
X13601066Y-42194774D01*
X13448368Y-42404945D01*
X13330422Y-42636423D01*
X13250140Y-42883506D01*
X13209500Y-43140097D01*
X11510500Y-43140097D01*
X11482309Y-42962110D01*
X11469860Y-42883507D01*
X11389579Y-42636428D01*
X11389577Y-42636425D01*
X11389577Y-42636423D01*
X11346787Y-42552445D01*
X11271634Y-42404949D01*
X11118931Y-42194771D01*
X10935229Y-42011069D01*
X10725051Y-41858366D01*
X10612231Y-41800881D01*
X10493576Y-41740422D01*
X10246493Y-41660140D01*
X9989902Y-41619500D01*
X9989897Y-41619500D01*
X9730103Y-41619500D01*
X9730098Y-41619500D01*
X9473506Y-41660140D01*
X9226423Y-41740422D01*
X8994945Y-41858368D01*
X8784774Y-42011066D01*
X8784768Y-42011071D01*
X8601071Y-42194768D01*
X8601066Y-42194774D01*
X8448368Y-42404945D01*
X8330422Y-42636423D01*
X8250140Y-42883506D01*
X8209500Y-43140097D01*
X5496895Y-43140097D01*
X5485021Y-43080402D01*
X5436022Y-42962110D01*
X5407885Y-42920000D01*
X6760000Y-42920000D01*
X6760000Y-42070027D01*
X6759999Y-42070014D01*
X6749506Y-41967310D01*
X6749505Y-41967303D01*
X6694358Y-41800881D01*
X6694356Y-41800876D01*
X6602315Y-41651655D01*
X6478344Y-41527684D01*
X6329123Y-41435643D01*
X6329118Y-41435641D01*
X6162696Y-41380494D01*
X6162689Y-41380493D01*
X6059985Y-41370000D01*
X5210000Y-41370000D01*
X5210000Y-42722114D01*
X5167890Y-42693978D01*
X5049598Y-42644979D01*
X4924019Y-42620000D01*
X4795981Y-42620000D01*
X4670402Y-42644979D01*
X4552110Y-42693978D01*
X4510000Y-42722114D01*
X4510000Y-41370000D01*
X3660014Y-41370000D01*
X3557310Y-41380493D01*
X3557303Y-41380494D01*
X3390881Y-41435641D01*
X3390876Y-41435643D01*
X3241655Y-41527684D01*
X3117684Y-41651655D01*
X3025643Y-41800876D01*
X3025641Y-41800881D01*
X2970494Y-41967303D01*
X2970493Y-41967310D01*
X2960000Y-42070014D01*
X500500Y-42070014D01*
X500500Y-35966530D01*
X7839500Y-35966530D01*
X7839500Y-36173469D01*
X7879868Y-36376412D01*
X7879870Y-36376420D01*
X7959058Y-36567596D01*
X8074024Y-36739657D01*
X8220342Y-36885975D01*
X8220345Y-36885977D01*
X8392402Y-37000941D01*
X8583580Y-37080130D01*
X8779291Y-37119059D01*
X8786530Y-37120499D01*
X8786534Y-37120500D01*
X8786535Y-37120500D01*
X8993466Y-37120500D01*
X8993467Y-37120499D01*
X9196420Y-37080130D01*
X9387598Y-37000941D01*
X9559655Y-36885977D01*
X9705977Y-36739655D01*
X9820941Y-36567598D01*
X9900130Y-36376420D01*
X9940500Y-36173465D01*
X9940500Y-35966535D01*
X9900130Y-35763580D01*
X9820941Y-35572402D01*
X9705977Y-35400345D01*
X9705975Y-35400342D01*
X9559657Y-35254024D01*
X9473626Y-35196541D01*
X9387598Y-35139059D01*
X9196420Y-35059870D01*
X9196412Y-35059868D01*
X8993469Y-35019500D01*
X8993465Y-35019500D01*
X8786535Y-35019500D01*
X8786530Y-35019500D01*
X8583587Y-35059868D01*
X8583579Y-35059870D01*
X8392403Y-35139058D01*
X8220342Y-35254024D01*
X8074024Y-35400342D01*
X7959058Y-35572403D01*
X7879870Y-35763579D01*
X7879868Y-35763587D01*
X7839500Y-35966530D01*
X500500Y-35966530D01*
X500500Y-33426530D01*
X7839500Y-33426530D01*
X7839500Y-33633469D01*
X7879868Y-33836412D01*
X7879870Y-33836420D01*
X7959059Y-34027598D01*
X7997821Y-34085610D01*
X8074024Y-34199657D01*
X8220342Y-34345975D01*
X8220345Y-34345977D01*
X8392402Y-34460941D01*
X8583580Y-34540130D01*
X8786530Y-34580499D01*
X8786534Y-34580500D01*
X8786535Y-34580500D01*
X8993466Y-34580500D01*
X8993467Y-34580499D01*
X9196420Y-34540130D01*
X9387598Y-34460941D01*
X9559655Y-34345977D01*
X9705977Y-34199655D01*
X9782180Y-34085608D01*
X9835790Y-34040805D01*
X9885281Y-34030500D01*
X11721324Y-34030500D01*
X11788363Y-34050185D01*
X11809005Y-34066819D01*
X22152686Y-44410500D01*
X22266814Y-44476392D01*
X22394107Y-44510500D01*
X22394108Y-44510500D01*
X23781677Y-44510500D01*
X23848716Y-44530185D01*
X23892162Y-44578205D01*
X23923240Y-44639199D01*
X24034310Y-44792073D01*
X24167927Y-44925690D01*
X24320801Y-45036760D01*
X24400347Y-45077290D01*
X24489163Y-45122545D01*
X24489165Y-45122545D01*
X24489168Y-45122547D01*
X24585497Y-45153846D01*
X24668881Y-45180940D01*
X24855514Y-45210500D01*
X24855519Y-45210500D01*
X26344486Y-45210500D01*
X26531118Y-45180940D01*
X26710832Y-45122547D01*
X26879199Y-45036760D01*
X27032073Y-44925690D01*
X27165690Y-44792073D01*
X27276760Y-44639199D01*
X27307838Y-44578205D01*
X27355813Y-44527409D01*
X27418323Y-44510500D01*
X36281677Y-44510500D01*
X36348716Y-44530185D01*
X36392162Y-44578205D01*
X36423240Y-44639199D01*
X36534310Y-44792073D01*
X36667927Y-44925690D01*
X36820801Y-45036760D01*
X36900347Y-45077290D01*
X36989163Y-45122545D01*
X36989165Y-45122545D01*
X36989168Y-45122547D01*
X37085497Y-45153846D01*
X37168881Y-45180940D01*
X37355514Y-45210500D01*
X37355519Y-45210500D01*
X38844486Y-45210500D01*
X39031118Y-45180940D01*
X39210832Y-45122547D01*
X39379199Y-45036760D01*
X39532073Y-44925690D01*
X39665690Y-44792073D01*
X39776760Y-44639199D01*
X39862547Y-44470832D01*
X39920940Y-44291118D01*
X39945658Y-44135054D01*
X39950500Y-44104486D01*
X39950500Y-43915513D01*
X39920940Y-43728881D01*
X39862545Y-43549163D01*
X39786492Y-43399902D01*
X39776760Y-43380801D01*
X39665690Y-43227927D01*
X39532073Y-43094310D01*
X39379199Y-42983240D01*
X39337729Y-42962110D01*
X39210836Y-42897454D01*
X39031118Y-42839059D01*
X38844486Y-42809500D01*
X38844481Y-42809500D01*
X37355519Y-42809500D01*
X37355514Y-42809500D01*
X37168881Y-42839059D01*
X36989163Y-42897454D01*
X36820800Y-42983240D01*
X36733579Y-43046610D01*
X36667927Y-43094310D01*
X36667925Y-43094312D01*
X36667924Y-43094312D01*
X36534312Y-43227924D01*
X36534312Y-43227925D01*
X36534310Y-43227927D01*
X36486610Y-43293579D01*
X36423240Y-43380800D01*
X36392162Y-43441795D01*
X36344187Y-43492591D01*
X36281677Y-43509500D01*
X27418323Y-43509500D01*
X27351284Y-43489815D01*
X27307838Y-43441795D01*
X27276759Y-43380800D01*
X27165690Y-43227927D01*
X27032073Y-43094310D01*
X26879199Y-42983240D01*
X26837729Y-42962110D01*
X26710836Y-42897454D01*
X26531118Y-42839059D01*
X26344486Y-42809500D01*
X26344481Y-42809500D01*
X24855519Y-42809500D01*
X24855514Y-42809500D01*
X24668881Y-42839059D01*
X24489163Y-42897454D01*
X24320800Y-42983240D01*
X24233579Y-43046610D01*
X24167927Y-43094310D01*
X24167925Y-43094312D01*
X24167924Y-43094312D01*
X24034312Y-43227924D01*
X24034312Y-43227925D01*
X24034310Y-43227927D01*
X23986610Y-43293579D01*
X23923240Y-43380800D01*
X23892162Y-43441795D01*
X23844187Y-43492591D01*
X23781677Y-43509500D01*
X22718676Y-43509500D01*
X22651637Y-43489815D01*
X22630995Y-43473181D01*
X16489995Y-37332181D01*
X16456510Y-37270858D01*
X16461494Y-37201166D01*
X16503366Y-37145233D01*
X16568830Y-37120816D01*
X16577676Y-37120500D01*
X16613466Y-37120500D01*
X16613467Y-37120499D01*
X16816420Y-37080130D01*
X17007598Y-37000941D01*
X17179655Y-36885977D01*
X17325977Y-36739655D01*
X17440941Y-36567598D01*
X17510363Y-36400000D01*
X19700000Y-36400000D01*
X19700000Y-36897844D01*
X19706401Y-36957372D01*
X19706403Y-36957379D01*
X19756645Y-37092086D01*
X19756649Y-37092093D01*
X19842809Y-37207187D01*
X19842812Y-37207190D01*
X19957906Y-37293350D01*
X19957913Y-37293354D01*
X20038607Y-37323451D01*
X20094541Y-37365322D01*
X20118958Y-37430786D01*
X20104107Y-37499059D01*
X20098378Y-37508522D01*
X20069057Y-37552404D01*
X19989870Y-37743579D01*
X19989868Y-37743587D01*
X19949500Y-37946530D01*
X19949500Y-38153469D01*
X19989868Y-38356412D01*
X19989870Y-38356420D01*
X20069058Y-38547596D01*
X20184024Y-38719657D01*
X20330342Y-38865975D01*
X20330345Y-38865977D01*
X20502402Y-38980941D01*
X20693580Y-39060130D01*
X20896530Y-39100499D01*
X20896534Y-39100500D01*
X20896535Y-39100500D01*
X21103466Y-39100500D01*
X21103467Y-39100499D01*
X21306420Y-39060130D01*
X21497598Y-38980941D01*
X21595519Y-38915513D01*
X23749500Y-38915513D01*
X23749500Y-39104486D01*
X23779059Y-39291118D01*
X23837454Y-39470836D01*
X23923240Y-39639199D01*
X24034310Y-39792073D01*
X24167927Y-39925690D01*
X24320801Y-40036760D01*
X24400347Y-40077290D01*
X24489163Y-40122545D01*
X24489165Y-40122545D01*
X24489168Y-40122547D01*
X24585497Y-40153846D01*
X24668881Y-40180940D01*
X24855514Y-40210500D01*
X24855519Y-40210500D01*
X26344486Y-40210500D01*
X26531118Y-40180940D01*
X26710832Y-40122547D01*
X26879199Y-40036760D01*
X27032073Y-39925690D01*
X27165690Y-39792073D01*
X27276760Y-39639199D01*
X27362547Y-39470832D01*
X27420940Y-39291118D01*
X27450500Y-39104486D01*
X27450500Y-38915513D01*
X36249500Y-38915513D01*
X36249500Y-39104486D01*
X36279059Y-39291118D01*
X36337454Y-39470836D01*
X36423240Y-39639199D01*
X36534310Y-39792073D01*
X36667927Y-39925690D01*
X36820801Y-40036760D01*
X36900347Y-40077290D01*
X36989163Y-40122545D01*
X36989165Y-40122545D01*
X36989168Y-40122547D01*
X37085497Y-40153846D01*
X37168881Y-40180940D01*
X37355514Y-40210500D01*
X37355519Y-40210500D01*
X38844486Y-40210500D01*
X39031118Y-40180940D01*
X39210832Y-40122547D01*
X39379199Y-40036760D01*
X39532073Y-39925690D01*
X39665690Y-39792073D01*
X39776760Y-39639199D01*
X39862547Y-39470832D01*
X39920940Y-39291118D01*
X39950500Y-39104486D01*
X39950500Y-38915513D01*
X39920940Y-38728881D01*
X39862545Y-38549163D01*
X39776759Y-38380800D01*
X39759040Y-38356412D01*
X39665690Y-38227927D01*
X39532073Y-38094310D01*
X39379199Y-37983240D01*
X39210836Y-37897454D01*
X39031118Y-37839059D01*
X38844486Y-37809500D01*
X38844481Y-37809500D01*
X37355519Y-37809500D01*
X37355514Y-37809500D01*
X37168881Y-37839059D01*
X36989163Y-37897454D01*
X36820800Y-37983240D01*
X36733579Y-38046610D01*
X36667927Y-38094310D01*
X36667925Y-38094312D01*
X36667924Y-38094312D01*
X36534312Y-38227924D01*
X36534312Y-38227925D01*
X36534310Y-38227927D01*
X36486610Y-38293579D01*
X36423240Y-38380800D01*
X36337454Y-38549163D01*
X36279059Y-38728881D01*
X36249500Y-38915513D01*
X27450500Y-38915513D01*
X27420940Y-38728881D01*
X27362545Y-38549163D01*
X27276759Y-38380800D01*
X27259040Y-38356412D01*
X27165690Y-38227927D01*
X27032073Y-38094310D01*
X26879199Y-37983240D01*
X26710836Y-37897454D01*
X26531118Y-37839059D01*
X26344486Y-37809500D01*
X26344481Y-37809500D01*
X24855519Y-37809500D01*
X24855514Y-37809500D01*
X24668881Y-37839059D01*
X24489163Y-37897454D01*
X24320800Y-37983240D01*
X24233579Y-38046610D01*
X24167927Y-38094310D01*
X24167925Y-38094312D01*
X24167924Y-38094312D01*
X24034312Y-38227924D01*
X24034312Y-38227925D01*
X24034310Y-38227927D01*
X23986610Y-38293579D01*
X23923240Y-38380800D01*
X23837454Y-38549163D01*
X23779059Y-38728881D01*
X23749500Y-38915513D01*
X21595519Y-38915513D01*
X21669655Y-38865977D01*
X21669658Y-38865974D01*
X21712667Y-38822966D01*
X21815974Y-38719658D01*
X21815975Y-38719657D01*
X21815977Y-38719655D01*
X21930941Y-38547598D01*
X22010130Y-38356420D01*
X22050500Y-38153465D01*
X22050500Y-37946535D01*
X22010130Y-37743580D01*
X21930941Y-37552402D01*
X21901621Y-37508522D01*
X21880745Y-37441846D01*
X21899230Y-37374466D01*
X21951209Y-37327776D01*
X21961392Y-37323451D01*
X22042086Y-37293354D01*
X22042093Y-37293350D01*
X22157187Y-37207190D01*
X22157190Y-37207187D01*
X22243350Y-37092093D01*
X22243354Y-37092086D01*
X22293596Y-36957379D01*
X22293598Y-36957372D01*
X22299999Y-36897844D01*
X22300000Y-36897827D01*
X22300000Y-36400000D01*
X21193783Y-36400000D01*
X21245606Y-36370080D01*
X21320080Y-36295606D01*
X21372741Y-36204394D01*
X21400000Y-36102661D01*
X21400000Y-35997339D01*
X21372741Y-35895606D01*
X21320080Y-35804394D01*
X21245606Y-35729920D01*
X21193783Y-35700000D01*
X21350000Y-35700000D01*
X22300000Y-35700000D01*
X22300000Y-35202172D01*
X22299999Y-35202155D01*
X22293598Y-35142627D01*
X22293596Y-35142620D01*
X22243354Y-35007913D01*
X22243350Y-35007906D01*
X22157190Y-34892812D01*
X22157187Y-34892809D01*
X22042093Y-34806649D01*
X22042086Y-34806645D01*
X21907379Y-34756403D01*
X21907372Y-34756401D01*
X21847844Y-34750000D01*
X21350000Y-34750000D01*
X21350000Y-35700000D01*
X21193783Y-35700000D01*
X21154394Y-35677259D01*
X21052661Y-35650000D01*
X20947339Y-35650000D01*
X20845606Y-35677259D01*
X20754394Y-35729920D01*
X20679920Y-35804394D01*
X20627259Y-35895606D01*
X20600000Y-35997339D01*
X20600000Y-36102661D01*
X20627259Y-36204394D01*
X20679920Y-36295606D01*
X20754394Y-36370080D01*
X20806217Y-36400000D01*
X19700000Y-36400000D01*
X17510363Y-36400000D01*
X17520130Y-36376420D01*
X17528663Y-36333523D01*
X17530469Y-36324446D01*
X17530469Y-36324445D01*
X17560499Y-36173469D01*
X17560500Y-36173466D01*
X17560500Y-35966534D01*
X17560499Y-35966530D01*
X17520131Y-35763587D01*
X17520130Y-35763580D01*
X17440941Y-35572402D01*
X17325977Y-35400345D01*
X17325975Y-35400342D01*
X17179657Y-35254024D01*
X17102028Y-35202155D01*
X19700000Y-35202155D01*
X19700000Y-35700000D01*
X20650000Y-35700000D01*
X20650000Y-34750000D01*
X20152155Y-34750000D01*
X20092627Y-34756401D01*
X20092620Y-34756403D01*
X19957913Y-34806645D01*
X19957906Y-34806649D01*
X19842812Y-34892809D01*
X19842809Y-34892812D01*
X19756649Y-35007906D01*
X19756645Y-35007913D01*
X19706403Y-35142620D01*
X19706401Y-35142627D01*
X19700000Y-35202155D01*
X17102028Y-35202155D01*
X17093626Y-35196541D01*
X17007598Y-35139059D01*
X16816420Y-35059870D01*
X16816412Y-35059868D01*
X16613469Y-35019500D01*
X16613465Y-35019500D01*
X16406535Y-35019500D01*
X16406530Y-35019500D01*
X16203587Y-35059868D01*
X16203579Y-35059870D01*
X16012403Y-35139058D01*
X15840342Y-35254024D01*
X15694024Y-35400342D01*
X15579058Y-35572403D01*
X15499870Y-35763579D01*
X15499868Y-35763587D01*
X15459500Y-35966530D01*
X15459500Y-36002324D01*
X15439815Y-36069363D01*
X15387011Y-36115118D01*
X15317853Y-36125062D01*
X15254297Y-36096037D01*
X15247819Y-36090005D01*
X12584344Y-33426530D01*
X15459500Y-33426530D01*
X15459500Y-33633469D01*
X15499868Y-33836412D01*
X15499870Y-33836420D01*
X15579059Y-34027598D01*
X15617821Y-34085610D01*
X15694024Y-34199657D01*
X15840342Y-34345975D01*
X15840345Y-34345977D01*
X16012402Y-34460941D01*
X16203580Y-34540130D01*
X16406530Y-34580499D01*
X16406534Y-34580500D01*
X16406535Y-34580500D01*
X16613466Y-34580500D01*
X16613467Y-34580499D01*
X16816420Y-34540130D01*
X17007598Y-34460941D01*
X17179655Y-34345977D01*
X17325977Y-34199655D01*
X17440941Y-34027598D01*
X17520130Y-33836420D01*
X17560500Y-33633465D01*
X17560500Y-33426535D01*
X17520130Y-33223580D01*
X17440941Y-33032402D01*
X17325977Y-32860345D01*
X17325975Y-32860342D01*
X17179657Y-32714024D01*
X17093626Y-32656541D01*
X17007598Y-32599059D01*
X16816420Y-32519870D01*
X16816412Y-32519868D01*
X16613469Y-32479500D01*
X16613465Y-32479500D01*
X16406535Y-32479500D01*
X16406530Y-32479500D01*
X16203587Y-32519868D01*
X16203579Y-32519870D01*
X16012403Y-32599058D01*
X15840342Y-32714024D01*
X15694024Y-32860342D01*
X15579058Y-33032403D01*
X15499870Y-33223579D01*
X15499868Y-33223587D01*
X15459500Y-33426530D01*
X12584344Y-33426530D01*
X12287316Y-33129502D01*
X12287314Y-33129500D01*
X12230250Y-33096554D01*
X12173187Y-33063608D01*
X12109539Y-33046554D01*
X12045892Y-33029500D01*
X12045891Y-33029500D01*
X9885281Y-33029500D01*
X9818242Y-33009815D01*
X9782180Y-32974392D01*
X9705977Y-32860345D01*
X9705975Y-32860342D01*
X9559657Y-32714024D01*
X9473626Y-32656541D01*
X9387598Y-32599059D01*
X9196420Y-32519870D01*
X9196412Y-32519868D01*
X8993469Y-32479500D01*
X8993465Y-32479500D01*
X8786535Y-32479500D01*
X8786530Y-32479500D01*
X8583587Y-32519868D01*
X8583579Y-32519870D01*
X8392403Y-32599058D01*
X8220342Y-32714024D01*
X8074024Y-32860342D01*
X7959058Y-33032403D01*
X7879870Y-33223579D01*
X7879868Y-33223587D01*
X7839500Y-33426530D01*
X500500Y-33426530D01*
X500500Y-30518543D01*
X2789499Y-30518543D01*
X2827947Y-30711829D01*
X2827950Y-30711839D01*
X2903364Y-30893907D01*
X2903371Y-30893920D01*
X3012860Y-31057781D01*
X3012863Y-31057785D01*
X3152214Y-31197136D01*
X3152218Y-31197139D01*
X3316079Y-31306628D01*
X3316092Y-31306635D01*
X3498160Y-31382049D01*
X3498165Y-31382051D01*
X3498169Y-31382051D01*
X3498170Y-31382052D01*
X3691456Y-31420500D01*
X3691459Y-31420500D01*
X3888543Y-31420500D01*
X4018582Y-31394632D01*
X4081835Y-31382051D01*
X4263914Y-31306632D01*
X4427782Y-31197139D01*
X4567139Y-31057782D01*
X4676632Y-30893914D01*
X4679689Y-30886535D01*
X4679691Y-30886530D01*
X7839500Y-30886530D01*
X7839500Y-31093469D01*
X7879868Y-31296412D01*
X7879870Y-31296420D01*
X7959058Y-31487596D01*
X8074024Y-31659657D01*
X8220342Y-31805975D01*
X8220345Y-31805977D01*
X8392402Y-31920941D01*
X8583580Y-32000130D01*
X8786530Y-32040499D01*
X8786534Y-32040500D01*
X8786535Y-32040500D01*
X8993466Y-32040500D01*
X8993467Y-32040499D01*
X9196420Y-32000130D01*
X9387598Y-31920941D01*
X9559655Y-31805977D01*
X9705977Y-31659655D01*
X9820941Y-31487598D01*
X9900130Y-31296420D01*
X9940500Y-31093465D01*
X9940500Y-30886535D01*
X9940500Y-30886534D01*
X9940500Y-30886532D01*
X9927522Y-30821291D01*
X9913740Y-30752005D01*
X9919967Y-30682417D01*
X9947673Y-30640138D01*
X10330994Y-30256819D01*
X10392317Y-30223334D01*
X10418675Y-30220500D01*
X15528750Y-30220500D01*
X15595789Y-30240185D01*
X15641544Y-30292989D01*
X15651488Y-30362147D01*
X15631852Y-30413390D01*
X15579059Y-30492399D01*
X15579059Y-30492400D01*
X15499870Y-30683579D01*
X15499868Y-30683587D01*
X15459500Y-30886530D01*
X15459500Y-31093469D01*
X15499868Y-31296412D01*
X15499870Y-31296420D01*
X15579058Y-31487596D01*
X15694024Y-31659657D01*
X15840342Y-31805975D01*
X15840345Y-31805977D01*
X16012402Y-31920941D01*
X16203580Y-32000130D01*
X16406530Y-32040499D01*
X16406534Y-32040500D01*
X16406535Y-32040500D01*
X16613466Y-32040500D01*
X16613467Y-32040499D01*
X16816420Y-32000130D01*
X17007598Y-31920941D01*
X17179655Y-31805977D01*
X17325977Y-31659655D01*
X17440941Y-31487598D01*
X17520130Y-31296420D01*
X17560500Y-31093465D01*
X17560500Y-30886535D01*
X17560499Y-30886532D01*
X17560499Y-30886530D01*
X17525749Y-30711829D01*
X17520130Y-30683580D01*
X17440941Y-30492402D01*
X17440940Y-30492400D01*
X17440940Y-30492399D01*
X17388148Y-30413390D01*
X17367270Y-30346713D01*
X17385755Y-30279333D01*
X17437734Y-30232643D01*
X17491250Y-30220500D01*
X21055890Y-30220500D01*
X21055892Y-30220500D01*
X21183186Y-30186392D01*
X21297314Y-30120500D01*
X23370995Y-28046819D01*
X23432318Y-28013334D01*
X23458676Y-28010500D01*
X23781677Y-28010500D01*
X23848716Y-28030185D01*
X23892162Y-28078205D01*
X23923240Y-28139199D01*
X24034310Y-28292073D01*
X24167927Y-28425690D01*
X24320801Y-28536760D01*
X24400347Y-28577290D01*
X24489163Y-28622545D01*
X24489165Y-28622545D01*
X24489168Y-28622547D01*
X24585497Y-28653846D01*
X24668881Y-28680940D01*
X24855514Y-28710500D01*
X24855519Y-28710500D01*
X26344486Y-28710500D01*
X26531118Y-28680940D01*
X26710832Y-28622547D01*
X26879199Y-28536760D01*
X27032073Y-28425690D01*
X27165690Y-28292073D01*
X27276760Y-28139199D01*
X27307838Y-28078205D01*
X27355813Y-28027409D01*
X27418323Y-28010500D01*
X36281677Y-28010500D01*
X36348716Y-28030185D01*
X36392162Y-28078205D01*
X36423240Y-28139199D01*
X36534310Y-28292073D01*
X36667927Y-28425690D01*
X36820801Y-28536760D01*
X36900347Y-28577290D01*
X36989163Y-28622545D01*
X36989165Y-28622545D01*
X36989168Y-28622547D01*
X37085497Y-28653846D01*
X37168881Y-28680940D01*
X37355514Y-28710500D01*
X37355519Y-28710500D01*
X38844486Y-28710500D01*
X39031118Y-28680940D01*
X39210832Y-28622547D01*
X39379199Y-28536760D01*
X39532073Y-28425690D01*
X39665690Y-28292073D01*
X39776760Y-28139199D01*
X39862547Y-27970832D01*
X39920940Y-27791118D01*
X39922647Y-27780342D01*
X39950500Y-27604486D01*
X39950500Y-27415513D01*
X39920940Y-27228881D01*
X39882150Y-27109500D01*
X39862547Y-27049168D01*
X39862545Y-27049165D01*
X39862545Y-27049163D01*
X39804195Y-26934646D01*
X39776760Y-26880801D01*
X39665690Y-26727927D01*
X39532073Y-26594310D01*
X39379199Y-26483240D01*
X39210836Y-26397454D01*
X39031118Y-26339059D01*
X38844486Y-26309500D01*
X38844481Y-26309500D01*
X37355519Y-26309500D01*
X37355514Y-26309500D01*
X37168881Y-26339059D01*
X36989163Y-26397454D01*
X36820800Y-26483240D01*
X36741990Y-26540500D01*
X36667927Y-26594310D01*
X36667925Y-26594312D01*
X36667924Y-26594312D01*
X36534312Y-26727924D01*
X36534312Y-26727925D01*
X36534310Y-26727927D01*
X36509329Y-26762310D01*
X36423240Y-26880800D01*
X36392162Y-26941795D01*
X36344187Y-26992591D01*
X36281677Y-27009500D01*
X27418323Y-27009500D01*
X27351284Y-26989815D01*
X27307838Y-26941795D01*
X27298778Y-26924014D01*
X27276760Y-26880801D01*
X27165690Y-26727927D01*
X27032073Y-26594310D01*
X26879199Y-26483240D01*
X26710836Y-26397454D01*
X26531118Y-26339059D01*
X26344486Y-26309500D01*
X26344481Y-26309500D01*
X24855519Y-26309500D01*
X24855514Y-26309500D01*
X24668881Y-26339059D01*
X24489163Y-26397454D01*
X24320800Y-26483240D01*
X24241990Y-26540500D01*
X24167927Y-26594310D01*
X24167925Y-26594312D01*
X24167924Y-26594312D01*
X24034312Y-26727924D01*
X24034312Y-26727925D01*
X24034310Y-26727927D01*
X24009329Y-26762310D01*
X23923240Y-26880800D01*
X23892162Y-26941795D01*
X23844187Y-26992591D01*
X23781677Y-27009500D01*
X23134108Y-27009500D01*
X23006812Y-27043608D01*
X22892686Y-27109500D01*
X22892683Y-27109502D01*
X20819005Y-29183181D01*
X20757682Y-29216666D01*
X20731324Y-29219500D01*
X17491250Y-29219500D01*
X17424211Y-29199815D01*
X17378456Y-29147011D01*
X17368512Y-29077853D01*
X17388148Y-29026610D01*
X17440940Y-28947600D01*
X17440940Y-28947599D01*
X17440941Y-28947598D01*
X17520130Y-28756420D01*
X17560500Y-28553465D01*
X17560500Y-28346535D01*
X17520130Y-28143580D01*
X17440941Y-27952402D01*
X17325977Y-27780345D01*
X17325975Y-27780342D01*
X17179657Y-27634024D01*
X17093626Y-27576541D01*
X17007598Y-27519059D01*
X16816420Y-27439870D01*
X16816412Y-27439868D01*
X16613469Y-27399500D01*
X16613465Y-27399500D01*
X16406535Y-27399500D01*
X16406530Y-27399500D01*
X16203587Y-27439868D01*
X16203579Y-27439870D01*
X16012403Y-27519058D01*
X15840342Y-27634024D01*
X15694024Y-27780342D01*
X15579058Y-27952403D01*
X15499870Y-28143579D01*
X15499868Y-28143587D01*
X15459500Y-28346530D01*
X15459500Y-28553469D01*
X15499868Y-28756412D01*
X15499870Y-28756420D01*
X15579059Y-28947599D01*
X15579059Y-28947600D01*
X15631852Y-29026610D01*
X15652730Y-29093287D01*
X15634245Y-29160667D01*
X15582266Y-29207357D01*
X15528750Y-29219500D01*
X10225892Y-29219500D01*
X10094107Y-29219500D01*
X9966814Y-29253608D01*
X9966813Y-29253608D01*
X9966811Y-29253609D01*
X9966810Y-29253609D01*
X9861835Y-29314217D01*
X9861832Y-29314218D01*
X9852686Y-29319500D01*
X9759500Y-29412686D01*
X9759498Y-29412688D01*
X9713281Y-29458904D01*
X9713243Y-29458942D01*
X9239863Y-29932322D01*
X9178540Y-29965807D01*
X9127991Y-29966258D01*
X8993469Y-29939500D01*
X8993465Y-29939500D01*
X8786535Y-29939500D01*
X8786530Y-29939500D01*
X8583587Y-29979868D01*
X8583579Y-29979870D01*
X8392403Y-30059058D01*
X8220342Y-30174024D01*
X8074024Y-30320342D01*
X7959058Y-30492403D01*
X7879870Y-30683579D01*
X7879868Y-30683587D01*
X7839500Y-30886530D01*
X4679691Y-30886530D01*
X4752049Y-30711839D01*
X4752051Y-30711835D01*
X4790500Y-30518541D01*
X4790500Y-30321459D01*
X4790500Y-30321456D01*
X4752052Y-30128170D01*
X4752051Y-30128169D01*
X4752051Y-30128165D01*
X4690344Y-29979189D01*
X4676635Y-29946092D01*
X4676628Y-29946079D01*
X4567139Y-29782218D01*
X4567136Y-29782214D01*
X4427785Y-29642863D01*
X4427781Y-29642860D01*
X4263920Y-29533371D01*
X4263907Y-29533364D01*
X4081839Y-29457950D01*
X4081829Y-29457947D01*
X3888543Y-29419500D01*
X3888541Y-29419500D01*
X3691459Y-29419500D01*
X3691457Y-29419500D01*
X3498170Y-29457947D01*
X3498160Y-29457950D01*
X3316092Y-29533364D01*
X3316079Y-29533371D01*
X3152218Y-29642860D01*
X3152214Y-29642863D01*
X3012863Y-29782214D01*
X3012860Y-29782218D01*
X2903371Y-29946079D01*
X2903364Y-29946092D01*
X2827950Y-30128160D01*
X2827947Y-30128170D01*
X2789500Y-30321456D01*
X2789500Y-30321459D01*
X2789500Y-30518541D01*
X2789500Y-30518543D01*
X2789499Y-30518543D01*
X500500Y-30518543D01*
X500500Y-25638543D01*
X2789499Y-25638543D01*
X2827947Y-25831829D01*
X2827950Y-25831839D01*
X2903364Y-26013907D01*
X2903371Y-26013920D01*
X3012860Y-26177781D01*
X3012863Y-26177785D01*
X3152214Y-26317136D01*
X3152218Y-26317139D01*
X3316079Y-26426628D01*
X3316092Y-26426635D01*
X3498160Y-26502049D01*
X3498165Y-26502051D01*
X3498169Y-26502051D01*
X3498170Y-26502052D01*
X3691456Y-26540500D01*
X3691459Y-26540500D01*
X3888543Y-26540500D01*
X4018582Y-26514632D01*
X4081835Y-26502051D01*
X4263914Y-26426632D01*
X4427782Y-26317139D01*
X4567139Y-26177782D01*
X4676632Y-26013914D01*
X4752051Y-25831835D01*
X4757085Y-25806530D01*
X7839500Y-25806530D01*
X7839500Y-26013469D01*
X7872184Y-26177781D01*
X7879870Y-26216420D01*
X7959059Y-26407598D01*
X7971777Y-26426632D01*
X8074024Y-26579657D01*
X8220342Y-26725975D01*
X8220345Y-26725977D01*
X8392402Y-26840941D01*
X8583580Y-26920130D01*
X8786530Y-26960499D01*
X8786534Y-26960500D01*
X8786535Y-26960500D01*
X8993466Y-26960500D01*
X8993467Y-26960499D01*
X9196420Y-26920130D01*
X9387598Y-26840941D01*
X9557238Y-26727591D01*
X9623915Y-26706714D01*
X9691295Y-26725199D01*
X9737985Y-26777178D01*
X9749161Y-26846148D01*
X9721275Y-26910211D01*
X9713809Y-26918375D01*
X9239862Y-27392322D01*
X9178539Y-27425807D01*
X9127990Y-27426258D01*
X8993469Y-27399500D01*
X8993465Y-27399500D01*
X8786535Y-27399500D01*
X8786530Y-27399500D01*
X8583587Y-27439868D01*
X8583579Y-27439870D01*
X8392403Y-27519058D01*
X8220342Y-27634024D01*
X8074024Y-27780342D01*
X7959058Y-27952403D01*
X7879870Y-28143579D01*
X7879868Y-28143587D01*
X7839500Y-28346530D01*
X7839500Y-28553469D01*
X7853241Y-28622547D01*
X7879870Y-28756420D01*
X7959059Y-28947598D01*
X8011853Y-29026610D01*
X8074024Y-29119657D01*
X8220342Y-29265975D01*
X8220345Y-29265977D01*
X8392402Y-29380941D01*
X8583580Y-29460130D01*
X8786530Y-29500499D01*
X8786534Y-29500500D01*
X8786535Y-29500500D01*
X8993466Y-29500500D01*
X8993467Y-29500499D01*
X9196420Y-29460130D01*
X9387598Y-29380941D01*
X9559655Y-29265977D01*
X9705977Y-29119655D01*
X9820941Y-28947598D01*
X9900130Y-28756420D01*
X9940500Y-28553465D01*
X9940500Y-28346535D01*
X9913740Y-28212006D01*
X9919967Y-28142418D01*
X9947674Y-28100138D01*
X12241283Y-25806530D01*
X15459500Y-25806530D01*
X15459500Y-26013469D01*
X15492184Y-26177781D01*
X15499870Y-26216420D01*
X15579059Y-26407598D01*
X15591777Y-26426632D01*
X15694024Y-26579657D01*
X15840342Y-26725975D01*
X15840345Y-26725977D01*
X16012402Y-26840941D01*
X16203580Y-26920130D01*
X16406530Y-26960499D01*
X16406534Y-26960500D01*
X16406535Y-26960500D01*
X16613466Y-26960500D01*
X16613467Y-26960499D01*
X16816420Y-26920130D01*
X17007598Y-26840941D01*
X17179655Y-26725977D01*
X17325977Y-26579655D01*
X17440941Y-26407598D01*
X17520130Y-26216420D01*
X17558886Y-26021577D01*
X20049500Y-26021577D01*
X20049500Y-26218422D01*
X20080290Y-26412826D01*
X20141117Y-26600029D01*
X20195476Y-26706714D01*
X20230476Y-26775405D01*
X20346172Y-26934646D01*
X20485354Y-27073828D01*
X20644595Y-27189524D01*
X20721838Y-27228881D01*
X20819970Y-27278882D01*
X20819972Y-27278882D01*
X20819975Y-27278884D01*
X20920317Y-27311487D01*
X21007173Y-27339709D01*
X21201578Y-27370500D01*
X21201583Y-27370500D01*
X21398422Y-27370500D01*
X21592826Y-27339709D01*
X21780025Y-27278884D01*
X21955405Y-27189524D01*
X22114646Y-27073828D01*
X22253828Y-26934646D01*
X22369524Y-26775405D01*
X22458884Y-26600025D01*
X22519709Y-26412826D01*
X22522144Y-26397453D01*
X22550500Y-26218422D01*
X22550500Y-26021577D01*
X22519709Y-25827173D01*
X22458882Y-25639970D01*
X22369523Y-25464594D01*
X22253828Y-25305354D01*
X22114646Y-25166172D01*
X21955405Y-25050476D01*
X21780029Y-24961117D01*
X21592826Y-24900290D01*
X21398422Y-24869500D01*
X21398417Y-24869500D01*
X21201583Y-24869500D01*
X21201578Y-24869500D01*
X21007173Y-24900290D01*
X20819970Y-24961117D01*
X20644594Y-25050476D01*
X20553741Y-25116485D01*
X20485354Y-25166172D01*
X20485352Y-25166174D01*
X20485351Y-25166174D01*
X20346174Y-25305351D01*
X20346174Y-25305352D01*
X20346172Y-25305354D01*
X20296485Y-25373741D01*
X20230476Y-25464594D01*
X20141117Y-25639970D01*
X20080290Y-25827173D01*
X20049500Y-26021577D01*
X17558886Y-26021577D01*
X17560500Y-26013465D01*
X17560500Y-25806535D01*
X17520130Y-25603580D01*
X17440941Y-25412402D01*
X17325977Y-25240345D01*
X17325975Y-25240342D01*
X17179657Y-25094024D01*
X17093626Y-25036541D01*
X17007598Y-24979059D01*
X16964282Y-24961117D01*
X16816420Y-24899870D01*
X16816414Y-24899868D01*
X16763617Y-24889366D01*
X16701706Y-24856981D01*
X16667132Y-24796265D01*
X16670873Y-24726495D01*
X16711739Y-24669823D01*
X16768413Y-24645275D01*
X16814422Y-24637988D01*
X17009031Y-24574755D01*
X17148643Y-24503618D01*
X16510001Y-23864974D01*
X16510000Y-23864974D01*
X15871354Y-24503619D01*
X16010965Y-24574753D01*
X16010972Y-24574756D01*
X16205577Y-24637988D01*
X16251586Y-24645275D01*
X16314722Y-24675204D01*
X16351653Y-24734515D01*
X16350657Y-24804378D01*
X16312047Y-24862611D01*
X16256383Y-24889366D01*
X16203584Y-24899868D01*
X16203579Y-24899870D01*
X16012403Y-24979058D01*
X15840342Y-25094024D01*
X15694024Y-25240342D01*
X15579058Y-25412403D01*
X15499870Y-25603579D01*
X15499868Y-25603587D01*
X15459500Y-25806530D01*
X12241283Y-25806530D01*
X13090500Y-24957314D01*
X13115219Y-24914499D01*
X13156392Y-24843186D01*
X13190500Y-24715892D01*
X13190500Y-23267682D01*
X15210000Y-23267682D01*
X15210000Y-23472317D01*
X15242010Y-23674418D01*
X15242010Y-23674421D01*
X15305241Y-23869023D01*
X15305241Y-23869024D01*
X15376379Y-24008644D01*
X15376380Y-24008644D01*
X16015025Y-23370000D01*
X15962364Y-23317339D01*
X16110000Y-23317339D01*
X16110000Y-23422661D01*
X16137259Y-23524394D01*
X16189920Y-23615606D01*
X16264394Y-23690080D01*
X16355606Y-23742741D01*
X16457339Y-23770000D01*
X16562661Y-23770000D01*
X16664394Y-23742741D01*
X16755606Y-23690080D01*
X16830080Y-23615606D01*
X16882741Y-23524394D01*
X16910000Y-23422661D01*
X16910000Y-23370000D01*
X17004974Y-23370000D01*
X17643618Y-24008643D01*
X17714755Y-23869031D01*
X17777990Y-23674417D01*
X17810000Y-23472317D01*
X17810000Y-23267682D01*
X17777990Y-23065582D01*
X17714756Y-22870972D01*
X17714753Y-22870965D01*
X17643619Y-22731354D01*
X17004974Y-23370000D01*
X16910000Y-23370000D01*
X16910000Y-23317339D01*
X16882741Y-23215606D01*
X16830080Y-23124394D01*
X16755606Y-23049920D01*
X16664394Y-22997259D01*
X16562661Y-22970000D01*
X16457339Y-22970000D01*
X16355606Y-22997259D01*
X16264394Y-23049920D01*
X16189920Y-23124394D01*
X16137259Y-23215606D01*
X16110000Y-23317339D01*
X15962364Y-23317339D01*
X15376379Y-22731354D01*
X15305242Y-22870973D01*
X15305242Y-22870974D01*
X15242010Y-23065578D01*
X15242010Y-23065581D01*
X15210000Y-23267682D01*
X13190500Y-23267682D01*
X13190500Y-20726530D01*
X15459500Y-20726530D01*
X15459500Y-20933469D01*
X15499868Y-21136412D01*
X15499870Y-21136420D01*
X15579058Y-21327596D01*
X15694024Y-21499657D01*
X15840342Y-21645975D01*
X15840345Y-21645977D01*
X16012402Y-21760941D01*
X16203580Y-21840130D01*
X16233696Y-21846120D01*
X16256381Y-21850633D01*
X16318292Y-21883017D01*
X16352866Y-21943733D01*
X16349127Y-22013502D01*
X16308261Y-22070175D01*
X16251589Y-22094723D01*
X16205579Y-22102010D01*
X16205578Y-22102010D01*
X16010974Y-22165242D01*
X16010973Y-22165242D01*
X15871354Y-22236379D01*
X16510000Y-22875025D01*
X16510001Y-22875025D01*
X16969511Y-22415513D01*
X23749500Y-22415513D01*
X23749500Y-22604486D01*
X23779059Y-22791118D01*
X23837454Y-22970836D01*
X23885730Y-23065582D01*
X23923240Y-23139199D01*
X24034310Y-23292073D01*
X24167927Y-23425690D01*
X24320801Y-23536760D01*
X24400347Y-23577290D01*
X24489163Y-23622545D01*
X24489165Y-23622545D01*
X24489168Y-23622547D01*
X24585497Y-23653846D01*
X24668881Y-23680940D01*
X24855514Y-23710500D01*
X24855519Y-23710500D01*
X26344486Y-23710500D01*
X26531118Y-23680940D01*
X26545029Y-23676420D01*
X26710832Y-23622547D01*
X26879199Y-23536760D01*
X27032073Y-23425690D01*
X27165690Y-23292073D01*
X27276760Y-23139199D01*
X27362547Y-22970832D01*
X27420940Y-22791118D01*
X27435317Y-22700345D01*
X27450500Y-22604486D01*
X27450500Y-22415513D01*
X36249500Y-22415513D01*
X36249500Y-22604486D01*
X36279059Y-22791118D01*
X36337454Y-22970836D01*
X36385730Y-23065582D01*
X36423240Y-23139199D01*
X36534310Y-23292073D01*
X36667927Y-23425690D01*
X36820801Y-23536760D01*
X36900347Y-23577290D01*
X36989163Y-23622545D01*
X36989165Y-23622545D01*
X36989168Y-23622547D01*
X37085497Y-23653846D01*
X37168881Y-23680940D01*
X37355514Y-23710500D01*
X37355519Y-23710500D01*
X38844486Y-23710500D01*
X39031118Y-23680940D01*
X39045029Y-23676420D01*
X39210832Y-23622547D01*
X39379199Y-23536760D01*
X39532073Y-23425690D01*
X39665690Y-23292073D01*
X39776760Y-23139199D01*
X39862547Y-22970832D01*
X39920940Y-22791118D01*
X39935317Y-22700345D01*
X39950500Y-22604486D01*
X39950500Y-22415513D01*
X39920940Y-22228881D01*
X39893846Y-22145497D01*
X39862547Y-22049168D01*
X39862545Y-22049165D01*
X39862545Y-22049163D01*
X39776759Y-21880800D01*
X39776541Y-21880500D01*
X39665690Y-21727927D01*
X39532073Y-21594310D01*
X39379199Y-21483240D01*
X39210836Y-21397454D01*
X39031118Y-21339059D01*
X38844486Y-21309500D01*
X38844481Y-21309500D01*
X37355519Y-21309500D01*
X37355514Y-21309500D01*
X37168881Y-21339059D01*
X36989163Y-21397454D01*
X36820800Y-21483240D01*
X36733579Y-21546610D01*
X36667927Y-21594310D01*
X36667925Y-21594312D01*
X36667924Y-21594312D01*
X36534312Y-21727924D01*
X36534312Y-21727925D01*
X36534310Y-21727927D01*
X36510324Y-21760941D01*
X36423240Y-21880800D01*
X36337454Y-22049163D01*
X36279059Y-22228881D01*
X36249500Y-22415513D01*
X27450500Y-22415513D01*
X27420940Y-22228881D01*
X27393846Y-22145497D01*
X27362547Y-22049168D01*
X27362545Y-22049165D01*
X27362545Y-22049163D01*
X27276759Y-21880800D01*
X27276541Y-21880500D01*
X27165690Y-21727927D01*
X27032073Y-21594310D01*
X26879199Y-21483240D01*
X26710836Y-21397454D01*
X26531118Y-21339059D01*
X26344486Y-21309500D01*
X26344481Y-21309500D01*
X24855519Y-21309500D01*
X24855514Y-21309500D01*
X24668881Y-21339059D01*
X24489163Y-21397454D01*
X24320800Y-21483240D01*
X24233579Y-21546610D01*
X24167927Y-21594310D01*
X24167925Y-21594312D01*
X24167924Y-21594312D01*
X24034312Y-21727924D01*
X24034312Y-21727925D01*
X24034310Y-21727927D01*
X24010324Y-21760941D01*
X23923240Y-21880800D01*
X23837454Y-22049163D01*
X23779059Y-22228881D01*
X23749500Y-22415513D01*
X16969511Y-22415513D01*
X17062058Y-22322966D01*
X17148644Y-22236379D01*
X17009024Y-22165241D01*
X16814419Y-22102010D01*
X16768411Y-22094723D01*
X16705276Y-22064794D01*
X16668345Y-22005482D01*
X16669343Y-21935619D01*
X16707953Y-21877387D01*
X16763616Y-21850633D01*
X16816420Y-21840130D01*
X17007598Y-21760941D01*
X17179655Y-21645977D01*
X17325977Y-21499655D01*
X17440941Y-21327598D01*
X17520130Y-21136420D01*
X17560500Y-20933465D01*
X17560500Y-20726535D01*
X17520130Y-20523580D01*
X17440941Y-20332402D01*
X17325977Y-20160345D01*
X17325975Y-20160342D01*
X17179657Y-20014024D01*
X17093626Y-19956541D01*
X17007598Y-19899059D01*
X16816420Y-19819870D01*
X16816412Y-19819868D01*
X16613469Y-19779500D01*
X16613465Y-19779500D01*
X16406535Y-19779500D01*
X16406530Y-19779500D01*
X16203587Y-19819868D01*
X16203579Y-19819870D01*
X16012403Y-19899058D01*
X15840342Y-20014024D01*
X15694024Y-20160342D01*
X15579058Y-20332403D01*
X15499870Y-20523579D01*
X15499868Y-20523587D01*
X15459500Y-20726530D01*
X13190500Y-20726530D01*
X13190500Y-18186530D01*
X15459500Y-18186530D01*
X15459500Y-18393469D01*
X15499472Y-18594421D01*
X15499870Y-18596420D01*
X15579059Y-18787598D01*
X15636541Y-18873626D01*
X15694024Y-18959657D01*
X15840342Y-19105975D01*
X15840345Y-19105977D01*
X16012402Y-19220941D01*
X16203580Y-19300130D01*
X16406530Y-19340499D01*
X16406534Y-19340500D01*
X16406535Y-19340500D01*
X16613466Y-19340500D01*
X16613467Y-19340499D01*
X16816420Y-19300130D01*
X17007598Y-19220941D01*
X17179655Y-19105977D01*
X17325977Y-18959655D01*
X17440941Y-18787598D01*
X17520130Y-18596420D01*
X17560500Y-18393465D01*
X17560500Y-18186535D01*
X17520130Y-17983580D01*
X17440941Y-17792402D01*
X17325977Y-17620345D01*
X17325975Y-17620342D01*
X17179657Y-17474024D01*
X17071321Y-17401637D01*
X17007598Y-17359059D01*
X16816420Y-17279870D01*
X16816412Y-17279868D01*
X16613469Y-17239500D01*
X16613465Y-17239500D01*
X16406535Y-17239500D01*
X16406530Y-17239500D01*
X16203587Y-17279868D01*
X16203579Y-17279870D01*
X16012403Y-17359058D01*
X15840342Y-17474024D01*
X15694024Y-17620342D01*
X15579058Y-17792403D01*
X15499870Y-17983579D01*
X15499868Y-17983587D01*
X15459500Y-18186530D01*
X13190500Y-18186530D01*
X13190500Y-17468676D01*
X13210185Y-17401637D01*
X13226819Y-17380995D01*
X14188159Y-16419655D01*
X15296399Y-15311414D01*
X15357720Y-15277931D01*
X15427412Y-15282915D01*
X15483345Y-15324787D01*
X15507762Y-15390251D01*
X15500145Y-15437300D01*
X15501638Y-15437753D01*
X15499868Y-15443587D01*
X15459500Y-15646530D01*
X15459500Y-15853469D01*
X15499868Y-16056412D01*
X15499870Y-16056420D01*
X15579058Y-16247596D01*
X15694024Y-16419657D01*
X15840342Y-16565975D01*
X15840345Y-16565977D01*
X16012402Y-16680941D01*
X16203580Y-16760130D01*
X16390885Y-16797387D01*
X16406530Y-16800499D01*
X16406534Y-16800500D01*
X16406535Y-16800500D01*
X16613466Y-16800500D01*
X16613467Y-16800499D01*
X16816420Y-16760130D01*
X17007598Y-16680941D01*
X17179655Y-16565977D01*
X17325977Y-16419655D01*
X17440941Y-16247598D01*
X17520130Y-16056420D01*
X17560500Y-15853465D01*
X17560500Y-15646535D01*
X17520130Y-15443580D01*
X17440941Y-15252402D01*
X17440940Y-15252400D01*
X17440940Y-15252399D01*
X17388148Y-15173390D01*
X17367270Y-15106713D01*
X17385755Y-15039333D01*
X17437734Y-14992643D01*
X17491250Y-14980500D01*
X20185890Y-14980500D01*
X20185892Y-14980500D01*
X20313186Y-14946392D01*
X20427314Y-14880500D01*
X23719988Y-11587824D01*
X23781309Y-11554341D01*
X23851001Y-11559325D01*
X23906934Y-11601197D01*
X23918152Y-11619214D01*
X23923240Y-11629199D01*
X24034310Y-11782073D01*
X24167927Y-11915690D01*
X24320801Y-12026760D01*
X24400347Y-12067290D01*
X24489163Y-12112545D01*
X24489165Y-12112545D01*
X24489168Y-12112547D01*
X24585497Y-12143846D01*
X24668881Y-12170940D01*
X24855514Y-12200500D01*
X24855519Y-12200500D01*
X26344486Y-12200500D01*
X26531118Y-12170940D01*
X26566326Y-12159500D01*
X26710832Y-12112547D01*
X26879199Y-12026760D01*
X27032073Y-11915690D01*
X27165690Y-11782073D01*
X27276760Y-11629199D01*
X27307838Y-11568205D01*
X27355813Y-11517409D01*
X27418323Y-11500500D01*
X36281677Y-11500500D01*
X36348716Y-11520185D01*
X36392162Y-11568205D01*
X36408842Y-11600941D01*
X36423240Y-11629199D01*
X36534310Y-11782073D01*
X36667927Y-11915690D01*
X36820801Y-12026760D01*
X36900347Y-12067290D01*
X36989163Y-12112545D01*
X36989165Y-12112545D01*
X36989168Y-12112547D01*
X37085497Y-12143846D01*
X37168881Y-12170940D01*
X37355514Y-12200500D01*
X37355519Y-12200500D01*
X38844486Y-12200500D01*
X39031118Y-12170940D01*
X39066326Y-12159500D01*
X39210832Y-12112547D01*
X39379199Y-12026760D01*
X39532073Y-11915690D01*
X39665690Y-11782073D01*
X39776760Y-11629199D01*
X39862547Y-11460832D01*
X39920940Y-11281118D01*
X39938920Y-11167596D01*
X39950500Y-11094486D01*
X39950500Y-10905513D01*
X39920940Y-10718881D01*
X39871439Y-10566534D01*
X39862547Y-10539168D01*
X39862545Y-10539165D01*
X39862545Y-10539163D01*
X39776759Y-10370800D01*
X39665690Y-10217927D01*
X39532073Y-10084310D01*
X39379199Y-9973240D01*
X39210836Y-9887454D01*
X39031118Y-9829059D01*
X38844486Y-9799500D01*
X38844481Y-9799500D01*
X37355519Y-9799500D01*
X37355514Y-9799500D01*
X37168881Y-9829059D01*
X36989163Y-9887454D01*
X36820800Y-9973240D01*
X36783498Y-10000342D01*
X36667927Y-10084310D01*
X36667925Y-10084312D01*
X36667924Y-10084312D01*
X36534312Y-10217924D01*
X36534312Y-10217925D01*
X36534310Y-10217927D01*
X36486610Y-10283579D01*
X36423240Y-10370800D01*
X36392162Y-10431795D01*
X36344187Y-10482591D01*
X36281677Y-10499500D01*
X27418323Y-10499500D01*
X27351284Y-10479815D01*
X27307838Y-10431795D01*
X27276759Y-10370800D01*
X27165690Y-10217927D01*
X27032073Y-10084310D01*
X26879199Y-9973240D01*
X26710836Y-9887454D01*
X26531118Y-9829059D01*
X26344486Y-9799500D01*
X26344481Y-9799500D01*
X24855519Y-9799500D01*
X24855514Y-9799500D01*
X24668881Y-9829059D01*
X24489163Y-9887454D01*
X24320800Y-9973240D01*
X24283498Y-10000342D01*
X24167927Y-10084310D01*
X24167925Y-10084312D01*
X24167924Y-10084312D01*
X24034312Y-10217924D01*
X24034312Y-10217925D01*
X24034310Y-10217927D01*
X23986610Y-10283579D01*
X23923240Y-10370800D01*
X23892162Y-10431795D01*
X23844187Y-10482591D01*
X23781677Y-10499500D01*
X23534107Y-10499500D01*
X23406812Y-10533608D01*
X23292686Y-10599500D01*
X23292683Y-10599502D01*
X19949005Y-13943181D01*
X19887682Y-13976666D01*
X19861324Y-13979500D01*
X17491250Y-13979500D01*
X17424211Y-13959815D01*
X17378456Y-13907011D01*
X17368512Y-13837853D01*
X17388148Y-13786610D01*
X17440940Y-13707600D01*
X17440940Y-13707599D01*
X17440941Y-13707598D01*
X17520130Y-13516420D01*
X17560500Y-13313465D01*
X17560500Y-13106535D01*
X17520130Y-12903580D01*
X17440941Y-12712402D01*
X17325977Y-12540345D01*
X17325975Y-12540342D01*
X17179657Y-12394024D01*
X17093626Y-12336541D01*
X17007598Y-12279059D01*
X16816420Y-12199870D01*
X16816412Y-12199868D01*
X16613469Y-12159500D01*
X16613465Y-12159500D01*
X16406535Y-12159500D01*
X16406530Y-12159500D01*
X16203587Y-12199868D01*
X16203579Y-12199870D01*
X16012403Y-12279058D01*
X15840342Y-12394024D01*
X15694024Y-12540342D01*
X15579058Y-12712403D01*
X15499870Y-12903579D01*
X15499868Y-12903587D01*
X15459500Y-13106530D01*
X15459500Y-13313469D01*
X15499868Y-13516412D01*
X15499870Y-13516420D01*
X15579059Y-13707599D01*
X15579059Y-13707600D01*
X15631852Y-13786610D01*
X15652730Y-13853287D01*
X15634245Y-13920667D01*
X15582266Y-13967357D01*
X15528750Y-13979500D01*
X15354108Y-13979500D01*
X15226812Y-14013608D01*
X15112686Y-14079500D01*
X15112683Y-14079502D01*
X12289502Y-16902683D01*
X12289500Y-16902686D01*
X12223608Y-17016812D01*
X12189500Y-17144108D01*
X12189500Y-24391323D01*
X12169815Y-24458362D01*
X12153181Y-24479004D01*
X9898375Y-26733809D01*
X9837052Y-26767294D01*
X9767360Y-26762310D01*
X9711427Y-26720438D01*
X9687010Y-26654974D01*
X9701862Y-26586701D01*
X9707585Y-26577247D01*
X9820941Y-26407598D01*
X9900130Y-26216420D01*
X9940500Y-26013465D01*
X9940500Y-25806535D01*
X9900130Y-25603580D01*
X9820941Y-25412402D01*
X9705977Y-25240345D01*
X9705975Y-25240342D01*
X9559657Y-25094024D01*
X9473626Y-25036541D01*
X9387598Y-24979059D01*
X9344282Y-24961117D01*
X9196420Y-24899870D01*
X9196412Y-24899868D01*
X8993469Y-24859500D01*
X8993465Y-24859500D01*
X8786535Y-24859500D01*
X8786530Y-24859500D01*
X8583587Y-24899868D01*
X8583579Y-24899870D01*
X8392403Y-24979058D01*
X8220342Y-25094024D01*
X8074024Y-25240342D01*
X7959058Y-25412403D01*
X7879870Y-25603579D01*
X7879868Y-25603587D01*
X7839500Y-25806530D01*
X4757085Y-25806530D01*
X4763108Y-25776251D01*
X4763108Y-25776250D01*
X4790499Y-25638545D01*
X4790500Y-25638543D01*
X4790500Y-25441456D01*
X4752052Y-25248170D01*
X4752051Y-25248169D01*
X4752051Y-25248165D01*
X4748811Y-25240342D01*
X4676635Y-25066092D01*
X4676628Y-25066079D01*
X4567139Y-24902218D01*
X4567136Y-24902214D01*
X4427785Y-24762863D01*
X4427781Y-24762860D01*
X4263920Y-24653371D01*
X4263907Y-24653364D01*
X4081839Y-24577950D01*
X4081829Y-24577947D01*
X3888543Y-24539500D01*
X3888541Y-24539500D01*
X3691459Y-24539500D01*
X3691457Y-24539500D01*
X3498170Y-24577947D01*
X3498160Y-24577950D01*
X3316092Y-24653364D01*
X3316079Y-24653371D01*
X3152218Y-24762860D01*
X3152214Y-24762863D01*
X3012863Y-24902214D01*
X3012860Y-24902218D01*
X2903371Y-25066079D01*
X2903364Y-25066092D01*
X2827950Y-25248160D01*
X2827947Y-25248170D01*
X2789500Y-25441456D01*
X2789500Y-25441459D01*
X2789500Y-25638541D01*
X2789500Y-25638543D01*
X2789499Y-25638543D01*
X500500Y-25638543D01*
X500500Y-23266530D01*
X7839500Y-23266530D01*
X7839500Y-23473469D01*
X7879472Y-23674421D01*
X7879870Y-23676420D01*
X7959059Y-23867598D01*
X8016541Y-23953626D01*
X8074024Y-24039657D01*
X8220342Y-24185975D01*
X8220345Y-24185977D01*
X8392402Y-24300941D01*
X8583580Y-24380130D01*
X8786530Y-24420499D01*
X8786534Y-24420500D01*
X8786535Y-24420500D01*
X8993466Y-24420500D01*
X8993467Y-24420499D01*
X9196420Y-24380130D01*
X9387598Y-24300941D01*
X9559655Y-24185977D01*
X9705977Y-24039655D01*
X9820941Y-23867598D01*
X9900130Y-23676420D01*
X9940500Y-23473465D01*
X9940500Y-23266535D01*
X9900130Y-23063580D01*
X9820941Y-22872402D01*
X9705977Y-22700345D01*
X9705975Y-22700342D01*
X9559657Y-22554024D01*
X9473626Y-22496541D01*
X9387598Y-22439059D01*
X9330753Y-22415513D01*
X9196420Y-22359870D01*
X9196412Y-22359868D01*
X8993469Y-22319500D01*
X8993465Y-22319500D01*
X8786535Y-22319500D01*
X8786530Y-22319500D01*
X8583587Y-22359868D01*
X8583579Y-22359870D01*
X8392403Y-22439058D01*
X8220342Y-22554024D01*
X8074024Y-22700342D01*
X7959058Y-22872403D01*
X7879870Y-23063579D01*
X7879868Y-23063587D01*
X7839500Y-23266530D01*
X500500Y-23266530D01*
X500500Y-20726530D01*
X7839500Y-20726530D01*
X7839500Y-20933469D01*
X7879868Y-21136412D01*
X7879870Y-21136420D01*
X7959058Y-21327596D01*
X8074024Y-21499657D01*
X8220342Y-21645975D01*
X8220345Y-21645977D01*
X8392402Y-21760941D01*
X8583580Y-21840130D01*
X8770885Y-21877387D01*
X8786530Y-21880499D01*
X8786534Y-21880500D01*
X8786535Y-21880500D01*
X8993466Y-21880500D01*
X8993467Y-21880499D01*
X9196420Y-21840130D01*
X9387598Y-21760941D01*
X9559655Y-21645977D01*
X9705977Y-21499655D01*
X9820941Y-21327598D01*
X9900130Y-21136420D01*
X9940500Y-20933465D01*
X9940500Y-20726535D01*
X9900130Y-20523580D01*
X9820941Y-20332402D01*
X9705977Y-20160345D01*
X9705975Y-20160342D01*
X9559657Y-20014024D01*
X9473626Y-19956541D01*
X9387598Y-19899059D01*
X9196420Y-19819870D01*
X9196414Y-19819868D01*
X9143617Y-19809366D01*
X9081706Y-19776981D01*
X9047132Y-19716265D01*
X9050873Y-19646495D01*
X9091739Y-19589823D01*
X9148413Y-19565275D01*
X9194422Y-19557988D01*
X9389031Y-19494755D01*
X9528643Y-19423618D01*
X8890001Y-18784974D01*
X8890000Y-18784974D01*
X8251354Y-19423619D01*
X8390965Y-19494753D01*
X8390972Y-19494756D01*
X8585577Y-19557988D01*
X8631586Y-19565275D01*
X8694722Y-19595204D01*
X8731653Y-19654515D01*
X8730657Y-19724378D01*
X8692047Y-19782611D01*
X8636383Y-19809366D01*
X8583584Y-19819868D01*
X8583579Y-19819870D01*
X8392403Y-19899058D01*
X8220342Y-20014024D01*
X8074024Y-20160342D01*
X7959058Y-20332403D01*
X7879870Y-20523579D01*
X7879868Y-20523587D01*
X7839500Y-20726530D01*
X500500Y-20726530D01*
X500500Y-18187682D01*
X7590000Y-18187682D01*
X7590000Y-18392317D01*
X7622010Y-18594418D01*
X7622010Y-18594421D01*
X7685241Y-18789023D01*
X7685241Y-18789024D01*
X7756379Y-18928644D01*
X7756380Y-18928644D01*
X8395025Y-18290000D01*
X8342364Y-18237339D01*
X8490000Y-18237339D01*
X8490000Y-18342661D01*
X8517259Y-18444394D01*
X8569920Y-18535606D01*
X8644394Y-18610080D01*
X8735606Y-18662741D01*
X8837339Y-18690000D01*
X8942661Y-18690000D01*
X9044394Y-18662741D01*
X9135606Y-18610080D01*
X9210080Y-18535606D01*
X9262741Y-18444394D01*
X9290000Y-18342661D01*
X9290000Y-18290000D01*
X9384974Y-18290000D01*
X10023618Y-18928643D01*
X10094755Y-18789031D01*
X10157990Y-18594417D01*
X10190000Y-18392317D01*
X10190000Y-18187682D01*
X10157990Y-17985582D01*
X10094756Y-17790972D01*
X10094753Y-17790965D01*
X10023619Y-17651354D01*
X9384974Y-18290000D01*
X9290000Y-18290000D01*
X9290000Y-18237339D01*
X9262741Y-18135606D01*
X9210080Y-18044394D01*
X9135606Y-17969920D01*
X9044394Y-17917259D01*
X8942661Y-17890000D01*
X8837339Y-17890000D01*
X8735606Y-17917259D01*
X8644394Y-17969920D01*
X8569920Y-18044394D01*
X8517259Y-18135606D01*
X8490000Y-18237339D01*
X8342364Y-18237339D01*
X7756379Y-17651354D01*
X7685242Y-17790973D01*
X7685242Y-17790974D01*
X7622010Y-17985578D01*
X7622010Y-17985581D01*
X7590000Y-18187682D01*
X500500Y-18187682D01*
X500500Y-15646530D01*
X7839500Y-15646530D01*
X7839500Y-15853469D01*
X7879868Y-16056412D01*
X7879870Y-16056420D01*
X7959058Y-16247596D01*
X8074024Y-16419657D01*
X8220342Y-16565975D01*
X8220345Y-16565977D01*
X8392402Y-16680941D01*
X8583580Y-16760130D01*
X8613696Y-16766120D01*
X8636381Y-16770633D01*
X8698292Y-16803017D01*
X8732866Y-16863733D01*
X8729127Y-16933502D01*
X8688261Y-16990175D01*
X8631589Y-17014723D01*
X8585579Y-17022010D01*
X8585578Y-17022010D01*
X8390974Y-17085242D01*
X8390973Y-17085242D01*
X8251354Y-17156379D01*
X8890000Y-17795025D01*
X8890001Y-17795025D01*
X9528644Y-17156380D01*
X9528644Y-17156379D01*
X9389024Y-17085241D01*
X9194419Y-17022010D01*
X9148411Y-17014723D01*
X9085276Y-16984794D01*
X9048345Y-16925482D01*
X9049343Y-16855619D01*
X9087953Y-16797387D01*
X9143616Y-16770633D01*
X9196420Y-16760130D01*
X9387598Y-16680941D01*
X9559655Y-16565977D01*
X9705977Y-16419655D01*
X9820941Y-16247598D01*
X9900130Y-16056420D01*
X9940500Y-15853465D01*
X9940500Y-15646535D01*
X9900130Y-15443580D01*
X9820941Y-15252402D01*
X9705977Y-15080345D01*
X9705975Y-15080342D01*
X9559657Y-14934024D01*
X9473626Y-14876541D01*
X9387598Y-14819059D01*
X9196420Y-14739870D01*
X9196412Y-14739868D01*
X8993469Y-14699500D01*
X8993465Y-14699500D01*
X8786535Y-14699500D01*
X8786530Y-14699500D01*
X8583587Y-14739868D01*
X8583579Y-14739870D01*
X8392403Y-14819058D01*
X8220342Y-14934024D01*
X8074024Y-15080342D01*
X7959058Y-15252403D01*
X7879870Y-15443579D01*
X7879868Y-15443587D01*
X7839500Y-15646530D01*
X500500Y-15646530D01*
X500500Y-13106530D01*
X7839500Y-13106530D01*
X7839500Y-13313469D01*
X7879868Y-13516412D01*
X7879870Y-13516420D01*
X7959059Y-13707598D01*
X8011853Y-13786610D01*
X8074024Y-13879657D01*
X8220342Y-14025975D01*
X8220345Y-14025977D01*
X8392402Y-14140941D01*
X8583580Y-14220130D01*
X8786530Y-14260499D01*
X8786534Y-14260500D01*
X8786535Y-14260500D01*
X8993466Y-14260500D01*
X8993467Y-14260499D01*
X9196420Y-14220130D01*
X9387598Y-14140941D01*
X9559655Y-14025977D01*
X9705977Y-13879655D01*
X9820941Y-13707598D01*
X9900130Y-13516420D01*
X9940500Y-13313465D01*
X9940500Y-13106535D01*
X9900130Y-12903580D01*
X9820941Y-12712402D01*
X9705977Y-12540345D01*
X9705975Y-12540342D01*
X9559657Y-12394024D01*
X9473626Y-12336541D01*
X9387598Y-12279059D01*
X9196420Y-12199870D01*
X9196412Y-12199868D01*
X8993469Y-12159500D01*
X8993465Y-12159500D01*
X8786535Y-12159500D01*
X8786530Y-12159500D01*
X8583587Y-12199868D01*
X8583579Y-12199870D01*
X8392403Y-12279058D01*
X8220342Y-12394024D01*
X8074024Y-12540342D01*
X7959058Y-12712403D01*
X7879870Y-12903579D01*
X7879868Y-12903587D01*
X7839500Y-13106530D01*
X500500Y-13106530D01*
X500500Y-10566530D01*
X7839500Y-10566530D01*
X7839500Y-10773469D01*
X7879868Y-10976412D01*
X7879870Y-10976420D01*
X7959058Y-11167596D01*
X8074024Y-11339657D01*
X8220342Y-11485975D01*
X8220345Y-11485977D01*
X8392402Y-11600941D01*
X8583580Y-11680130D01*
X8786530Y-11720499D01*
X8786534Y-11720500D01*
X8786535Y-11720500D01*
X8993466Y-11720500D01*
X8993467Y-11720499D01*
X9196420Y-11680130D01*
X9387598Y-11600941D01*
X9559655Y-11485977D01*
X9705977Y-11339655D01*
X9820941Y-11167598D01*
X9900130Y-10976420D01*
X9940500Y-10773465D01*
X9940500Y-10566535D01*
X9940499Y-10566530D01*
X15459500Y-10566530D01*
X15459500Y-10773469D01*
X15499868Y-10976412D01*
X15499870Y-10976420D01*
X15579058Y-11167596D01*
X15694024Y-11339657D01*
X15840342Y-11485975D01*
X15840345Y-11485977D01*
X16012402Y-11600941D01*
X16203580Y-11680130D01*
X16406530Y-11720499D01*
X16406534Y-11720500D01*
X16406535Y-11720500D01*
X16613466Y-11720500D01*
X16613467Y-11720499D01*
X16816420Y-11680130D01*
X17007598Y-11600941D01*
X17179655Y-11485977D01*
X17325977Y-11339655D01*
X17440941Y-11167598D01*
X17520130Y-10976420D01*
X17560500Y-10773465D01*
X17560500Y-10566535D01*
X17520130Y-10363580D01*
X17440941Y-10172402D01*
X17325977Y-10000345D01*
X17325975Y-10000342D01*
X17179657Y-9854024D01*
X17093626Y-9796541D01*
X17007598Y-9739059D01*
X16816420Y-9659870D01*
X16816412Y-9659868D01*
X16613469Y-9619500D01*
X16613465Y-9619500D01*
X16406535Y-9619500D01*
X16406530Y-9619500D01*
X16203587Y-9659868D01*
X16203579Y-9659870D01*
X16012403Y-9739058D01*
X15840342Y-9854024D01*
X15694024Y-10000342D01*
X15579058Y-10172403D01*
X15499870Y-10363579D01*
X15499868Y-10363587D01*
X15459500Y-10566530D01*
X9940499Y-10566530D01*
X9900130Y-10363580D01*
X9820941Y-10172402D01*
X9705977Y-10000345D01*
X9705975Y-10000342D01*
X9559657Y-9854024D01*
X9473626Y-9796541D01*
X9387598Y-9739059D01*
X9196420Y-9659870D01*
X9196412Y-9659868D01*
X8993469Y-9619500D01*
X8993465Y-9619500D01*
X8786535Y-9619500D01*
X8786530Y-9619500D01*
X8583587Y-9659868D01*
X8583579Y-9659870D01*
X8392403Y-9739058D01*
X8220342Y-9854024D01*
X8074024Y-10000342D01*
X7959058Y-10172403D01*
X7879870Y-10363579D01*
X7879868Y-10363587D01*
X7839500Y-10566530D01*
X500500Y-10566530D01*
X500500Y-8193920D01*
X3309499Y-8193920D01*
X3338340Y-8338907D01*
X3338343Y-8338917D01*
X3394912Y-8475488D01*
X3394919Y-8475501D01*
X3477048Y-8598415D01*
X3477051Y-8598419D01*
X3581580Y-8702948D01*
X3581584Y-8702951D01*
X3704498Y-8785080D01*
X3704511Y-8785087D01*
X3841082Y-8841656D01*
X3841087Y-8841658D01*
X3841091Y-8841658D01*
X3841092Y-8841659D01*
X3986079Y-8870500D01*
X3986082Y-8870500D01*
X4133920Y-8870500D01*
X4231462Y-8851096D01*
X4278913Y-8841658D01*
X4415495Y-8785084D01*
X4538416Y-8702951D01*
X4642951Y-8598416D01*
X4725084Y-8475495D01*
X4781658Y-8338913D01*
X4802633Y-8233466D01*
X4810500Y-8193920D01*
X4810500Y-8118675D01*
X4830185Y-8051636D01*
X4846814Y-8030998D01*
X5646279Y-7231533D01*
X5707600Y-7198050D01*
X5777291Y-7203034D01*
X5833225Y-7244906D01*
X5855575Y-7295023D01*
X5876588Y-7400660D01*
X5876591Y-7400669D01*
X5933160Y-7537240D01*
X5933167Y-7537253D01*
X6015296Y-7660167D01*
X6015299Y-7660171D01*
X6119828Y-7764700D01*
X6119832Y-7764703D01*
X6242746Y-7846832D01*
X6242759Y-7846839D01*
X6373727Y-7901087D01*
X6379335Y-7903410D01*
X6379339Y-7903410D01*
X6379340Y-7903411D01*
X6524327Y-7932252D01*
X6524330Y-7932252D01*
X6672168Y-7932252D01*
X6769710Y-7912848D01*
X6817161Y-7903410D01*
X6953743Y-7846836D01*
X7076664Y-7764703D01*
X7124547Y-7716820D01*
X7185870Y-7683334D01*
X7212229Y-7680500D01*
X7757236Y-7680500D01*
X7824275Y-7700185D01*
X7870030Y-7752989D01*
X7879974Y-7822147D01*
X7878853Y-7828691D01*
X7839500Y-8026530D01*
X7839500Y-8233469D01*
X7879868Y-8436412D01*
X7879870Y-8436420D01*
X7959058Y-8627596D01*
X8074024Y-8799657D01*
X8220342Y-8945975D01*
X8220345Y-8945977D01*
X8392402Y-9060941D01*
X8583580Y-9140130D01*
X8786530Y-9180499D01*
X8786534Y-9180500D01*
X8786535Y-9180500D01*
X8993466Y-9180500D01*
X8993467Y-9180499D01*
X9196420Y-9140130D01*
X9387598Y-9060941D01*
X9559655Y-8945977D01*
X9705977Y-8799655D01*
X9820941Y-8627598D01*
X9900130Y-8436420D01*
X9940500Y-8233465D01*
X9940500Y-8026535D01*
X9940499Y-8026530D01*
X15459500Y-8026530D01*
X15459500Y-8233469D01*
X15499868Y-8436412D01*
X15499870Y-8436420D01*
X15579058Y-8627596D01*
X15694024Y-8799657D01*
X15840342Y-8945975D01*
X15840345Y-8945977D01*
X16012402Y-9060941D01*
X16203580Y-9140130D01*
X16406530Y-9180499D01*
X16406534Y-9180500D01*
X16406535Y-9180500D01*
X16613466Y-9180500D01*
X16613467Y-9180499D01*
X16816420Y-9140130D01*
X17007598Y-9060941D01*
X17179655Y-8945977D01*
X17325977Y-8799655D01*
X17440941Y-8627598D01*
X17520130Y-8436420D01*
X17560500Y-8233465D01*
X17560500Y-8026535D01*
X17520130Y-7823580D01*
X17440941Y-7632402D01*
X17325977Y-7460345D01*
X17325975Y-7460342D01*
X17179657Y-7314024D01*
X17013547Y-7203034D01*
X17007598Y-7199059D01*
X16930959Y-7167314D01*
X16816420Y-7119870D01*
X16816412Y-7119868D01*
X16613469Y-7079500D01*
X16613465Y-7079500D01*
X16406535Y-7079500D01*
X16406530Y-7079500D01*
X16203587Y-7119868D01*
X16203579Y-7119870D01*
X16012403Y-7199058D01*
X15840342Y-7314024D01*
X15694024Y-7460342D01*
X15579058Y-7632403D01*
X15499870Y-7823579D01*
X15499868Y-7823587D01*
X15459500Y-8026530D01*
X9940499Y-8026530D01*
X9900130Y-7823580D01*
X9820941Y-7632402D01*
X9715570Y-7474703D01*
X9694693Y-7408026D01*
X9713178Y-7340646D01*
X9756670Y-7298428D01*
X9822364Y-7260500D01*
X9915550Y-7167314D01*
X9915553Y-7167308D01*
X9920500Y-7160863D01*
X9920762Y-7161064D01*
X9933990Y-7143822D01*
X11591284Y-5486530D01*
X15459500Y-5486530D01*
X15459500Y-5693469D01*
X15499868Y-5896412D01*
X15499870Y-5896420D01*
X15579059Y-6087598D01*
X15636541Y-6173626D01*
X15694024Y-6259657D01*
X15840342Y-6405975D01*
X15840345Y-6405977D01*
X16012402Y-6520941D01*
X16203580Y-6600130D01*
X16349721Y-6629199D01*
X16406530Y-6640499D01*
X16406534Y-6640500D01*
X16406535Y-6640500D01*
X16613466Y-6640500D01*
X16613467Y-6640499D01*
X16816420Y-6600130D01*
X17007598Y-6520941D01*
X17179655Y-6405977D01*
X17325977Y-6259655D01*
X17440941Y-6087598D01*
X17516364Y-5905513D01*
X23749500Y-5905513D01*
X23749500Y-6094486D01*
X23779059Y-6281118D01*
X23837454Y-6460836D01*
X23908429Y-6600131D01*
X23923240Y-6629199D01*
X24034310Y-6782073D01*
X24167927Y-6915690D01*
X24320801Y-7026760D01*
X24400347Y-7067290D01*
X24489163Y-7112545D01*
X24489165Y-7112545D01*
X24489168Y-7112547D01*
X24585410Y-7143818D01*
X24668881Y-7170940D01*
X24855514Y-7200500D01*
X24855519Y-7200500D01*
X26344486Y-7200500D01*
X26531118Y-7170940D01*
X26710832Y-7112547D01*
X26879199Y-7026760D01*
X27032073Y-6915690D01*
X27165690Y-6782073D01*
X27276760Y-6629199D01*
X27362547Y-6460832D01*
X27420940Y-6281118D01*
X27435152Y-6191388D01*
X27450500Y-6094486D01*
X27450500Y-5905513D01*
X36249500Y-5905513D01*
X36249500Y-6094486D01*
X36279059Y-6281118D01*
X36337454Y-6460836D01*
X36408429Y-6600131D01*
X36423240Y-6629199D01*
X36534310Y-6782073D01*
X36667927Y-6915690D01*
X36820801Y-7026760D01*
X36900347Y-7067290D01*
X36989163Y-7112545D01*
X36989165Y-7112545D01*
X36989168Y-7112547D01*
X37085410Y-7143818D01*
X37168881Y-7170940D01*
X37355514Y-7200500D01*
X37355519Y-7200500D01*
X38844486Y-7200500D01*
X39031118Y-7170940D01*
X39210832Y-7112547D01*
X39379199Y-7026760D01*
X39532073Y-6915690D01*
X39665690Y-6782073D01*
X39776760Y-6629199D01*
X39862547Y-6460832D01*
X39920940Y-6281118D01*
X39935152Y-6191388D01*
X39950500Y-6094486D01*
X39950500Y-5905513D01*
X39920940Y-5718881D01*
X39866754Y-5552116D01*
X39862547Y-5539168D01*
X39862545Y-5539165D01*
X39862545Y-5539163D01*
X39817290Y-5450347D01*
X39776760Y-5370801D01*
X39665690Y-5217927D01*
X39532073Y-5084310D01*
X39379199Y-4973240D01*
X39331121Y-4948743D01*
X39210836Y-4887454D01*
X39031118Y-4829059D01*
X38844486Y-4799500D01*
X38844481Y-4799500D01*
X37355519Y-4799500D01*
X37355514Y-4799500D01*
X37168881Y-4829059D01*
X36989163Y-4887454D01*
X36820800Y-4973240D01*
X36733579Y-5036610D01*
X36667927Y-5084310D01*
X36667925Y-5084312D01*
X36667924Y-5084312D01*
X36534312Y-5217924D01*
X36534312Y-5217925D01*
X36534310Y-5217927D01*
X36525949Y-5229435D01*
X36423240Y-5370800D01*
X36337454Y-5539163D01*
X36279059Y-5718881D01*
X36249500Y-5905513D01*
X27450500Y-5905513D01*
X27420940Y-5718881D01*
X27366754Y-5552116D01*
X27362547Y-5539168D01*
X27362545Y-5539165D01*
X27362545Y-5539163D01*
X27317290Y-5450347D01*
X27276760Y-5370801D01*
X27165690Y-5217927D01*
X27032073Y-5084310D01*
X26879199Y-4973240D01*
X26831121Y-4948743D01*
X26710836Y-4887454D01*
X26531118Y-4829059D01*
X26344486Y-4799500D01*
X26344481Y-4799500D01*
X24855519Y-4799500D01*
X24855514Y-4799500D01*
X24668881Y-4829059D01*
X24489163Y-4887454D01*
X24320800Y-4973240D01*
X24233579Y-5036610D01*
X24167927Y-5084310D01*
X24167925Y-5084312D01*
X24167924Y-5084312D01*
X24034312Y-5217924D01*
X24034312Y-5217925D01*
X24034310Y-5217927D01*
X24025949Y-5229435D01*
X23923240Y-5370800D01*
X23837454Y-5539163D01*
X23779059Y-5718881D01*
X23749500Y-5905513D01*
X17516364Y-5905513D01*
X17520130Y-5896420D01*
X17520132Y-5896412D01*
X17524102Y-5876454D01*
X17524102Y-5876452D01*
X17560499Y-5693469D01*
X17560500Y-5693466D01*
X17560500Y-5486534D01*
X17560499Y-5486530D01*
X17554255Y-5455140D01*
X17520130Y-5283580D01*
X17440941Y-5092402D01*
X17325977Y-4920345D01*
X17325975Y-4920342D01*
X17179657Y-4774024D01*
X17093626Y-4716541D01*
X17007598Y-4659059D01*
X16816420Y-4579870D01*
X16816412Y-4579868D01*
X16613469Y-4539500D01*
X16613465Y-4539500D01*
X16406535Y-4539500D01*
X16406530Y-4539500D01*
X16203587Y-4579868D01*
X16203579Y-4579870D01*
X16012403Y-4659058D01*
X15840342Y-4774024D01*
X15694024Y-4920342D01*
X15579058Y-5092403D01*
X15499870Y-5283579D01*
X15499868Y-5283587D01*
X15459500Y-5486530D01*
X11591284Y-5486530D01*
X11697747Y-5380067D01*
X11759070Y-5346582D01*
X11785428Y-5343748D01*
X11850672Y-5343748D01*
X11948214Y-5324344D01*
X11995665Y-5314906D01*
X12132247Y-5258332D01*
X12255168Y-5176199D01*
X12359703Y-5071664D01*
X12441836Y-4948743D01*
X12498410Y-4812161D01*
X12507848Y-4764710D01*
X12527252Y-4667168D01*
X12527252Y-4519327D01*
X12498411Y-4374340D01*
X12498410Y-4374339D01*
X12498410Y-4374335D01*
X12493196Y-4361748D01*
X12441839Y-4237759D01*
X12441832Y-4237746D01*
X12359703Y-4114832D01*
X12359700Y-4114828D01*
X12255171Y-4010299D01*
X12255167Y-4010296D01*
X12132253Y-3928167D01*
X12132240Y-3928160D01*
X11995669Y-3871591D01*
X11995659Y-3871588D01*
X11850672Y-3842748D01*
X11850670Y-3842748D01*
X11702834Y-3842748D01*
X11702832Y-3842748D01*
X11557844Y-3871588D01*
X11557834Y-3871591D01*
X11421263Y-3928160D01*
X11421250Y-3928167D01*
X11298336Y-4010296D01*
X11298332Y-4010299D01*
X11193803Y-4114828D01*
X11193800Y-4114832D01*
X11111671Y-4237746D01*
X11111664Y-4237759D01*
X11055095Y-4374330D01*
X11055092Y-4374340D01*
X11026252Y-4519327D01*
X11026252Y-4584571D01*
X11006567Y-4651610D01*
X10989933Y-4672252D01*
X10143553Y-5518631D01*
X10082230Y-5552116D01*
X10012538Y-5547132D01*
X9956605Y-5505260D01*
X9934256Y-5455144D01*
X9900130Y-5283580D01*
X9820941Y-5092402D01*
X9705977Y-4920345D01*
X9705975Y-4920342D01*
X9559657Y-4774024D01*
X9473626Y-4716541D01*
X9387598Y-4659059D01*
X9196420Y-4579870D01*
X9196412Y-4579868D01*
X8993469Y-4539500D01*
X8993465Y-4539500D01*
X8786535Y-4539500D01*
X8786530Y-4539500D01*
X8627936Y-4571046D01*
X8558344Y-4564819D01*
X8503167Y-4521955D01*
X8479923Y-4456065D01*
X8495991Y-4388069D01*
X8516060Y-4361752D01*
X8740995Y-4136818D01*
X8802318Y-4103333D01*
X8828676Y-4100499D01*
X9487871Y-4100499D01*
X9487872Y-4100499D01*
X9547483Y-4094091D01*
X9682331Y-4043796D01*
X9797546Y-3957546D01*
X9883796Y-3842331D01*
X9934091Y-3707483D01*
X9940500Y-3647873D01*
X9940499Y-2946530D01*
X15459500Y-2946530D01*
X15459500Y-3153469D01*
X15494520Y-3329524D01*
X15499870Y-3356420D01*
X15579059Y-3547598D01*
X15629230Y-3622685D01*
X15694024Y-3719657D01*
X15840342Y-3865975D01*
X15840345Y-3865977D01*
X16012402Y-3980941D01*
X16203580Y-4060130D01*
X16374315Y-4094091D01*
X16406530Y-4100499D01*
X16406534Y-4100500D01*
X16406535Y-4100500D01*
X16613466Y-4100500D01*
X16613467Y-4100499D01*
X16816420Y-4060130D01*
X17007598Y-3980941D01*
X17179655Y-3865977D01*
X17325977Y-3719655D01*
X17440941Y-3547598D01*
X17520130Y-3356420D01*
X17560500Y-3153465D01*
X17560500Y-2946535D01*
X17520130Y-2743580D01*
X17440941Y-2552402D01*
X17325977Y-2380345D01*
X17325975Y-2380342D01*
X17179657Y-2234024D01*
X17071231Y-2161577D01*
X19729500Y-2161577D01*
X19729500Y-2358422D01*
X19760290Y-2552826D01*
X19821117Y-2740029D01*
X19910476Y-2915405D01*
X20026172Y-3074646D01*
X20165354Y-3213828D01*
X20324595Y-3329524D01*
X20377366Y-3356412D01*
X20499970Y-3418882D01*
X20499972Y-3418882D01*
X20499975Y-3418884D01*
X20600317Y-3451487D01*
X20687173Y-3479709D01*
X20881578Y-3510500D01*
X20881583Y-3510500D01*
X21078422Y-3510500D01*
X21272826Y-3479709D01*
X21460025Y-3418884D01*
X21635405Y-3329524D01*
X21794646Y-3213828D01*
X21933828Y-3074646D01*
X22049524Y-2915405D01*
X22138884Y-2740025D01*
X22199709Y-2552826D01*
X22211239Y-2480029D01*
X22230500Y-2358422D01*
X22230500Y-2161577D01*
X22199709Y-1967173D01*
X22138882Y-1779970D01*
X22049523Y-1604594D01*
X21933828Y-1445354D01*
X21794646Y-1306172D01*
X21635405Y-1190476D01*
X21460029Y-1101117D01*
X21272826Y-1040290D01*
X21078422Y-1009500D01*
X21078417Y-1009500D01*
X20881583Y-1009500D01*
X20881578Y-1009500D01*
X20687173Y-1040290D01*
X20499970Y-1101117D01*
X20324594Y-1190476D01*
X20233741Y-1256485D01*
X20165354Y-1306172D01*
X20165352Y-1306174D01*
X20165351Y-1306174D01*
X20026174Y-1445351D01*
X20026174Y-1445352D01*
X20026172Y-1445354D01*
X19976485Y-1513741D01*
X19910476Y-1604594D01*
X19821117Y-1779970D01*
X19760290Y-1967173D01*
X19729500Y-2161577D01*
X17071231Y-2161577D01*
X17042608Y-2142452D01*
X17007598Y-2119059D01*
X16816420Y-2039870D01*
X16816412Y-2039868D01*
X16613469Y-1999500D01*
X16613465Y-1999500D01*
X16406535Y-1999500D01*
X16406530Y-1999500D01*
X16203587Y-2039868D01*
X16203579Y-2039870D01*
X16012403Y-2119058D01*
X15840342Y-2234024D01*
X15694024Y-2380342D01*
X15579058Y-2552403D01*
X15499870Y-2743579D01*
X15499868Y-2743587D01*
X15459500Y-2946530D01*
X9940499Y-2946530D01*
X9940499Y-2452128D01*
X9934091Y-2392517D01*
X9929551Y-2380345D01*
X9883797Y-2257671D01*
X9883793Y-2257664D01*
X9797547Y-2142455D01*
X9797544Y-2142452D01*
X9682335Y-2056206D01*
X9682328Y-2056202D01*
X9547482Y-2005908D01*
X9547483Y-2005908D01*
X9487883Y-1999501D01*
X9487881Y-1999500D01*
X9487873Y-1999500D01*
X9487864Y-1999500D01*
X8292129Y-1999500D01*
X8292123Y-1999501D01*
X8232516Y-2005908D01*
X8097671Y-2056202D01*
X8097664Y-2056206D01*
X7982455Y-2142452D01*
X7982452Y-2142455D01*
X7896206Y-2257664D01*
X7896202Y-2257671D01*
X7845908Y-2392517D01*
X7839501Y-2452116D01*
X7839501Y-2452123D01*
X7839500Y-2452135D01*
X7839500Y-3571323D01*
X7819815Y-3638362D01*
X7803181Y-3659004D01*
X4129005Y-7333181D01*
X4067682Y-7366666D01*
X4041324Y-7369500D01*
X3986080Y-7369500D01*
X3841092Y-7398340D01*
X3841082Y-7398343D01*
X3704511Y-7454912D01*
X3704498Y-7454919D01*
X3581584Y-7537048D01*
X3581580Y-7537051D01*
X3477051Y-7641580D01*
X3477048Y-7641584D01*
X3394919Y-7764498D01*
X3394912Y-7764511D01*
X3338343Y-7901082D01*
X3338340Y-7901092D01*
X3309500Y-8046079D01*
X3309500Y-8046082D01*
X3309500Y-8193918D01*
X3309500Y-8193920D01*
X3309499Y-8193920D01*
X500500Y-8193920D01*
X500500Y-1901577D01*
X4119500Y-1901577D01*
X4119500Y-2098422D01*
X4150290Y-2292826D01*
X4211117Y-2480029D01*
X4300476Y-2655405D01*
X4416172Y-2814646D01*
X4555354Y-2953828D01*
X4714595Y-3069524D01*
X4797455Y-3111743D01*
X4889970Y-3158882D01*
X4889972Y-3158882D01*
X4889975Y-3158884D01*
X4990317Y-3191487D01*
X5077173Y-3219709D01*
X5271578Y-3250500D01*
X5271583Y-3250500D01*
X5468422Y-3250500D01*
X5662826Y-3219709D01*
X5680935Y-3213825D01*
X5850025Y-3158884D01*
X6025405Y-3069524D01*
X6184646Y-2953828D01*
X6323828Y-2814646D01*
X6439524Y-2655405D01*
X6528884Y-2480025D01*
X6589709Y-2292826D01*
X6599022Y-2234024D01*
X6620500Y-2098422D01*
X6620500Y-1901577D01*
X6589709Y-1707173D01*
X6556379Y-1604595D01*
X6528884Y-1519975D01*
X6528882Y-1519972D01*
X6528882Y-1519970D01*
X6439523Y-1344594D01*
X6411609Y-1306174D01*
X6323828Y-1185354D01*
X6184646Y-1046172D01*
X6025405Y-930476D01*
X5850029Y-841117D01*
X5662826Y-780290D01*
X5468422Y-749500D01*
X5468417Y-749500D01*
X5271583Y-749500D01*
X5271578Y-749500D01*
X5077173Y-780290D01*
X4889970Y-841117D01*
X4714594Y-930476D01*
X4623741Y-996485D01*
X4555354Y-1046172D01*
X4555352Y-1046174D01*
X4555351Y-1046174D01*
X4416174Y-1185351D01*
X4416174Y-1185352D01*
X4416172Y-1185354D01*
X4412451Y-1190476D01*
X4300476Y-1344594D01*
X4211117Y-1519970D01*
X4150290Y-1707173D01*
X4119500Y-1901577D01*
X500500Y-1901577D01*
X500500Y-624500D01*
X520185Y-557461D01*
X572989Y-511706D01*
X624500Y-500500D01*
X40375500Y-500500D01*
X40442539Y-520185D01*
G37*
%TD.AperFunction*%
%TD*%
M02*
